<svg xmlns="http://www.w3.org/2000/svg" width="22.329" height="19.936"><g data-name="グループ 5372"><path data-name="多角形 15" d="M9.419 3.116a2 2 0 0 1 3.49 0l7.752 13.843a2 2 0 0 1-1.745 2.977H3.412a2 2 0 0 1-1.745-2.977Z" fill="#cc0133"/><path data-name="パス 14723" d="m10.05 14.012-.283-4.241-.064-1.791h1.96l-.064 1.791-.283 4.241Zm.627 3.3a1.092 1.092 0 0 1-.843-.366 1.256 1.256 0 0 1-.332-.88 1.236 1.236 0 0 1 .332-.883 1.108 1.108 0 0 1 .843-.347 1.122 1.122 0 0 1 .855.352 1.236 1.236 0 0 1 .332.883 1.256 1.256 0 0 1-.332.875 1.106 1.106 0 0 1-.855.367Z" fill="#fff"/></g></svg>