<svg xmlns="http://www.w3.org/2000/svg" width="344.002" height="45.995" viewBox="0 0 344.002 45.995">
  <path id="logo" d="M181.382,466.975a3.793,3.793,0,0,1-3.888-3.866,3.841,3.841,0,0,1,3.888-3.867,3.628,3.628,0,0,1,2.061.447v1.771a2.891,2.891,0,0,0-2.061-.651,2.3,2.3,0,1,0,0,4.6,2.545,2.545,0,0,0,2.245-.905v1.873a3.649,3.649,0,0,1-2.148.6Zm74.061-3.866a3.888,3.888,0,1,1,3.887,3.866A3.845,3.845,0,0,1,255.443,463.109Zm1.6,0a2.283,2.283,0,1,0,2.283-2.271A2.28,2.28,0,0,0,257.047,463.109Zm-153.776,0a3.845,3.845,0,0,1,3.887-3.867,4.082,4.082,0,0,1,2.567.7v1.85a3.091,3.091,0,0,0-2.567-.953,2.271,2.271,0,1,0,0,4.541,2.224,2.224,0,0,0,1.672-.7v-.62H106.9v-1.609h3.547v2.862a3.834,3.834,0,0,1-3.286,1.66A3.876,3.876,0,0,1,103.271,463.109Zm31.316,3.78a5.556,5.556,0,0,1-2.659-.763l0-1.956a5.09,5.09,0,0,0,2.921,1.028c.456-.007,1.026-.16,1.063-.613.035-.437-.521-.659-1.257-.891-2.191-.691-3-1.661-2.632-2.9a2.41,2.41,0,0,1,2.061-1.517,4.779,4.779,0,0,1,2.729.4v1.7a4.2,4.2,0,0,0-2.371-.6c-.568.032-.845.251-.869.518-.049.53.875.744,1.387.91.969.313,2.354.764,2.584,2.018a2.041,2.041,0,0,1-.735,1.994,3.245,3.245,0,0,1-2.1.675Zm98.177-.07V459.4l2.121,0c1.246,0,3.01.1,3.372,1.521a1.809,1.809,0,0,1-.78,2,1.828,1.828,0,0,1,1.19,2.038c-.158,1.226-1.312,1.876-2.942,1.876C235.394,466.83,232.765,466.818,232.765,466.818Zm1.614-1.59H235.9c.714,0,1.038-.2,1.038-.661s-.331-.727-1.038-.727h-1.521Zm0-2.939h1.271c.587,0,.924-.238.924-.634s-.359-.638-.924-.638h-1.271Zm-92.272,4.53V459.4l2.121,0c1.246,0,3.01.1,3.372,1.521a1.809,1.809,0,0,1-.78,2,1.828,1.828,0,0,1,1.19,2.038c-.157,1.226-1.312,1.876-2.942,1.876C144.736,466.83,142.107,466.818,142.107,466.818Zm1.614-1.59h1.521c.714,0,1.039-.2,1.039-.661s-.332-.727-1.039-.727h-1.521Zm0-2.939h1.271c.587,0,.924-.238.924-.634s-.359-.638-.924-.638h-1.271Zm126.416,4.53v0l-3.409-4.68v4.684h-1.615V459.4h1.615l3.409,4.68V459.4h1.615v7.42Zm-54.2,0-1.507-2.372-1.507,2.372h-1.894l2.458-3.855-2.26-3.559,1.871-.005,1.331,2.087,1.331-2.087,1.871.005-2.26,3.559,2.458,3.855Zm-20.167,0v-3.07l-.005,0-3.151-4.348h1.99l1.969,2.718,1.969-2.718h1.99l-3.148,4.344v3.07Zm-5.3,0-1.441-2.4h-1.493v2.4h-1.614V459.4h3.291a2.326,2.326,0,0,1,2.537,2.508,2.264,2.264,0,0,1-1.085,2.141l1.66,2.77Zm-2.934-3.97h1.439c.961,0,1.2-.522,1.2-.941s-.239-.941-1.2-.941h-1.439Zm-24.318,3.97v0l-3.41-4.68v4.684H158.2V459.4h1.614l3.41,4.68V459.4h1.614v7.42Zm-8.2,0-.509-1.367h-3.1l-.5,1.367h-1.74l2.758-7.42h2.074l2.738,7.42Zm-3.015-2.973h1.91l-.958-2.578Zm-26.611,2.973V459.4h1.614v5.815h3.447v1.6Zm-3.893,0-1.441-2.4h-1.494v2.4h-1.614V459.4h3.292a2.326,2.326,0,0,1,2.537,2.508,2.263,2.263,0,0,1-1.086,2.141l1.661,2.77Zm-2.935-3.97h1.439c.962,0,1.2-.522,1.2-.941s-.239-.941-1.2-.941h-1.439ZM246.35,466.81v-5.84H244.2V459.4h5.92v1.571h-2.16v5.84Zm-21.95,0V463.8h-3.18v3.01h-1.61V459.4h1.61v2.831h3.18V459.4h1.61v7.411Zm-19.98,0V459.4h4.84v1.571h-3.23v1.26h3.01v1.57h-3.01v1.44h3.451v1.57Zm-37.157-.005v-7.42H169.7a3.714,3.714,0,1,1,0,7.42Zm1.614-1.5h.822a2.209,2.209,0,1,0,0-4.413h-.822Zm83.053,1.5V459.38h1.61V466.8Zm-11.16,0V459.38h1.61V466.8Zm-12.19,0V459.38h1.61V466.8Zm-115.8,0V459.38h1.61V466.8Zm2.893-15.1-1.534,2.188H99.64v-12.12l8.86-.163,4.54-6.254H100.455v-10.49H119.3v3.411h7.143v8.063l-3.136,4.473,5.357.839-.024,12.493Zm187.5,2.188V441.454l-8.318,1.76-.063-12.472,28.342-6.822v13.308l-7.48,1.584v15.072Zm-39.122,0v-9.64h15.135l2.3-2.435H262.968v-8.116h29.345v11.57l-7.258,8.621Zm-32.193,0,.071-11.42h14.685l1.128-6.431h-3.9l-.68,3.169-12.711.078,3.89-14.829h11.99l-.524,2.435H261.4l-4,27Zm-63.237,0V441.591h8.113l20.037-5.46v13.814l-18.365,3.94Zm-14.246,0-2.236-29.463h4.7v3.848h7.493l2.416,25.616Zm-18.671,0,2.78-29.463h11.831l-2.236,29.463Zm-53.075,0V424.453H94.834l-.166,17.662,3.619-.8v12.572Zm-15.782,0,2.789-29.463H81.464l-2.228,29.463Zm-33.307,0v-9.2h2.009v-8.273H30.725L27.3,453.885H15.5l4.113-17.476H17.028V426.95l4.8.026.594-2.524h10.64l-.506,2.582,6.017.033v1.2h7.1v25.616Zm165.578,0v-29.4h12.459v5.588l14.5,5.682-2.228,12.455-12.271-5.181v10.854Zm159.619-.118H351.1v-.04l-2.4-4.32v3.95l-10.324.409V448.92l.91-.036v-2.939h-1.443l0,7.82H328.03l1.1-29.312h29.6v10.394h-2.66v1.322h2.66V440.4h-2.66v1.321H359.5v4.227h-5.646l1.453,2.329.566-1.594H359.5l-.768,2.24h.768l-.023,4.845Zm-13.212-5.128,2.7-.106-1.438-2.586h-1.257Zm1.75-6.919h2.57V440.4h-2.57Zm-6.233,0V440.4h-2.659v-4.227h2.659v-1.322h-3.2l0,6.871Zm6.233-5.548h2.57v-1.322h-2.57Zm-9.43-5.549h12.218V429.3H337.839ZM47.71,445.15V432.94H65.82v12.21Zm121.6-11.768,3.923-9.178,14.468,4.683-4.174,9.616Zm94.7-.841v-8.09h27.23v8.09Zm-44.59-5.27V420.98h4.67v6.289Zm-6.11,0V420.98h4.67v6.289Zm-49.37,0V420.98h4.669v6.289Zm-6.1,0V420.98h4.67v6.289Zm-31.441,0V420.98h4.67v6.289Zm-6.1,0V420.98h4.67v6.289Zm-74.62,0V420.98H50.35v6.289Zm-6.1,0V420.98h4.67v6.289Z" transform="translate(-15.499 -420.98)" fill="#fff"/>
</svg>
