<svg xmlns="http://www.w3.org/2000/svg" width="120" height="12.019" viewBox="0 0 120 12.019">
  <path id="シェイプ_9" data-name="シェイプ 9" d="M612.667,4177.264a5.753,5.753,0,0,0,2.193-1.388,5.282,5.282,0,0,0,1.287-2.207H613.9c-.158,0-.223,0-.683.013v2.245a9.15,9.15,0,0,0,.039,1.052h-1.3v-.532h-1.141v1.232h-1.367a12.062,12.062,0,0,0,.066-1.531V4168.5c0-.48-.014-.843-.039-1.271.315.025.564.039,1.089.039h1.549c.579,0,.854-.014,1.143-.039-.026.285-.039.609-.039,1.168v3.971c.236.013.46.026.7.026v-3.038c0-.467-.013-.765-.04-1.063.328.026.591.04,1.129.04h1.511v-.521a9.105,9.105,0,0,0-.079-1.311h1.536a9.888,9.888,0,0,0-.079,1.832h1.654a10.194,10.194,0,0,0,1.037-.04,10.494,10.494,0,0,0-.04,1.1v3c.446-.014.565-.026.8-.051v1.387c-.393-.039-.866-.064-1.431-.064h-1.8a6.339,6.339,0,0,0,3.439,3.388,4.453,4.453,0,0,0-.748,1.387,8.327,8.327,0,0,1-2.1-1.531,7.361,7.361,0,0,1-1.484-2.1,6.829,6.829,0,0,1-3.676,3.673A3.709,3.709,0,0,0,612.667,4177.264Zm-1.837-2.077h1.129v-2.8H610.83Zm7.037-4.7c-.014.623-.054,1.245-.105,1.908h1.457v-2.816h-1.339Zm-2.639,1.908h1.155c.065-.753.118-1.649.118-2.415v-.4h-1.273Zm-4.4-1.233h1.129v-2.648H610.83Zm-9.722,7.229a10.358,10.358,0,0,0,.092-1.48v-.935c0-.155.014-.636.027-.881a8.547,8.547,0,0,1-2.508,2.05,13.82,13.82,0,0,1-2.245,1,5.569,5.569,0,0,0-.734-1.312,11.1,11.1,0,0,0,2.467-.959,7.8,7.8,0,0,0,1.878-1.337h-1.418a10.006,10.006,0,0,0-1.484.065,1.636,1.636,0,0,1,.04-.376c0-.053,0-.053.013-.947v-2.388a12.082,12.082,0,0,0-.053-1.337,9.4,9.4,0,0,0,1.432.065H601.2v-.728h-3.557a11.35,11.35,0,0,0-1.589.078v-1.427a11.886,11.886,0,0,0,1.68.091H601.2a7.407,7.407,0,0,0-.092-1.169h1.6a6.433,6.433,0,0,0-.078,1.169h3.582a11.28,11.28,0,0,0,1.72-.091v1.427a14.448,14.448,0,0,0-1.628-.078h-3.675v.728h2.743a12.8,12.8,0,0,0,1.458-.053,12.954,12.954,0,0,0-.053,1.311v2.4a10.091,10.091,0,0,0,.053,1.323,10.368,10.368,0,0,0-1.471-.065h-1.576a9.291,9.291,0,0,0,4.556,2.219,8.551,8.551,0,0,0-.748,1.376,13.736,13.736,0,0,1-2.691-1.182,8.461,8.461,0,0,1-2.3-1.869c.014.429.027.676.027.9v.935a7.859,7.859,0,0,0,.092,1.48Zm1.524-4.971h2.757v-.817h-2.757Zm-4,0H601.2v-.817h-2.572Zm4-1.9h2.757v-.792h-2.757Zm-4,0H601.2v-.792h-2.572Zm92.562,6.672v-.611H686.16a8.321,8.321,0,0,0-1.18.053v-1.44a6.127,6.127,0,0,0,1.18.09H691.2v-1.96h-4.568a8.327,8.327,0,0,0-1.182.053v-1.415a5.959,5.959,0,0,0,1.182.091H691.2v-1.805h-4.91a8.663,8.663,0,0,0-1.182.053v-1.441a6.061,6.061,0,0,0,1.182.09h5.173a11.318,11.318,0,0,0,1.22-.051c-.026.468-.04.791-.04,1.363v5.944a6.479,6.479,0,0,0,.053.986Zm-68.477-1.622a6.105,6.105,0,0,0,2.3-1.1c1.338-1.051,1.758-2.167,1.758-4.621a3.248,3.248,0,0,0-.065-.779h1.786a5.778,5.778,0,0,0-.053,1.052c-.051,2.219-.407,3.466-1.3,4.595a7.6,7.6,0,0,1-3.387,2.336A4.574,4.574,0,0,0,622.712,4176.576Zm24.549-.066a14.123,14.123,0,0,0,5.068-4.01,23.7,23.7,0,0,0-3.479-2.336l1.155-1.143c.957.56,1.523.923,2.166,1.376.984.7.984.7,1.09.767a15.8,15.8,0,0,0,1.851-4.18l1.785.609a7.751,7.751,0,0,0-.46.935,21.615,21.615,0,0,1-1.851,3.673,31.688,31.688,0,0,1,2.928,2.751l-1.26,1.337a19.4,19.4,0,0,0-2.665-2.738,15.066,15.066,0,0,1-2.049,2.167,16.614,16.614,0,0,1-3.125,2.14A4.042,4.042,0,0,0,647.261,4176.51Zm24.971-.479a12.149,12.149,0,0,0,3.794-.844,8,8,0,0,0,3.793-2.855,9.572,9.572,0,0,0,1.524-2.867,6.776,6.776,0,0,0,1.366,1.154,11.325,11.325,0,0,1-1.97,3.284,11.982,11.982,0,0,1-7.128,3.685,8.351,8.351,0,0,0-.918.208Zm23.25-.208a12.645,12.645,0,0,0,3.885-.959,8.747,8.747,0,0,0,3.9-3.182,10.757,10.757,0,0,0,1.338-2.6,5.61,5.61,0,0,0,1.392,1.272,11.415,11.415,0,0,1-4.161,5.088,14.28,14.28,0,0,1-5,1.947,4.826,4.826,0,0,0-.867.221Zm-107.051,1.041a4.479,4.479,0,0,1-1.792-1.771,4.738,4.738,0,0,1,.009-4.778,4.432,4.432,0,0,1,1.812-1.769,4.883,4.883,0,0,1,4.759,0,4.424,4.424,0,0,1,1.808,1.769,4.76,4.76,0,0,1,.009,4.778,4.457,4.457,0,0,1-1.789,1.771,4.909,4.909,0,0,1-4.817,0Zm.423-7.626a3.724,3.724,0,0,0-1.511,1.477,3.942,3.942,0,0,0-.009,3.982,3.777,3.777,0,0,0,1.5,1.477,4.068,4.068,0,0,0,4.015,0,3.757,3.757,0,0,0,1.495-1.477,3.957,3.957,0,0,0-.009-3.982,3.7,3.7,0,0,0-1.511-1.477,4.052,4.052,0,0,0-3.967,0Zm55.118,7.17h-7.588a12.941,12.941,0,0,0-1.654.066v-1.74a9.271,9.271,0,0,0,1.68.091h7.535a9.279,9.279,0,0,0,1.68-.091v1.74A12.954,12.954,0,0,0,643.973,4176.407Zm-54.962-1.677a2.745,2.745,0,0,1-.706-2,3.123,3.123,0,0,1,.321-1.456,2.145,2.145,0,0,1,.914-.932,2.855,2.855,0,0,1,1.357-.315,2.369,2.369,0,0,1,1.417.4,2,2,0,0,1,.77,1.094l-.763.183a1.492,1.492,0,0,0-1.45-.97,1.578,1.578,0,0,0-1.215.521,2.585,2.585,0,0,0-.026,2.958,1.511,1.511,0,0,0,1.171.5,1.64,1.64,0,0,0,1.013-.329,1.558,1.558,0,0,0,.576-.895l.789.229a2.178,2.178,0,0,1-.818,1.265,2.681,2.681,0,0,1-3.351-.251Zm82.932-3.19.88-1.323a18.49,18.49,0,0,1,3.492,1.765l-.813,1.466A15.408,15.408,0,0,0,671.943,4171.54Zm-3.959,1.7h-6.971a14.783,14.783,0,0,0-2.14.064V4171.5a12.869,12.869,0,0,0,2.127.092h7a12.871,12.871,0,0,0,2.128-.092v1.805A14.784,14.784,0,0,0,667.984,4173.241Zm-39.47-1.39a6.1,6.1,0,0,0,1.917-1.192,5.413,5.413,0,0,0,1.247-1.65h-6.891a12.78,12.78,0,0,0-1.787.078v-1.622a10.584,10.584,0,0,0,1.812.1h6.854a3.649,3.649,0,0,0,1.273-.117l.88.987a3.564,3.564,0,0,0-.525.91,8.4,8.4,0,0,1-3.6,3.685A4.434,4.434,0,0,0,628.514,4171.851Zm66.993-2.8,1.09-1.285a18.591,18.591,0,0,1,3.387,2.5l-1.129,1.414A13.751,13.751,0,0,0,695.508,4169.048Zm-22.527-.663.853-1.31a21.1,21.1,0,0,1,3.492,1.674l-.841,1.429A15.469,15.469,0,0,0,672.98,4168.385Zm-30.2,1.676h-5.186a11.342,11.342,0,0,0-1.536.064v-1.713a8.3,8.3,0,0,0,1.549.09h5.16a8.31,8.31,0,0,0,1.55-.09v1.713A11.362,11.362,0,0,0,642.779,4170.062Z" transform="translate(-585.997 -4166.465)" fill="#121212"/>
</svg>
