<svg xmlns="http://www.w3.org/2000/svg" width="1068.545" height="597.313" viewBox="0 0 1068.545 597.313">
  <g id="グループ_5289" data-name="グループ 5289" transform="translate(6100.689 -375.896)">
    <g id="_1" data-name="1" transform="matrix(0.934, 0.358, -0.358, 0.934, -5988.51, 303.137)" opacity="0.05">
      <path id="パス_9780" data-name="パス 9780" d="M841.128,132.124l-4.86,4.133c12.436-.241,24.919-.181,36.516-5.752l.074-.671c-1.689-5.2-1.023-5.685,7.241-5.279l-.592-.05c1.9-1.01,3.685-2.48,5.707-2.96q40.251-9.534,80.574-18.764c3.829-.873,7.957-.485,11.753-1.446,3.735-.946,7.223-2.867,10.82-4.36l.16-1.072c-.9-.58-1.937-1.8-2.688-1.646q-42.508,8.764-84.965,17.777c-7,1.481-13.938,3.234-20.934,4.723-18.413,3.917-36.846,7.738-55.259,11.653-2.76.587-5.457,1.479-8.916,2.43-6.928-9.889-17.27-5.39-26.767-5.373l.458.066c-4.617.136-9.325.677-12.7-3.713-.154-.2-2.22,1.068-3.4,1.652l.035-.3c1.331,4.474,3.935,7.092,8.977,7.343,1.579.078,3.06,2.114,4.292,5.412-5.073.547-10.185.858-15.206,1.709-4.894.83-9.648,2.874-14.544,3.214-10.038.7-20.137.465-30.2.906-6.212.271-12.4,1.078-18.6,1.645l.06-.437,3.4,4.413c-5.239,8.86-15.845,5.651-22.726,10.407.553,3.749.553,3.749-3.825,3.671l4.266-3.609c-11.9,1.957-23.8,3.891-35.684,5.919-1,.172-2.431.757-2.767,1.536-4.377,10.151-14.031,7.595-22.912,10.159l4.548-5.09c-.483-.266-1-.78-1.279-.671-8.844,3.456-17.485,7.56-26.536,10.322-10.112,3.086-20.592,4.963-32.046,7.631l3.137-4.545c-.624-.056-1.388-.376-1.782-.122-9.816,6.314-21.366,7.054-32.231,9.818-16.25,4.133-32.661,7.655-49.066,11.147-24.9,5.3-49.884,10.243-74.782,15.571-10.909,2.334-21.653,5.437-32.547,7.851q-26.719,5.922-53.55,11.328c-2.98.605-6.169.182-10.869.261l5.288-4.075-.045.434c-2.62-.294-5.465-1.4-7.825-.755-18.616,5.128-37.058,10.9-55.714,15.873-22.124,5.9-44.38,11.317-66.633,16.722-9.662,2.346-19.379,5.168-29.212,5.921-12.321.944-23.205,4.411-33.813,13.285l2.839-6.438c-6.874,2.9-14.885-.933-20.052,6q.29,2.447.58,4.9l-10.763.012.587.073c-4.858,2.241-9.523,5.218-14.619,6.557-8.55,2.247-17.486,3.013-26.049,5.218-7.962,2.051-15.682,5.074-23.448,7.841-10.636,3.789-21.256,7.634-31.8,11.682C6.7,323.574,3.409,325.633,0,327.373q.422.98.844,1.961c15.629-5.169,31.131-10.775,46.924-15.381,15.107-4.405,30.54-7.684,45.784-11.636,5.907-1.532,11.633-3.76,17.536-5.311,19.191-5.041,38.32-10.315,57.464-15.517,24.539-6.669,49.469-11.915,74.269-17.61,17.173-3.943,34.351-7.9,51.631-11.331,24.321-4.826,48.756-9.078,73.1-13.782,6.325-1.222,12.449-3.464,18.758-4.8,13.053-2.769,26.167-5.249,39.257-7.839.356-.07.77.051,1.089-.081,20.023-8.274,41.953-6.765,62.55-12.228,12.509-3.318,25.275-5.655,37.906-8.52,18.511-4.2,37.023-8.392,55.494-12.76,7.518-1.778,14.93-4.009,23.171-4.1l-8.485,8.385c3.724-2.575,6.414-4.176,8.805-6.142,6.016-4.945,12.7-7.505,20.5-8.966,12.652-2.368,24.9-6.8,37.464-9.764,11.906-2.811,24.068-4.532,35.982-7.312,20.647-4.817,41.2-10.032,61.77-15.18,11.447-2.865,23.83-1.4,34.586-7.543a3.454,3.454,0,0,1,3.1.141c8.76,6.872,20.74,8.981,27.6,18.63.6.843,1.058,1.787,1.579,2.677-12.885,8.847-28.228,2.238-42.744,6.5,1.259.858,4.662,7.3,4.722,8.174,14.483-6.85,29.717-5.5,46.681-4.232,4.023,5.221,9.118,11.83,14.208,18.441q29.474,38.28,58.921,76.581c3.029,3.95,5.859,7.768,11.424,3.658-2.331-4.086-3.665-9.2-6.974-11.646-6.959-5.143-10.04-12.727-14.8-19.259-3.056-4.2-4.942-9.861-11.792-9.961-1.312-.019-2.745-2.258-3.855-3.679-9.915-12.7-19.817-25.408-29.582-38.222-1.121-1.47-1.378-3.6-2.881-7.773l10.779,6.533c8.016-5.39,13.349-5.251,22.7,2.923,9.12,7.975,20.254,10.985,31.042,15.056,2.855,1.077,6.944.806,8.626,2.749,9.293,10.726,24.15,10.21,34.829,17.93a107.932,107.932,0,0,0,9.6,5.986c5.675,3.254,10.212,8.361,18.52,3.376,3.569-2.142,11.051,1.324,16.38,3.266a59.685,59.685,0,0,1,18.654,11.021l-8.555.571c-.791,1.972-1.335,5.23-3.138,7.476-6.425,8.007-13.28,15.67-19.972,23.463l1.675,1.537,24.836-25.553c4.644-1.468,6.181,6.417,10.4,1.6l-.06.449-4.041-6.416c4.872-5.837,8.533-6.31,16.5-1.059,4.74,3.123,8.95,4.4,13.536.2l-.06.45c-4.706-1.968-9.5-3.757-14.09-5.966-3.124-1.505-7.318-2.528-6.784-6.226-3.095-.485-6.575-1.461-10.067-1.5-12.69-.142-22.244-8.461-33.464-12.37-8.335-2.905-16.9-5.14-25.366-7.682-1.321-.4-2.98-.456-3.888-1.307-8.725-8.175-20.239-10.43-30.726-14.941-10.681-4.6-20.929-10.189-31.45-15.17-5.572-2.639-12.575-3.607-16.724-7.615-8.236-7.954-18.917-11.419-28.04-17.6-2.388-1.618-6.622-.513-8.285-.584-6.9-3.816-13.773-5.934-18.021-10.5-3.385-3.637-3.791-10.105-10.654-13.184,3.669-.91,6.339-2.5,8.342-1.893,5.583,1.69,8.735-1.619,12.413-4.486.757-.59,2.4-.043,3.634-.021,2.406-.805,4.531-5.15,8.7,1.119l-8.661-1.455M736.878,147.6q.3,1.966.59,3.933l-29.307,6.549c1.61-3.182,4.079-4.254,6.208-5.8,2.554-1.851,4.817-4.1,6.427-5.5,3.526,1.242,5.879,2.7,8.255,2.739,2.6.044,5.217-1.225,7.827-1.922" transform="translate(0 -16.308)"/>
      <path id="パス_9781" data-name="パス 9781" d="M790.982,143.724c-9.469,1.233-18.905,3-28.413,3.586-19.139,1.173-38.336,1.4-57.473,2.6-13.123.82-26.186,2.611-39.275,3.974a14.011,14.011,0,0,1-3.154.375c-16.774-2.262-33.21,3.362-49.736,2.6-22.632-1.048-45.022,2.058-67.59,2-18.245-.05-36.478,3.333-54.759,4.547-11.309.752-22.7.3-34.052.361-1.36.007-2.727-.315-4.083-.265-7.749.291-15.509.474-23.237,1.061a21.01,21.01,0,0,0-10.624,3.734c30.151,3.885,60.048,1.193,91.848-1.855l-44.009,36.409,1.1,1.356c5.408-4.167,10.841-8.3,16.218-12.509,8.643-6.76,17.579-13.2,25.77-20.47,6.946-6.169,14.893-5.707,23-5.323,1.115.052,2.148,1.819,3.219,2.792l-.476-.087c2.6-.971,5.164-2.63,7.816-2.791,10.158-.615,20.364-.485,30.518-1.145,8.541-.555,17.015-2.171,25.556-2.693,14.46-.883,28.954-1.192,43.427-1.9,11.365-.555,22.714-1.414,34.076-2.024,26.979-1.445,53.958-2.9,80.947-4.156,5.25-.244,10.543.618,15.816.6,3.744-.013,7.486-.648,11.971-1.076a9.2,9.2,0,0,0,12.991.638c1.937-1.856,4.218-4.437,6.521-4.637,10.279-.891,20.619-1.111,30.942-1.436,6.271-.2,12.548-.141,19.385-.205-.675,2.583-1.277,4.889-2.161,8.269l11.639-6.083c-.777,2.933-1.221,4.615-1.674,6.326l5.7-1.544,1.355,1.858L857.1,168.584l.848,1.135c4.977-3.835,9.766-7.954,15-11.4,3.247-2.139,7.086-4.347,10.8-4.628,11.1-.835,22.279-.577,33.41-1.1,3.092-.146,6.125-1.536,9.186-2.356l-.059.438c-.414-.6-.757-1.646-1.25-1.722-10.49-1.609-21-3.109-31.9-4.689,1.134-2.656,4.895-1.2,7.323-2.086,3.791-1.388,2.774-3.5,1.641-5.923l.423.048c-18.408,7.845-38.034,3.089-57.011,5.339-13.565,1.608-27.519-2.449-41.142,1.7-1.121.341-2.707-.848-4.077-1.326l-9.312,1.716" transform="translate(-218.176 -23.577)"/>
      <path id="パス_9782" data-name="パス 9782" d="M437.909,15.921c10.8,6.5,18.4,20.275,34.186,21.926.026-3.772.041-6.173.059-8.74l-7.627,2.566C456.79,21.633,449.1,11.651,440.121,0c-.908,6.532-1.523,10.964-2.212,15.921" transform="translate(220.038)"/>
      <path id="パス_9784" data-name="パス 9784" d="M365.913,126.165c-3.65-7.251-12.037-7.711-17.627-12.218-1.815-1.464-4.284-2.118-8.568-4.141,7.323,9.633,14.76,15.3,24.695,17.5.386.085,1.018-.937,1.536-1.443Z" transform="translate(407.443 -19.001)"/>
      <path id="パス_9786" data-name="パス 9786" d="M414.677,95.427c-1.461-1.987-2.643-5.331-4.437-5.7-4.936-1.016-8.141-3.677-11.091-7.4-.514-.649-3.014.275-4.6.473l.062-.437c4.178,6.611,8.149,13.52,17.235,14.018.943.051,1.941-.9,2.913-1.388Z" transform="translate(313.286 -14.206)"/>
      <path id="パス_9787" data-name="パス 9787" d="M383.212,217.678l28.431-6.94c-9.392-2.762-22.5.472-28.431,6.94" transform="translate(325.781 -36.296)"/>
      <path id="パス_9788" data-name="パス 9788" d="M417.178,130.823c2.674-3.19,4.978-6.815,8.1-9.48,6.193-5.287,12.838-10.044,18.172-16.461-9.111,7.02-18.272,13.981-27.2,21.221-.505.409.861,3.126,1.355,4.768Z" transform="translate(266.748 -18.149)"/>
      <path id="パス_9789" data-name="パス 9789" d="M333.439,129.048c3.615-5.9-1.443-8.356-4.774-11.061-2.347-1.907-5.494-2.828-9.322-3.051L333.9,129.113Z" transform="translate(455.554 -19.889)"/>
      <path id="パス_9790" data-name="パス 9790" d="M384.074,32.172l-15.391-9.426c2.478,9.335,7.128,12.336,15.391,9.426" transform="translate(365.364 -3.936)"/>
      <path id="パス_9791" data-name="パス 9791" d="M432.021,81.422c-3.444-3.539-5.587-9.512-13.106-6.385a103.268,103.268,0,0,0,8.942,7.671c.677.473,2.779-1.095,4.227-1.723Z" transform="translate(275.816 -12.833)"/>
      <path id="パス_9792" data-name="パス 9792" d="M365.63,180.989l-13.945,3.923c8.168,3.167,8.574,3.085,13.945-3.923" transform="translate(397.865 -31.319)"/>
      <path id="パス_9793" data-name="パス 9793" d="M409.265,52.457c2.134,2.322,2.363,7.421,9.6,4.772l-7.986-6.637-1.61,1.865" transform="translate(297.018 -8.755)"/>
      <path id="パス_9794" data-name="パス 9794" d="M220.986,163.7l-14.253,4.473c9.813,3.118,9.813,3.118,14.253-4.473" transform="translate(662.378 -28.326)"/>
      <path id="パス_9795" data-name="パス 9795" d="M364.809,99.054l-6.161-8L357,92.079l5.593,8.472,2.215-1.5" transform="translate(394.289 -15.757)"/>
      <path id="パス_9796" data-name="パス 9796" d="M389.447,74.761c-3.327,3.116-12.264-1.182-11.06,8.522l11.06-8.522" transform="translate(352.057 -12.937)"/>
      <path id="パス_9797" data-name="パス 9797" d="M202,136.517l14.457-2.687q.019-2.426.036-4.852l-7.77,1.537.592.05-7.241,5.279-.074.671" transform="translate(670.783 -22.319)"/>
      <path id="パス_9799" data-name="パス 9799" d="M345.108,270.661l4.886-7.436c-4.5,1.031-6.818,3.2-4.452,7.517Z" transform="translate(419.359 -45.549)"/>
      <path id="パス_9800" data-name="パス 9800" d="M273.331,239.026a29.118,29.118,0,0,0-2.777,1.843c-1.34,1.145-2.594,2.392-3.884,3.6.226-.127.465-.234.676-.382,1.771-1.242,3.547-2.475,5.29-3.754.251-.184.332-.6.695-1.3" transform="translate(560.468 -41.362)"/>
      <path id="パス_9801" data-name="パス 9801" d="M388.771,97.685l4.729,4.306c.33-4.281.33-4.281-4.814-3.866Z" transform="translate(339.276 -16.904)"/>
      <path id="パス_9802" data-name="パス 9802" d="M378.48,105.16l-3.932-.4c-.02.952-.429,2.389.024,2.752.867.7,2.225.782,3.379,1.121l.529-3.476" transform="translate(366.265 -18.128)"/>
    </g>
  </g>
</svg>
