<svg xmlns="http://www.w3.org/2000/svg" width="683.687" height="799.075" viewBox="0 0 683.687 799.075">
  <g id="グループ_5292" data-name="グループ 5292" transform="translate(5749.898 -7460.246)">
    <g id="_4" data-name="4" transform="translate(-5899.955 7907.492) rotate(-41)" opacity="0.05">
      <path id="パス_9914" data-name="パス 9914" d="M770.135,121.69c.072,5.66-1.205,11.756.462,16.9,5.589,17.257,6.783,35.9,16.552,51.951,1.217,2,5.4,7.716-.851,10.965-.382.2.927,3.69,1.484,5.64,3.138,10.989,6.416,21.941,9.28,33,.393,1.519-1.254,3.566-1.957,5.368l.463-.091c-8.5-7.91-7.934-19.49-11.057-29.341-7.5-23.658-13.929-47.734-19.151-71.994-1.916-8.9-5.711-16.823-8.044-25.365-.57-2.085.089-4.5.183-6.77l12.636,9.737"/>
      <path id="パス_9915" data-name="パス 9915" d="M814.363,155.769c0,2.694-.764,5.682.138,8.03,3.374,8.777,7.216,17.379,11.051,25.971,1.408,3.153,3.853,5.928,4.821,9.174,1.63,5.462,11.18,5.354,8.649,14.709-.9,3.338,7.087,9.084,12.552,15.546l-8.454-3.686,2.844,17.148-3.753,1.167C836.053,230,828.836,216.5,824.264,202.164A36.643,36.643,0,0,0,816.575,188l.038.514-12.78-40.855,10.53,8.114"/>
      <path id="パス_9916" data-name="パス 9916" d="M749.514,111.285c-5.717-1.375-10.5-3.342-6.758-10.692l8.425,6.491q-1.026,2.094-2.05,4.187Z"/>
      <path id="パス_9917" data-name="パス 9917" d="M237.643,298.992c-3.623-5.124-6.159-10.488-3.752-16.945l-.37.067c4.562,5.529,10.311,8.415,17.551,7.352,6.784-1,12.334,1.6,17.676,6.561l-14.941-.618q-.407,1-.814,2.006c2.08,1.6,4.1,4.5,6.248,4.606,21.679,1.047,43.271,6.764,65.11,1.6,1.137-.27,2.518.521,3.792.788,13.12,2.745,25.259-.649,37.153-5.814,1.7-.736,4.177-1.785,5.423-1.1,13.734,7.537,28.765,3.139,43.1,4.877a185.748,185.748,0,0,0,27.765.949c10.941-.324,21.867-1.413,32.777-2.413,11.906-1.093,23.828-2.177,35.65-3.9,3.223-.47,6.111-3.231,9.849-5.332l-7.2-10.406c10.51-8.67,19.477,3.861,29.757,1.336-.013-2.54-.027-5.273-.044-8.54,17.146,1.5,31.025,9.806,43.95,21.093-8.556-1.965-17.039-4.392-25.689-5.765-8.8-1.4-17.766-1.755-27.6-2.654-1.013,9.238-2.1,18.487-3,27.754-.28,2.869-.8,6.046.1,8.626,1.568,4.5-.034,6.685-3.982,7.981-4.845,1.591-7.483-1.493-8.59-5.251-1.762-5.984-2.65-12.224-6.282-18.33q-1.9,9.631-3.791,19.265l-1.559-.145c-1.375-6.176-2.75-12.352-4.463-20.049-8.474,1.291-17.952,2.774-27.444,4.158a43.758,43.758,0,0,1-8.863.8c-15.363-.946-30.783-3.522-46.044-2.762-12.755.635-25.4,2.525-38.234,1.084-.792-.088-1.8,1.741-2.7,2.679q-1.748,2.178-3.494,4.358l-3.57,4.232c-2.542-3.024-4.724-8.053-7.485-8.394-5.6-.692-12.2-.222-17.121,2.275-7.466,3.792-13.272,5.135-20.268-.872-2.453-2.106-7.442-1.534-11.292-1.678-7.235-.27-14.485-.14-21.727-.256-1.29-.02-3.027-1.085-3.795-.557-13.826,9.492-28.1-1.959-42.517,1.678-.155.937-.43,2.608-.861,5.222-5.8-6.63-12.376-7.088-20.782-7.114-29.789-.094-59.571-2.4-89.357-3.837-3.052-.148-6.121-.259-9.17-.122-6.775.306-5.908,4.267-3.8,8.981L111.858,314.1c-4.31,5.594-8.856,11.487-13.4,17.386-2.3,2.993-4.6,5.961-8.011,1.138l.092.372c-3.335-4.714-.65-8.222,2.246-11.794,3.029-3.736,5.893-7.605,10.477-13.553L0,306.765c4.168-3.987,5.96-7.187,7.749-7.185,19.63.019,39.258.634,58.889.884,12.65.161,25.3-.014,38.962-.041-.569-1.9-1.21-4.051-1.829-6.125l6.695,2.848c10.841-12.681,23.715-23.855,17.646-43.377,7.269-3.153,13.928-6.03,13.114-15.782-.241-2.878,4.426-6.163,6.844-9.262l-.6.078c4.017,10.385.011,18.788-7.39,26.754l12.474,1.431c-1.253,1.626-1.8,2.466-2.474,3.19-6.154,6.618-13.9,11.534-16.01,21.8C132.745,288.4,127.459,294,122.9,301.754c11.014-.14,20.94-.458,30.862-.341,10.736.126,21.48,1.136,32.2.872,9.976-.246,20.542,5.044,29.444-3.076,2.173,2.3,3.849,5.612,5.653,5.684,5.431.217,10.925-.748,16.34-1.6.3-.047.124-3.183.169-4.881l11.572,6.591c-5.77-9.757-5.77-9.757-11.5-6.016"/>
      <path id="パス_9918" data-name="パス 9918" d="M769.408,291.856c-6.2,4.565-12.468,1.7-18.7.132-5.871-1.474-11.712-3.071-17.886-4.7-2.905,4.229-5.358,7.8-8.167,11.886l6.567,5.06c-5.365,4-10.657,7.938-15.166,11.3-5.454-5.724-11.377-11.937-19.252-20.2l20.094,3.686c4.939-3.163,6.984-8.041,2.925-14.192l-98.05-20.1c.947,4.349,1.616,7.426,2.736,12.569L606.5,271.988l3.553-9.871c-3.562.309-8.367.1-8.512.832-1.541,7.732-6.851,5.2-11,4.088-12.539-3.375-24.938-7.273-37.427-10.841-7.275-2.078-14.546-4.879-21.963-5.444-3.638-.276-7.605,3.8-10.145,5.2l7.4,11.9-8.686,3.711c1.31-1.11,3.136-1.99,3.769-3.4.521-1.165-.37-2.964-.636-4.482-1.511,1.041-3.714,1.79-4.314,3.214-.471,1.117,1.042,3.069,1.673,4.651l-8.848-2.252c1.252-4.559,2.472-8.172,3.212-11.881,1.307-6.552-2.218-11.308-7.627-13.417-9.526-3.716-19.525-6.212-29.3-9.3-23.91-7.56-47.921-14.419-72.971-17.538-9.281-1.155-18.14-5.609-27.236-8.412-3.6-1.111-7.492-2.082-6.6,4.757-9.446.228-18.061.521-24.913-8.624-2.12-2.829-9.7-1.332-14.692-2.287-20.87-4-42.369-5.168-62.239-13.706l.046.5c6.58-.309,13.336-1.719,19.707-.708,15.361,2.437,30.425,7.49,45.827,8.7,15.484,1.219,30.361,4.977,45.494,7.505,18.326,3.06,36.378,7.806,54.5,12.02,27.492,6.392,54.944,12.955,83.848,19.784,1.618-15.807,4.4-31.489,4.445-47.18.034-12.01.573-23.459,3.231-35.289,1.507-6.705-2.907-14.65-4.2-22.115a27.267,27.267,0,0,1,.815-12.067c7.655,6.8,12.6,17.01,11.2,24.473-2.785,14.84.563,29.365-1.5,43.917-1.493,10.533-1.826,21.228-2.787,31.841-.379,4.188-1.577,8.372-1.388,12.512.1,2.138,2.766,6.121,3.68,5.958,9.611-1.717,16.1,6.5,25.609,6.978,14.482.735,28.741,5.709,43.116,8.783q40.828,8.73,81.68,17.344c26.332,5.57,52.685,11.045,78.988,16.75,2.851.618,5.432,2.486,8.139,3.774Z"/>
      <path id="パス_9920" data-name="パス 9920" d="M399.723,563.884c4.226,14.531,16.924,22.074,27.17,31.083,15.88,13.962,33.331,26.138,50.115,39.072q-.8,1.068-1.6,2.137l-26.621-20.513-1.269,1.628,61.849,57.9-2.539,2.78q-13.433-12.03-26.871-24.053c-2.954-2.636-6.036-5.13-8.943-7.816-12.911-11.926-25.571-24.134-38.742-35.763-7.519-6.639-15.846-12.363-24.864-19.312-.724,4.921-1.277,8.687-2.036,13.857-6.4-4.435-8-9.668-8.085-15.308-.12-8.063-3.818-13.225-10.06-18.406-23.323-19.363-45.845-39.689-68.992-59.268-6.283-5.314-13.9-9.014-20.533-13.962-3.776-2.82-6.725-6.73-10.154-10.038-8.178-7.886-16.419-15.707-23.759-24.655l16.6,12.787c2.994-9.062,2.73-9.534-12.7-25.92l6.644,3.778c8.16-11.785-3.893-17.345-8.552-25.6,6.514-.849,6.363-4.956,5.225-9.158-3.578-13.211-7.78-26.274-10.789-39.608-.962-4.263-4.57-9.685.963-13.883l-.375.074c7.467,24,15.562,47.815,19.648,72.737.393,2.395,2.376,4.577,3.788,6.75,3.657,5.624,4.341,11.69,5.452,18.31,2.122,12.648.749,28.579,17.915,34.182,3.524,1.15,6.377,4.529,9.381,7.07,10.579,8.946,20.884,18.234,31.754,26.809,3.125,2.466,5.868,9.5,12.286,3.869.286-.251,4.882,4.214,7.313,6.641,6.732,6.719,13.256,13.652,20.114,20.238,3.359,3.226,7.4,4.869,11.814,1.479Z"/>
      <path id="パス_9921" data-name="パス 9921" d="M392.583,542.067c.378-19.887-6.185-38.849-6.938-58.689-.756-19.917-3.422-39.761-5.344-60.651,2.26,1.185,4.233,1.679,4.286,2.328,1.018,12.5,7.058,24.184,5.533,37.181-.564,4.8,1.239,9.874,1.9,14.831,2.079,15.523,4.574,31.01,5.971,46.594.558,6.219-1.332,12.657-2.108,18.995l-3.3-.589"/>
      <path id="パス_9922" data-name="パス 9922" d="M150.492,576.346l3.991-3.738,107.326,22.528q-.022.693-.047,1.386c-3.82.113-7.745.852-11.44.229-15.335-2.584-30.558-5.844-45.91-8.309-7.2-1.155-14.6-.945-21.892-1.575-11.2-.968-22.5-1.748-31.836-9.225Z"/>
      <path id="パス_9923" data-name="パス 9923" d="M511.933,594.762c1.989,1.967,5.4,3.721,5.73,5.936,1.8,11.965,15.467,18.9,13.847,31.756a86.23,86.23,0,0,1-8.381,26.8c-3.338-10.461-10.026-21.221-9.13-31.3,1.022-11.5-1.02-22.189-1.578-33.234Z"/>
      <path id="パス_9924" data-name="パス 9924" d="M269,188.888c-18.535,2.951-36.5-6.7-55.028-2.513-2.419.546-4.43,2.9-6.63,4.414l.492-.055-9.671-1.886c-.048-4.957-.092-9.635-.15-15.719,2.55.453,6.162,1.079,9.769,1.74,16.171,2.962,32.387,5.711,48.481,9.048,4.448.922,8.532,3.6,12.783,5.474Z"/>
      <path id="パス_9925" data-name="パス 9925" d="M524.719,363.424c4.629,14.694,4.213,60.079-2.264,68.734-.277-24.238-.529-46.282-.781-68.326l3.045-.408"/>
      <path id="パス_9926" data-name="パス 9926" d="M319.269,584.707c5.829,19.389,11.748,38.751,17.358,58.2.624,2.164-.515,4.835-1.167,9.784-12.989-22.487-15.463-45.043-19.689-67.1l3.5-.884"/>
      <path id="パス_9927" data-name="パス 9927" d="M502.484,89.908c-1.2,1.274-2.491,3.732-3.57,3.64-11.747-1-23.528-2-35.138-3.965-3.227-.545-5.919-4.265-8.25-8.063,16.1,1.78,33.136-3.443,47.01,8.913Z"/>
      <path id="パス_9928" data-name="パス 9928" d="M338.658,42.053c10.549-14.9,25.52-14.874,38.29-19.182-12.013,5.794-19.744,20-38.29,19.182"/>
      <path id="パス_9929" data-name="パス 9929" d="M350.517,228.577c-.417,3.045-.834,6.09-1.541,11.256l6.006,5.811-1.622,1.986-56.045-43.185,1.706-2.244,40.748,31.4,8.237-6.715,2.511,1.692"/>
      <path id="パス_9930" data-name="パス 9930" d="M671.041,382.326l6.935-7.512c.183,3.755.3,6.111.5,10.26l10.331-7.882,6.467,5.966-8.625,11.193-15.606-12.025"/>
      <path id="パス_9931" data-name="パス 9931" d="M524.722,487.242c5.8,13.315,5.427,26.89,2.746,43.64-3.016-3.988-5.566-6.031-5.208-7.088,4.075-12.013-6.091-25.148,2.954-36.647Z"/>
      <path id="パス_9932" data-name="パス 9932" d="M795.106,245.514l19.635,13.021-.423,1.455-9.2-1.655c-2.114,4.2-3.9,7.755-5.689,11.308l.537-.106c-2.521-5.731-5.457-11.333-7.313-17.272-.563-1.8,1.858-4.535,2.912-6.841l-.463.09"/>
      <path id="パス_9933" data-name="パス 9933" d="M618.906,341.736c5.676,8.175,5.583,15.922.416,25.814-2.071-2.788-4.86-4.833-4.762-6.726.324-6.219-3.528-13.6,4.346-19.088"/>
      <path id="パス_9934" data-name="パス 9934" d="M508.7,561.165c8.482,8.617,5.547,19.853,6.7,30.109.114,1.02-2.258,2.319-3.475,3.488l.488-.049c-1.9-10.211-3.868-20.411-5.569-30.655-.138-.832,1.558-1.968,2.4-2.963Z"/>
      <path id="パス_9935" data-name="パス 9935" d="M308.611,549.615l-12.036-17.956,7.661-4.379c2.389,8.25,4.369,15.089,6.349,21.928l-1.974.407"/>
      <path id="パス_9936" data-name="パス 9936" d="M515.844,89.372l10.248-5.311c11.442,4.369-.391,11.694,2.391,19.815-5.259-5.582-8.923-9.47-12.586-13.356Z"/>
      <path id="パス_9937" data-name="パス 9937" d="M497.921,465.662c1.288,1.912,3.521,3.744,3.692,5.751a109.827,109.827,0,0,1-.275,20.866c-5.532-7.6-6.177-16.144-3.041-26.53Z"/>
      <path id="パス_9938" data-name="パス 9938" d="M333.339,11.668C335.528,1.735,343.849,4.087,350.088,0c-5.2,13.959-5.376,14.076-16.749,11.668"/>
      <path id="パス_9939" data-name="パス 9939" d="M712.047,333.97c-7.043,9.429-13.332,9.651-24.51,1.006l24.51-1.006"/>
      <path id="パス_9940" data-name="パス 9940" d="M500.88,397.3c-.687-7.464-1.374-14.929-2.128-23.113,8.846,8.819,9,12,1.751,23.184l.377-.071"/>
      <path id="パス_9941" data-name="パス 9941" d="M635.864,501.049c5.028,10.066-4.943,11.284-7.585,16.826l-3.237-2.073q5.715-7.414,11.429-14.831Z"/>
      <path id="パス_9942" data-name="パス 9942" d="M769.448,292.375c13.353.8,19.292,2.473,25.268,9.388l-25.308-9.907.04.519"/>
      <path id="パス_9943" data-name="パス 9943" d="M602.628,193.93l-9.736,12.635c.343-13.386.343-13.386,9.736-12.635"/>
      <path id="パス_9944" data-name="パス 9944" d="M744.523,238.775c-10.009-7-1.495-9.681-.067-14.288,10.257,5.761.246,9.07.067,14.288"/>
      <path id="パス_9945" data-name="パス 9945" d="M647.265,470.16l9.036-11.727,2.45,1.651-8.47,12.276-3.016-2.2"/>
      <path id="パス_9946" data-name="パス 9946" d="M701.5,398.86l-15.062-4.953c6.8-4.772,12-7.452,15.062,4.953"/>
      <path id="パス_9947" data-name="パス 9947" d="M500.5,397.367c4.777,6.618,4.25,11.155-2.236,19.248l.58-.091c-2.392-6.735-4.185-13.406,2.033-19.228Z"/>
      <path id="パス_9948" data-name="パス 9948" d="M261.172,365.648c-9.82-6.658-10.178-7.8-6.9-21.907l-.52.118,7.041,21.863Z"/>
      <path id="パス_9949" data-name="パス 9949" d="M636.47,500.971c-1.3-.948-3.8-2.633-3.733-2.737,2.686-4.348,5.6-8.555,8.485-12.779l3.291,2.242-8.65,13.352Z"/>
      <path id="パス_9950" data-name="パス 9950" d="M498.267,416.615c6.374,3.337,8.451,7.523,2.529,14.449-3.679-5.158-5.117-9.5-1.949-14.54Z"/>
      <path id="パス_9951" data-name="パス 9951" d="M418.3,365.551c-9.45-1.331-8.446-8.082-8.052-14.546l8.052,14.546"/>
      <path id="パス_9952" data-name="パス 9952" d="M263.955,117.44c4.412-7.268,8.131-3.412,12.2-1.318-4.546,5.3-4.546,5.3-12.2,1.318"/>
      <path id="パス_9953" data-name="パス 9953" d="M476.6,239.608c-1.6,1.381-3.2,3.9-4.81,3.9-3.246.008-6.495-1.351-9.464-2.078,6.1-4.44,6.1-4.44,14.283-1.452Z"/>
      <path id="パス_9954" data-name="パス 9954" d="M649.615,283.81l-16.623-5.682.666-2.424,17.2,4.195-1.245,3.911"/>
      <path id="パス_9955" data-name="パス 9955" d="M254.276,343.741c-7.443-3.009-6.442-10.048-8.637-15.561l3.067-1.238q2.526,8.459,5.051,16.917Z"/>
      <path id="パス_9956" data-name="パス 9956" d="M509.255,561.095c-7.963-4.139-1.12-11.5-3.592-16.808,5.034,4.871,5.239,10.653,3.042,16.878Z"/>
      <path id="パス_9957" data-name="パス 9957" d="M556.523,184.885c6.21,1.592,13.555-.6,20.026,6.069-8.931.875-15.775.876-20.121-6.673Z"/>
      <path id="パス_9958" data-name="パス 9958" d="M522.068,30.878c-1.8-3.935-7.5-7.5,1.018-13.424.853,4.862,1.552,8.848,2.251,12.834l-3.269.59"/>
      <path id="パス_9959" data-name="パス 9959" d="M621.448,531.285,608.568,548l-.982-.747,12.88-16.715.982.747"/>
      <path id="パス_9960" data-name="パス 9960" d="M286.494,339.039l11.831-5.679q.537,1.4,1.075,2.8c-3.735,2.64-5.618,11.04-13.005,2.323l.1.561"/>
      <path id="パス_9961" data-name="パス 9961" d="M286.395,338.478l-6.683,10.653c-2.232-11.544-2.232-11.544,6.781-10.092Z"/>
      <path id="パス_9962" data-name="パス 9962" d="M242.288,117.577c2.805-7.643,4.572-11.584,13.305-5.753l-13.305,5.753"/>
      <path id="パス_9963" data-name="パス 9963" d="M244.66,157.821l13.356,10.291-.285.365L244.135,158l.525-.18"/>
      <path id="パス_9964" data-name="パス 9964" d="M375.2,235.315l-6.558-4.489.824-1.606,7.638,3.334-1.9,2.761"/>
      <path id="パス_9965" data-name="パス 9965" d="M439.368,322.238l5.513-7.155,1.747,1.255q-2.77,3.6-5.542,7.192l-1.718-1.292"/>
      <path id="パス_9966" data-name="パス 9966" d="M626.7,329.569l9.979-1.043-.249,3.663-9.792-3.168Z"/>
      <path id="パス_9967" data-name="パス 9967" d="M498.3,465.749l-2.187-6.894,2.941-1.452c1.859,2.587,3.717,5.174,6.781,9.437l-7.911-1.178.376.087"/>
      <path id="パス_9968" data-name="パス 9968" d="M290.07,44.943c1.253,4.152,1.953,6.472,2.847,9.429-2.024-.01-3.929.551-5.158-.123-5.372-2.945-1.605-5.145,2.311-9.306"/>
      <path id="パス_9969" data-name="パス 9969" d="M657.111,297.987c7.014-5.3,8.577-1.018,12.639,4.2l-12.639-4.2"/>
      <path id="パス_9970" data-name="パス 9970" d="M377.593,47.075,369.3,56.618c.8-8.835.8-8.835,8.357-9.065l-.065-.478"/>
      <path id="パス_9971" data-name="パス 9971" d="M556.428,184.281c-3.325,8.62-7.818.261-11.522,3.386l-.108-4.777,11.725,1.995-.1-.6"/>
      <path id="パス_9972" data-name="パス 9972" d="M377.659,47.553c3.254-2.392,3.318-10.884,10.614-5.547l.019.851c-2.93,3.019-4.462,9.578-10.7,4.218Z"/>
      <path id="パス_9973" data-name="パス 9973" d="M515.9,90.519c-4.726,5.431-9,.852-13.413-.611l.052.525,13.308-1.062Z"/>
      <path id="パス_9974" data-name="パス 9974" d="M599.078,157.9l-4.307-12.435,2.036-1.022,5.763,12.335-3.492,1.122"/>
      <path id="パス_9975" data-name="パス 9975" d="M247.2,448.915c8.393.178,9.393,5.53,11.83,9.116l-11.83-9.116"/>
      <path id="パス_9976" data-name="パス 9976" d="M400.263,563.807c-5.431-2.171-5.51-6.5-5.641-10.8l3.263-.986q.921,5.934,1.839,11.868Z"/>
      <path id="パス_9977" data-name="パス 9977" d="M799.432,269.642c5.377,1.535,10.443,3.254,6.21,10.48l.358-.058c-3.631-2.581-7.978-4.752-6.031-10.528Z"/>
      <path id="パス_9978" data-name="パス 9978" d="M756.284,163.432l4.579-6.674q1.37.926,2.739,1.852-2.289,3.333-4.578,6.666-1.371-.921-2.74-1.844"/>
      <path id="パス_9979" data-name="パス 9979" d="M669.2,286.351l9.726,3.146q-.41,1.182-.818,2.364l-9.565-3.563.657-1.947"/>
      <path id="パス_9980" data-name="パス 9980" d="M626.635,329.021c-4.862,3.845-4.862,3.845-10.087-2.2l10.149,2.748-.062-.548"/>
      <path id="パス_9981" data-name="パス 9981" d="M311.876,566.88l5.725,7.577-3.16,2.041q-2.226-4.172-4.453-8.344l1.888-1.274"/>
      <path id="パス_9982" data-name="パス 9982" d="M525.214,487.147c.121-3.007-4.625-7.664,5.151-8.62l-5.643,8.715Z"/>
      <path id="パス_9983" data-name="パス 9983" d="M374.678,316.9l3.495-4.359q3.541,2.73,7.084,5.459l-.588,1.7-9.991-2.8"/>
      <path id="パス_9984" data-name="パス 9984" d="M521.4,345.478c-.3-1.64-.967-2.956-.6-3.838.4-.96,1.764-1.517,2.707-2.25.52,1.316,1.478,2.665,1.384,3.936-.051.682-1.91,1.229-3.494,2.152"/>
      <path id="パス_9985" data-name="パス 9985" d="M476.613,239.98l10.248,3.075q-.631,1.476-1.264,2.951c-4.025.1-7.186-1.678-8.993-6.4Z"/>
      <path id="パス_9986" data-name="パス 9986" d="M264.823,53.157c.182,2.512.741,4.146.241,4.593-1.047.935-2.652,1.244-4.028,1.811-.188-1.112-.891-2.545-.444-3.26.68-1.089,2.156-1.68,4.231-3.144"/>
      <path id="パス_9987" data-name="パス 9987" d="M797.611,193.177l-3.48-6.568,1.468-1.016,4.979,5.727-2.967,1.857"/>
      <path id="パス_9988" data-name="パス 9988" d="M805.642,280.123l7.134,6.975c-8.081-1.7-8.081-1.7-6.776-7.034Z"/>
      <path id="パス_9989" data-name="パス 9989" d="M388.273,42.005q2.877-1.331,5.755-2.661.211,2.4.424,4.8-3.08-.64-6.16-1.284Z"/>
      <path id="パス_9990" data-name="パス 9990" d="M816.575,188l-5.167,2.342q-.078-2.16-.155-4.319l5.36,2.491Z"/>
      <path id="パス_9991" data-name="パス 9991" d="M657.874,71.554l-3-3.514a12.157,12.157,0,0,1,2.009-1.11,37.556,37.556,0,0,1,2.391,3.608l-1.4,1.016"/>
      <path id="パス_9992" data-name="パス 9992" d="M368.889,258.037l-5.725-4.412.714-1.025,6.12,4.269-1.109,1.168"/>
      <path id="パス_9993" data-name="パス 9993" d="M749.131,111.271l-1.269,10c-4.619-4.161-4.421-7.4,1.652-9.991Z"/>
    </g>
  </g>
</svg>
