<svg xmlns="http://www.w3.org/2000/svg" width="840.556" height="645.389" viewBox="0 0 840.556 645.389">
  <g id="グループ_5290" data-name="グループ 5290" transform="translate(5889.832 -1184.886)">
    <g id="_2" data-name="2" transform="matrix(0.848, -0.53, 0.53, 0.848, -5889.832, 1633.156)" opacity="0.05">
      <path id="パス_9778" data-name="パス 9778" d="M705.781,29.765c1.407-1.271,2.684-3.259,4.243-3.695,9.41-2.628,18.907-4.781,28.332-7.332,6.859-1.856,13.624-4.25,20.485-6.1,10.387-2.8,20.828-5.3,31.223-8.062,1.047-.278,1.935-1.468,2.9-2.235l.127-1.064C792.633.829,792.1-.086,791.73.007,779.925,3,768.151,6.169,756.339,9.115c-5.557,1.387-11.229,2.083-16.763,3.578-19.16,5.176-38.263,10.678-57.43,15.815-6.686,1.792-13.511,2.772-20.237,4.355a55.466,55.466,0,0,0-7.267,2.785c-5.682-6.456-12.14-8.049-19.382-4.71q1,2.918,2,5.838c-3.047-1.246-6.536-2.566-1.712-5.771L634.3,29.318l.367.065c-4.207,1.742-8.248,2.489-11.643-2.365-.163-.233-1.759,1.068-2.689,1.656l.029-.306c1.05,4.484,3.166,7.041,7.217,7.3,1.293.084,2.5,2.16,4.936,4.434-3.9,1.01-6.284,1.689-8.687,2.233-4.5,1.02-8.993,2.157-13.528,2.869a78.213,78.213,0,0,1-10.119.63c-9.587.25-19.177.334-28.759.73-1.193.049-2.346,1.582-3.518,2.429l.048-.43,3.087,3.979c-4.735,6.787-11.381,6.576-17.157,8.879,2.212,5.291-.618,4.622-4.028,4.654l4.382-4.592c-9.832,2.339-19.669,4.642-29.486,7.068-1.084.268-2.534.91-3,1.942-3.942,8.682-11.44,6.73-18.349,10.257l4-5.889c-3.793.748-7.454,2.166-11.065,2-4.081-.192-3.751,5.7-7.873,6.439-9.432,1.692-18.6,5.6-28.916,8.943l3.384-5.705c-.753.049-1.416-.145-1.862.155-11.051,7.455-23.214,9.836-35.415,12.231-5.616,1.1-11.141,2.952-16.686,4.572-19.627,5.728-39.226,11.608-58.873,17.227-13.793,3.944-27.516,9.155-41.507,10.91-16.957,2.126-32.653,11.257-50.221,11.513l3.935-6.221c-7.839,2.255-14.877,3.87-21.717,6.327-18.058,6.489-35.956,13.677-54.07,19.906-8.52,2.93-17.419,4.133-26.095,6.417-8.409,2.214-16.745,4.847-25.127,7.225-5.907,1.677-12.321.108-17.763,5.055-2.693,2.448-6.106,3.681-9.472,5.624.272.2.086-.009-.131-.088-8.9-3.228-8.9-3.227-15.57,2.692l2.226,3.575-10.4,1.321.469.074c-4.742,2.439-9.418,6.695-14.237,6.964-12.433.694-23.392,7.156-34.891,11.455-9.469,3.54-18.818,7.626-28.084,11.921-2.857,1.324-5.265,4.134-7.44,7.045,10.2-3.816,20.531-7.181,30.579-11.541,21.008-9.115,42.87-14.4,64.207-22.042,14.167-5.075,28.428-10.222,42.8-14.593,23.529-7.156,47.068-14.3,70.731-20.731,16.619-4.516,33.47-7.709,50.177-11.751,8.765-2.121,17.447-4.775,26.158-7.232,12.008-3.386,23.954-7.158,36.03-10.121,10.753-2.638,21.406-5.173,31.986-9.191,9.957-3.781,21.009-2.923,31.464-5,8.815-1.748,17.485-4.671,26.182-7.257,22.778-6.773,45.531-13.681,68.312-20.438,2.722-.808,5.56-1.016,9.6-1.72l-8.659,9.882-.253-.712c6.859-4.522,13.375-10.378,20.658-13.259,11.419-4.517,23.337-7.141,35.082-10.348,9.008-2.46,18.137-4.273,27.1-6.949,8.285-2.475,16.409-5.769,24.631-8.58,2.21-.756,4.521-1.049,6.78-1.59,13.287-3.178,27.083-4.6,39.678-10.179,8.269-3.662,13.96-.261,19.766,3.746,4.605,3.18,7.89,9.287,12.18,14.614C657.2,72.73,649.816,75,641.365,72.529c-3.175-.928-6.919,1.119-9.858,1.7l3.407,8.144c10.224-6.368,21.738-5.272,33.046-5.019,2.268.051,4.968,3.444,6.64,6.1,14.284,22.641,28.375,45.469,42.53,68.235,4.832,7.771,9.73,15.479,14.5,23.311,2.372,3.9,4.872,4.915,8.092,1.4-.9-1.08-2-1.913-2.524-3.124-1.191-2.738-1.482-7.1-3.235-8.257-6.476-4.265-7.407-13.3-11.838-19.213-2.853-3.808-4.17-9.622-9.593-9.69-.85-.011-1.8-1.772-2.51-2.907q-12.437-19.816-24.779-39.725c-.638-1.032-.829-2.488-1.756-5.414,2.532,1.034,3.9,1.646,5.288,2.147,1.667.6,3.887,2.241,4.952,1.476,7.871-5.647,12.359,1.9,17.672,6.365a4.109,4.109,0,0,0,1.555.97c8.326,1.845,14.942,8.521,22.623,12.246,7.851,3.808,15.218,9.16,23.1,12.841,10.123,4.728,18.225,14.829,29.4,16.6,1.182.187,2.5.834,3.527.415,3.4-1.388,6.116-1.258,9.448,1.416,2.814,2.258,6.987,1.74,10.364,3.159,3.531,1.485,6.83,3.815,10.109,5.705-2.77,9.29-5.526-1.252-8.5,2.628.272,1.633.637,3.837.942,5.668l-17.326,25.452,1.31,1.469,20.986-26.6c2.044,1.55,3.7,2.827,5.382,4.039.129.092.473-.276,1.329-.814-.886-2.607-1.8-5.287-3.542-10.416,5.138,1.368,8.667,2.537,12.258,3.2,3.823.708,7.7.94,11.561,1.38l-.048.447L829.71,146.19l1.472-2.579c-.438-.1-.913-.409-1.143-.233-3.021,2.331-5.452,3.328-9.434.966-8.418-4.991-17.426-8.5-26.279-12.312-16.454-7.077-32.732-14.553-47.74-25.779-2.98-2.23-6.8-2.674-10.011-4.515-6.222-3.563-12.266-7.6-18.435-11.308-2.524-1.518-5.325-2.384-7.752-4.088-8.345-5.855-16.758-11.612-24.779-18.1-3.806-3.078-8.24-2.7-12.329-5.649-5.567-4.014-10.949-6.762-13.347-14.828-.438-1.475-2.421-2.246-4.68-4.2l19.47-5.85c2.142-2.15,4.146-4.973,7-3.671q.22,1.306.44,2.613l-7.415.722-4.122,3.93c.375.6.7,1.4.867,1.352,10.05-2.927,20.905-1.16,30.294-7.926l4-4.978M590.814,52.583l.386,3.929-22.942,5.779q-.216-.993-.433-1.986l13.618-10.248,1.253,4.911,8.118-2.385m95.474,28.192-.875,2.844c-.5-.292-1.258-.438-1.427-.909a10.8,10.8,0,0,1-.253-2.7l2.555.77" transform="translate(0 0)"/>
      <path id="パス_9779" data-name="パス 9779" d="M.412,4.275,6.189,2.383Q5.871,1.191,5.553,0L0,2.833.412,4.275" transform="translate(688.872 62.295)"/>
    </g>
  </g>
</svg>
