<svg xmlns="http://www.w3.org/2000/svg" width="859.236" height="743.719" viewBox="0 0 859.236 743.719">
  <g id="グループ_5291" data-name="グループ 5291" transform="translate(6848.353 -2902.378)">
    <g id="_3" data-name="3" transform="translate(-6659.127 2781.162) rotate(21)" opacity="0.05">
      <path id="パス_9803" data-name="パス 9803" d="M587.878,312.915a51.171,51.171,0,0,0-.9-6.314c-5.525-20.636-11.058-41.27-16.785-61.85a32.68,32.68,0,0,0-4.328-9.386c-3.622-5.357-8.49-10.032-4.51-17.5.712-1.337-1.619-4.008-1.518-6.011.3-5.994-9.163-10.087-3.256-17.578.581-.737-4.474-7.05-7.831-9.533-7.651-5.659-16.266-10.043-23.759-15.882-8.589-6.69-16.158-14.682-24.679-21.469-2.37-1.888-5.012-8.679-9.859-2.331-3.289-2.738-6.786-5.263-9.823-8.256-6.519-6.422-12.749-13.135-19.2-19.627-3.148-3.168-6.7-4.087-10.508-.93l.512-.031c-8.7-15.051-21.1-26.591-34.778-36.984-15.1-11.473-30.068-23.131-45.093-34.708l1.656-2.182L401.1,63.819l1.163-1.493L338.245,2.105,339.868,0c27.337,20.883,52.391,44.293,76.844,68.444,7.665,7.57,17.05,13.4,26.864,20.96.732-5.282,1.25-9.015,1.768-12.749l3.279-.384c.91,4.686,2.01,9.345,2.686,14.064.951,6.639,3.034,12.056,9.1,16.246a388.915,388.915,0,0,1,31.426,24.152c11.693,9.983,22.427,21.09,34.122,31.069,8.6,7.34,18.205,13.5,27.111,20.5,3.345,2.63,5.872,6.272,8.967,9.251,7.865,7.571,15.84,15.027,22.818,23.745l-16.825-12.964c-2.294,14.024,7.917,19.2,14.819,27-1.4-.638-2.85-1.192-4.193-1.937-1.516-.84-2.937-1.852-4.177-2.647-6.364,1.466-4.127,8.226,7.831,24.769-4.9,2.094-6.262,5.436-4.489,10.616,4.681,13.679,9.48,27.35,13.211,41.3.884,3.3-2.245,7.676-3.528,11.558Z"/>
      <path id="パス_9804" data-name="パス 9804" d="M34.167,491.794c3.4,12.227,6.8,24.454,10.066,36.226-5.991-2.279-5.425-2.505-8.168-9.383-5.216-13.076-10.83-26.022-16.995-38.674-1.681-3.45-5.914-5.658-7.866-7.43-1.927-4.9-3.2-8.927-5.071-12.657-1.708-3.4-4.063-6.486-6.133-9.71l8.175,4.5L2.434,437.91,5.679,433.7c5.377,7.753,16.852,37.594,19.25,45.289,1.534,4.922,6.081,8.907,9.277,13.312Z"/>
      <path id="パス_9805" data-name="パス 9805" d="M336.74,83.874c-8.387-1.244-4.256-9.249-6.926-13.672-1.073-1.776-.723-3.5-3.481-5.1-8.156-4.734-10.938-13.862-6.156-21.595,3.951-6.388,3.076-11.1-1.4-16.139q4.056-5.262,8.111-10.526c.908.93,2.485,1.771,2.623,2.8,2.086,15.658,4.1,31.328,5.867,47.024.643,5.711.6,11.5.873,17.254Z"/>
      <path id="パス_9806" data-name="パス 9806" d="M240.909,128.426c.618.618,1.759,1.224,1.773,1.854.178,8.013-9.421,18.166-18,19.2q8.112-10.525,16.223-21.053"/>
      <path id="パス_9807" data-name="パス 9807" d="M45.12,400.167,36.5,393.7l3.245-4.21c1.78,3.524,10.926,3.6,5.021,10.721Z"/>
      <path id="パス_9809" data-name="パス 9809" d="M611.028,379.645c3.081,5.824,8.8,10.81,5.894,18.534l.36-.047c-4.66-8.211-12.2-8.708-20.608-8.662-5.92.032-13.011.884-17.6-6.479l15.98.808.552-3.926c-8.53-1.661-17-4.227-25.6-4.77-12.757-.806-25.609-.41-38.41-.094-11.406.282-22.9-2.516-34.225,1.569-13.293,4.8-26.444,2.126-40.177.548-18.73-2.152-37.981.018-56.995.676-13.525.468-27.039,1.369-40.54,2.332-7.1.506-14.37.811-21.168,2.657-3.835,1.041-7.1,4.341-5.32,10.221,2.324,7.673-.712,10.435-7.988,8.054-5.75-1.882-11.333-4.28-18.319-6.958-.2,3.995-.339,6.632-.5,9.687-3.848,4.692-35.268-8.624-43.839-19.063l51.774,8.94c2.916-15.037,13.406-27.575,1.579-43.019l14.3-4.484,5.079,24.908,2.16.01,3.783-19.249,1.5.131q2.562,10.4,5.134,20.839c18.7-3,36.482-5.339,55-2.549,13.316,2.006,27.252.031,40.9-.4,7.165-.224,14.328-.807,21.463-1.519,1.821-.182,3.531-1.472,5.292-2.253l3.495-4.359,5.271-5.973c1.972,4.094,3.492,7.249,4.906,10.182,11.256.826,21.408-7.406,32.221-2.679,13.41,5.861,27.733,4.617,40.971,2.881,11.215-1.47,21.883-1,32.809-.337,4.054.247,8.068,1.148,13.029,1.89.294-.9.927-2.845.925-2.84,5.994.72,11.809,1.741,17.662,2.065,23.845,1.318,47.7,2.385,71.552,3.625,9.759.507,19.5,1.382,29.265,1.713,2.174.074,5.682-.914,6.271-2.355.7-1.716-1.08-4.449-1.8-6.783,7.18,3.914,12.4.836,16.476-6.112a67.99,67.99,0,0,1,8.506-11.755c.82-.887,4.042.446,6.16.759l-.091-.372c3.317,4.7.66,8.206-2.233,11.781-3.23,3.989-6.29,8.116-11.159,14.435,16.436.075,30.2.191,43.971.175,5.957-.006,11.912-.335,17.87-.428,7.624-.118,15.249-.158,22.874-.207,7.22-.046,14.926-1.874,20.642,5.885-35.045,6.161-70.036.714-105.45,1.768.59,2.86.922,4.465,1.253,6.071L739.128,382c-.964.444-1.939.6-2.447,1.17-9.012,10.14-18.439,20.062-15.4,35.541.372,1.895-.624,4.518-1.835,6.189-6.128,8.449-12.536,16.695-18.846,25.013l.606-.078c.074-9.976,2.012-19.31,12.344-27.573l-16.312-.279c15.958-9.849,14.743-30.216,28.647-42-3.052-1.529-4.835-3.21-6.575-3.166-11.047.28-22.095,1.509-33.124,1.326-12.849-.213-25.68-1.549-38.518-2.4-4.156-.277-8.227-2.348-12.229,1.871-1.139,1.2-6.028-1.4-9.253-1.873-3.792-.561-7.67-.527-11.463-1.081-5.539-.809-1.981,4.012-3.622,5.569l-11.6-6.615c5.809,9.789,5.809,9.789,11.527,6.039"/>
      <path id="パス_9810" data-name="パス 9810" d="M79.266,386.8c13.391-3.326,25.411,3.049,38.841,5.938,2.616-3.892,5.235-7.79,8.042-11.968l-8.768-5.975L135,365.076l19.238,20.434-22.093-6.167c-5.124,3.47-7.114,8.128-3.117,14.865l100.361,20.7c-.708-5.635-1.111-8.839-1.492-11.87l14.151,3.321c-1.224,3.858-2.051,6.467-3.094,9.755l11.514,2.139c-.477-2.909-.791-4.826-1.338-8.167,16.818,4.889,32.987,9.837,49.309,14.216a88.336,88.336,0,0,0,20.968,3.285c2.979.056,6.026-3.537,10-6.083l-7.4-3.574c-1.277-5.922,1.6-9.189,6.967-10.869-1.311,1.111-3.137,1.989-3.774,3.4-.524,1.165.361,2.964.622,4.482,1.513-1.037,3.719-1.781,4.32-3.2.472-1.119-1.035-3.075-1.662-4.659l6.589,1.67c.978,9.507,1.8,17.5,2.4,23.326,12.7,4.423,22.667,8.278,32.864,11.35,16.134,4.861,32.385,9.35,48.666,13.7,9.446,2.523,18.751,4.842,28.914,4.926,7.811.064,15.52,5.29,23.4,7.834,4.109,1.327,9.022,2.614,6.429-5.368,9.84,1.706,18.5,1.944,25.386,9.605,2.838,3.159,10.386,4.795,14.591,3.43,7.712-2.5,13.594,1.013,20.272,2.424,7.566,1.6,15.374,2.068,22.921,3.735,6.366,1.406,12.509,3.824,18.75,5.794l-.046-.427c-2.22.9-4.594,2.84-6.635,2.537-11.8-1.754-23.5-4.158-35.275-6.1-9.846-1.625-19.752-2.874-29.619-4.376-7.886-1.2-15.823-2.2-23.613-3.864-22.83-4.889-45.616-9.989-68.386-15.153-28.252-6.407-56.47-12.96-86.114-19.774-.621,38.971-11.15,77.631-2.63,118.27-2.051-1.58-5.3-2.772-5.957-4.8-4.135-12.732-8.954-25.524-3.834-39.225a9.54,9.54,0,0,0,.108-3.665c-1.1-20.692-1.657-41.326,3.918-61.616,2.085-7.591-.959-12.863-8.479-12.588-9.494.347-16.8-5.988-26.135-6.383-8.841-.374-17.5-4.063-26.343-5.76-8.164-1.567-16.531-2.083-24.686-3.686-9.663-1.9-19.145-4.718-28.8-6.687-14.413-2.941-28.959-5.237-43.349-8.282-11.326-2.4-22.469-5.644-33.751-8.269-12.606-2.933-25.32-5.413-37.9-8.462-4.439-1.075-8.612-3.247-12.907-4.918Z"/>
      <path id="パス_9811" data-name="パス 9811" d="M673.765,599.19l-21.4,1.027,3,6.762c-9.91,9.566-9.7,24.4-17.422,39.3-2.489-5.165-5.45-8.481-4.71-10.244,4.079-9.719,9.062-19.059,13.824-28.71-7.86-1.964-7.86-1.964-15.715,5.359-4.77-2.271-8.313-11.511-15.495-2.526-.959,1.2-6.837-2.223-10.481-2.361-16.084-.61-32.188-.67-48.277-1.187-11.536-.371-23.058-1.606-34.588-1.637-15.979-.044-31.967,1.166-47.937.92-12.9-.2-25.776-1.759-38.662-2.715l-.573-3.344,6.512-3.71c-4.04-2.53-4.924-6.848-2.892-11.793,18.063,2.495,36.229,5.225,54.458,7.439,11.06,1.344,22.228,1.776,33.326,2.844,4.922.473,9.777,2.076,14.685,2.187,19.55.442,39.111.8,58.663.6,13.787-.14,27.583-1.962,41.338-1.6,7.817.2,13.686-3.169,20.091-6.112l-.52.013c18.471.882,36.965,1.466,55.372,3.312,4.576.458,9.044,1.986,13.562,3.023l-.069-.533c-1.988,5.151-5.9,4.943-10.547,4.431-12.095-1.334-24.235-2.374-36.384-3.03-3.143-.169-6.386,1.511-9.582,2.342l.421-.05"/>
      <path id="パス_9812" data-name="パス 9812" d="M55.2,434.842c6.276,17.679,15.24,34.933,18.129,53.148,3.413,21.521,10.255,41.867,15.323,62.788,1.089,4.491,2.823,8.826,4.674,14.5-6.348-.86-9.274-3.071-10.909-9.011-4.731-17.191-6.642-35.07-14.135-51.69-2.27-5.037-2.085-10.924-6.492-15.883-3.222-3.627.774-9.8.267-14.243-.9-7.9-4.462-15.525-7.18-23.17-2.027-5.7-4.47-11.25.782-16.53Z"/>
      <path id="パス_9813" data-name="パス 9813" d="M455.986,136.082c1.778,13.617,2.146,27.618,5.73,40.742,3.548,12.991,1.194,26.029,3.616,38.938,2.512,13.4,2.983,27.174,2.329,41.731-1.375-2.991-3.428-5.855-4.01-8.993-3.3-17.74-6-35.57-5.466-53.712.025-.859.38-1.933,0-2.546-9.763-15.739-1.568-33.889-6.686-50.286-.52-1.66,1.418-4.086,2.216-6.156l2.27.282"/>
      <path id="パス_9814" data-name="パス 9814" d="M698.182,102.3c-6.2,8.664-15.115,5.625-21.14,2.13-13.323-7.728-28.05-8.42-42.3-11.407-12.276-2.572-24.833-3.778-37.223-5.846-3.876-.647-7.612-2.133-11.413-3.235l.72-2.517c18.337,2.649,36.659,5.407,55.017,7.9,7.635,1.035,15.333,1.819,23.026,2.15A70.662,70.662,0,0,1,697.989,101Z"/>
      <path id="パス_9815" data-name="パス 9815" d="M640.7,487.91l8.566,1.6c1.308,5.975,2.451,11.2,3.852,17.6-2.8-.464-6.369-1-9.917-1.657-5.342-.993-10.881-1.461-15.961-3.229-15.605-5.431-33.811-1.38-47.636-13.135l.046.427c15.894,1.658,31.781,3.382,47.684,4.939,5.8.568,11.321.057,13.8-6.573Z"/>
      <path id="パス_9816" data-name="パス 9816" d="M661.511,589.682c-2.12-3.022-4.564-5.094-3.436-10.161,1.367-6.142-.4-12.978-.777-19.515a23.683,23.683,0,0,1,0-4.672c.614-4.271,1.4-8.518,2.113-12.726,3.808,1.126,8.94,4.216,8.252-5.493-.259-3.659,3.13-7.575,4.856-11.373l-.309.188c6.78,5.408.982,11.673.476,17.145-.9,9.753-3.931,19.332-6.354,28.912-1.51,5.971-3.541,11.81-5.338,17.708Z"/>
      <path id="パス_9817" data-name="パス 9817" d="M325.954,317.137c-8.713-20.855-.89-42.906-5.29-64.032-.269-1.3,2.294-3.191,5.484-7.331-.825,14.637,3.428,25.941.179,38.175-2.84,10.69,3.928,22.119-.373,33.188"/>
      <path id="パス_9818" data-name="パス 9818" d="M737.243,607.353c-1.891,6.3-6.62,3.735-10.784,3.657-15.341-.286-30.694-.1-46.029-.552-7.353-.219-9.373-4.592-6.665-11.268l-.421.05c2.787,7.874,9.756,4.723,14.932,5.2,16.293,1.51,32.649,2.33,48.98,3.417Z"/>
      <path id="パス_9819" data-name="パス 9819" d="M517.016,27.464c6.186,22.359,12.372,44.718,19.158,69.244C525.286,91.311,523.767,82,524.006,75.7c.405-10.648-6.147-18.472-7.351-28.123-.807-6.474-2.839-12.795-4.323-19.185l4.684-.93"/>
      <path id="パス_9820" data-name="パス 9820" d="M346.134,588.138c1.739-1.209,3.888-3.787,5.152-3.409,9.466,2.839,18.863,4.554,28.89,3.652,7.06-.635,11.579,4.169,15.709,10.186-14.825.294-28.527-.358-41.7-4.633-3.065-.995-5.429-4.153-8.116-6.316Z"/>
      <path id="パス_9821" data-name="パス 9821" d="M672.516,525.742l7.406-22.965-7.6-15.093-.053.01,8.236,5.6,10.317-13.39c1.107,2.605,2.662,4.48,2.322,5.9-.467,1.945-2.554,3.44-3.628,5.311-4.105,7.153-3.044,10.055,6.314,14.751-5.026,2.938-9.79,4.91-13.491,8.11-3.906,3.376-6.8,7.924-10.133,11.96l.309-.189"/>
      <path id="パス_9822" data-name="パス 9822" d="M508.356,444.483c.646,9.922-4.379,7.911-9.825,6.913.684-3.6-3.707-8.21,3.406-10.532l-6.829-6.643c1.04-.293,1.727-.744,2.119-.561,15.949,7.43,26.448,21.926,40.765,31.511a52.953,52.953,0,0,1,13.519,12.565l-43.155-33.253"/>
      <path id="パス_9823" data-name="パス 9823" d="M758.22,346.013c.046-6.572.57-12.313,7.573-16.345,4.155-2.393,6.514-7.9,10.267-12.776l5.913,6.536c-5.218,6.771-10.167,13.29-15.23,19.719-2.211,2.807-4.581,5.69-8.614,2.494Z"/>
      <path id="パス_9824" data-name="パス 9824" d="M508.263,638.447c-7.5,13.78-24.233,10.846-33.486,20.838L473.2,656.86c5.341-4.146,10.3-8.963,16.132-12.246,5.564-3.135,8.771-13.755,18.928-6.167"/>
      <path id="パス_9825" data-name="パス 9825" d="M326.064,193.019c-1.858-3.093-4.06-6.039-5.455-9.328a16.805,16.805,0,0,1-1.086-7.558c.643-8.615,1.632-17.2,2.775-28.674,2.951,4.828,6.53,8.188,5.869,10.016-3.684,10.2-.938,19.981.263,29.959.211,1.754-1.847,3.78-2.857,5.681Z"/>
      <path id="パス_9826" data-name="パス 9826" d="M709.176,143.83c.759-2.035,1.517-4.071,2.456-6.588,10.293,9.977,28.339-.844,37.035,14.682-14.386,2.044-26.323-6.366-39.538-8.476l.047.382"/>
      <path id="パス_9827" data-name="パス 9827" d="M55.656,434.754l-21.7-14.728q.192-.669.383-1.339l9.321,1.631,5.5-11.32-.616.131c3.236,6.28,6.825,12.418,9.459,18.94.654,1.617-1.785,4.482-2.8,6.773l.459-.088"/>
      <path id="パス_9828" data-name="パス 9828" d="M170.711,304.31c-.317-4.512-.482-6.875-.786-11.209l-9.81,8.339c-8.341-8.238,1.954-10.792,3.467-16.48l13.828,10.656-6.7,8.694"/>
      <path id="パス_9829" data-name="パス 9829" d="M633.017,454.937c2.561,2.653,5.917,4.909,7.492,8.056,2.184,4.361,3,9.4,4.458,14.134,1.464,4.757.6,8.548-4.263,10.783l.435-.034c-3.86-7.5-1.146-17.544-9.442-23.627-1.078-.791,1.192-6.15,1.912-9.393l-.592.081"/>
      <path id="パス_9830" data-name="パス 9830" d="M628.253,310.159,605.2,323.278l-1.462-1.593,12.88-16.715,11.636,5.658,0-.469"/>
      <path id="パス_9831" data-name="パス 9831" d="M672.323,487.684c-4.23-4.361-8.655-8.552-12.631-13.133-3.674-4.234-6.866-8.885-10.444-13.58,14.035,3.472,19.919,13.867,23.022,26.723Z"/>
      <path id="パス_9832" data-name="パス 9832" d="M232.872,312.554c.958,2.53,3.444,5.917,2.594,7.433-2.849,5.084,2.5,13.35-8,17.121.795-8.972,1.471-16.605,2.148-24.237l3.257-.317"/>
      <path id="パス_9833" data-name="パス 9833" d="M553.779,148.063c-7.833,5.881-8.1,5.689-10.8-3.887-1.188-4.221-3.274-8.19-2.744-13.478l13.543,17.365"/>
      <path id="パス_9834" data-name="パス 9834" d="M159.843,342.8c-7.441,5.162-14.677,3.147-22.192.7,5.661-8.01,11.144-8.169,22.192-.7"/>
      <path id="パス_9835" data-name="パス 9835" d="M350.733,212.884c-3.588-8.667-6.241-17.4-2.052-28.994,5.77,11,8.438,19.745,1.67,28.969Z"/>
      <path id="パス_9836" data-name="パス 9836" d="M334.929,590.909l-13.657,3.146-4.606-5.64,6.351-10.1,11.866,11.429Z"/>
      <path id="パス_9837" data-name="パス 9837" d="M339.969,117.473c-2.286-10.04-4.677-20.059-6.674-30.155-.175-.887,2.236-2.284,3.445-3.444l-.488.05c4.018,10.928,7.862,21.872,3.168,33.618Z"/>
      <path id="パス_9838" data-name="パス 9838" d="M499.348,677.083c4.393-12.955,5.03-13.339,15.582-9.39-3.716,6.206-3.716,6.206-15.582,9.39"/>
      <path id="パス_9839" data-name="パス 9839" d="M630.421,441.889l-13.345-2.4,9.746-12.648c6,3.152,7.895,8.082,3.14,15.116Z"/>
      <path id="パス_9840" data-name="パス 9840" d="M616.922,398.179l10.061,20.514c-13.479-5.143-14.169-7.006-9.7-20.561l-.361.047"/>
      <path id="パス_9841" data-name="パス 9841" d="M729.926,596.03c.552-.667,1.11-1.916,1.657-1.912a151.658,151.658,0,0,1,24.373,1.67c-8.862,4.281-17.558,4.678-26.1-.29Z"/>
      <path id="パス_9842" data-name="パス 9842" d="M347.788,281.343c5.648,7.306,3.186,14.975.457,24.625-1.981-9.5-8.2-16.9-.078-24.7Z"/>
      <path id="パス_9843" data-name="パス 9843" d="M256.558,470.968c-.1,6.951-.163,11.126-.236,16.143L245.53,485.28l11.028-14.312"/>
      <path id="パス_9844" data-name="パス 9844" d="M737.256,607.859c7.854-4.081,15.235-2.992,23.882,2.155-9.246.769-17.145,4.093-23.9-2.661Z"/>
      <path id="パス_9845" data-name="パス 9845" d="M709.129,143.448c-7.075,5.508-7.075,5.508-16.144-4.754,6.954-2.022,11.837.642,16.191,5.136Z"/>
      <path id="パス_9846" data-name="パス 9846" d="M227.457,377.447l18.578,6.246c-12.662,4.2-12.662,4.2-18.578-6.246"/>
      <path id="パス_9847" data-name="パス 9847" d="M215.323,179.034c-4.666-9.429,3.75-11.673,7.86-16.281l2.387,1.454q-5.385,7.421-10.771,14.839Z"/>
      <path id="パス_9848" data-name="パス 9848" d="M587.5,312.989c10.632,4.776,11.87,13.279,9.253,23.31l.515-.057q-4.7-11.664-9.391-23.327Z"/>
      <path id="パス_9849" data-name="パス 9849" d="M79.226,386.276c-9.353.2-18.211-1.468-26.253-6.2q.406-1.264.814-2.528L79.266,386.8Z"/>
      <path id="パス_9850" data-name="パス 9850" d="M431.4,310.422c8.246,4.536,8.073,11.933,12.114,19.544-7.853-5.365-11.665-10.414-12.114-19.544"/>
      <path id="パス_9851" data-name="パス 9851" d="M201.353,208.433,192.3,220.181l-2.071-1.515,9.055-11.751,2.069,1.518"/>
      <path id="パス_9852" data-name="パス 9852" d="M339.42,117.542c6.737,5.412,7.11,12.462,5.178,20.1l.533-.059c-6.594-5.456-6.9-12.523-5.162-20.114Z"/>
      <path id="パス_9853" data-name="パス 9853" d="M389.773,437.849c-5.913,1.739-12.451,6.733-18.074-3.529l18.074,3.529"/>
      <path id="パス_9854" data-name="パス 9854" d="M716.428,174.788l13.272,12.7c-9.065,1.633-9.328,1.379-13.272-12.7"/>
      <path id="パス_9855" data-name="パス 9855" d="M348.167,281.272c-4.775-6.62-4.247-11.157,2.238-19.25l-.579.093c2.376,6.734,4.2,13.41-2.038,19.228Z"/>
      <path id="パス_9856" data-name="パス 9856" d="M564.334,341.513l-16.39,6.732c6.376-12.689,7.481-12.947,16.5-6.278Z"/>
      <path id="パス_9857" data-name="パス 9857" d="M628.466,402.111l3.542-18.447c5.174,9.548,5.174,9.548-3.542,18.447"/>
      <path id="パス_9858" data-name="パス 9858" d="M702.993,468.52l-12.088,10.458c-3.789-5.968,1.45-8.232,3.713-10.879.863-1.008,4.23.127,8.375.421"/>
      <path id="パス_9859" data-name="パス 9859" d="M741.643,511.657l-16.659-2.41q.254-1.928.505-3.854l16.65,2.6q-.247,1.83-.5,3.66"/>
      <path id="パス_9860" data-name="パス 9860" d="M593.541,564.985l13.812-.706c-4.735,9.168-4.735,9.168-13.812.706"/>
      <path id="パス_9861" data-name="パス 9861" d="M782.9,292.335l-11.8-13.448,3-2.537q5.586,6.973,11.173,13.946l-2.373,2.039"/>
      <path id="パス_9862" data-name="パス 9862" d="M292.153,493.763c-6.981,1.288-13.473.856-20.249-6.48,8.72,1.05,15.913-.31,20.345,7.083Z"/>
      <path id="パス_9863" data-name="パス 9863" d="M605.865,234.623q6.351,6.835,12.705,13.67l-2.187,2.011q-6.215-6.959-12.43-13.916l1.912-1.765"/>
      <path id="パス_9864" data-name="パス 9864" d="M596.755,336.3l7.2,13.831c-7.02-2.8-8.816-7.628-6.688-13.888Z"/>
      <path id="パス_9865" data-name="パス 9865" d="M249.427,520.71l6.8,13.923-2.172,1.222-8.089-13.916,3.465-1.229"/>
      <path id="パス_9866" data-name="パス 9866" d="M717.525,353.317l-11.487-12.189,1.354-1.283L719.48,352.43l-1.955.887"/>
      <path id="パス_9867" data-name="パス 9867" d="M215.167,403.07l-14.748-3.039q.3-1.414.6-2.83l14.916,3.124q-.384,1.372-.769,2.745"/>
      <path id="パス_9868" data-name="パス 9868" d="M700.6,449.911c8.16,6.7-.076,7.928-5.052,10.086l5.657-10.164-.6.078"/>
      <path id="パス_9869" data-name="パス 9869" d="M222.332,349.523c6.531-4.885,6.531-4.885,11,4.429l-11.067-5.028Z"/>
      <path id="パス_9870" data-name="パス 9870" d="M473.389,443.666l7.475,4.514-1.29,2.451-8.1-4.358,1.91-2.607"/>
      <path id="パス_9871" data-name="パス 9871" d="M350.4,262.022c-7.83-3-5.451-7.04.329-11.174q-.455,5.634-.908,11.267Z"/>
      <path id="パス_9872" data-name="パス 9872" d="M574.426,560.647l10.455-1.591c-2.606,7.953-5.929,7.519-9.679,5.626q-.387-2.018-.776-4.035"/>
      <path id="パス_9873" data-name="パス 9873" d="M107.437,439.738c3.072,8.869-.965,10.937-6.325,12.332l6.325-12.332"/>
      <path id="パス_9874" data-name="パス 9874" d="M292.249,494.366c3.327-8.308,7.733-1.373,11.605-2q.01,1.682.021,3.363l-11.722-1.969.1.6"/>
      <path id="パス_9875" data-name="パス 9875" d="M346.958,162.309,343.082,153l2.256-1.143,4.755,8.873-3.135,1.582"/>
      <path id="パス_9876" data-name="パス 9876" d="M482.408,626.379l-7.495,6.038c-.759-1.485-1.585-2.371-1.392-2.841,1.232-3.012,2.076-6.966,8.887-3.2"/>
      <path id="パス_9877" data-name="パス 9877" d="M628.255,310.628c2.387-2.649,4.775-5.3,8.1-8.991.57,8.184-4.289,7.724-8.107,8.522Z"/>
      <path id="パス_9878" data-name="パス 9878" d="M633.609,454.856c-1.9-4.116-6.792-7.5-3.188-12.966l-.459.063c3.884,3.655,8.584,7.118,3.055,12.984Z"/>
      <path id="パス_9879" data-name="パス 9879" d="M328.831,649.835q.069,5.116.138,10.234l-4.361-.094q.434-5.085.869-10.17l3.354.03"/>
      <path id="パス_9880" data-name="パス 9880" d="M84.915,519.736l4.833-6.272,2.465,1.516-4.158,6.9-3.14-2.141"/>
      <path id="パス_9881" data-name="パス 9881" d="M102.073,569.138c-.7-3.723-1.407-7.446-2.584-13.678,5.523,5.946,9.824,9.513,2.057,13.775l.527-.1"/>
      <path id="パス_9882" data-name="パス 9882" d="M606.731,522.854l-9.9-7.626.234-.3,9.9,7.626-.235.3"/>
      <path id="パス_9883" data-name="パス 9883" d="M410.656,356.293l-7.146,8.062c.8-8.15.8-8.15,7.219-7.458l-.073-.6"/>
      <path id="パス_9884" data-name="パス 9884" d="M596.634,230.309l-6.014-7.758q.66-.612,1.321-1.22l7.879,6.92q-1.593,1.027-3.186,2.058"/>
      <path id="パス_9885" data-name="パス 9885" d="M170.149,387.221l9.99,3.885-.941,2.346L169.27,389.4l.879-2.182"/>
      <path id="パス_9886" data-name="パス 9886" d="M350.351,212.86c3.508,2.863,3.276,5.447-1.138,8.438-2.438-3.665-6.471-6.784,1.52-8.413Z"/>
      <path id="パス_9887" data-name="パス 9887" d="M325.573,193.115c-.135,3,4.617,7.667-5.156,8.612,2.446-3.773,4.047-6.24,5.647-8.708Z"/>
      <path id="パス_9888" data-name="パス 9888" d="M583.255,619.479l4.37-.389c-.038,1.464.229,3.044-.263,4.336-.2.526-2.824.857-3,.533-.644-1.161-.714-2.64-1.1-4.48"/>
      <path id="パス_9889" data-name="パス 9889" d="M183.691,378.711l5.457,1.816a18.064,18.064,0,0,1-1.421,3,40.308,40.308,0,0,1-5.126-2.069l1.09-2.751"/>
      <path id="パス_9890" data-name="パス 9890" d="M352.674,523.11c.782,2.357,1.523,4.593,2.264,6.828l-1.081.7-4.519-5.79,3.336-1.733"/>
      <path id="パス_9891" data-name="パス 9891" d="M564.444,341.967c1.42-2.838,2.839-5.677,5.124-10.245.429,8.118.429,8.118-5.234,9.791l.11.454"/>
      <path id="パス_9892" data-name="パス 9892" d="M344.6,137.646c.752,3.24,1.5,6.48,2.8,12.07-5.786-5.089-6.248-8.386-2.267-12.129Z"/>
      <path id="パス_9893" data-name="パス 9893" d="M420.862,301.073l5.274,1.844-1.227,2.844-4.6-3.545.553-1.143"/>
      <path id="パス_9894" data-name="パス 9894" d="M458.152,633.673c1.03,2.091,2.1,4.166,2.952,6.327.035.089-1.939.972-2.977,1.485l-2.946-6.16,2.971-1.652"/>
      <path id="パス_9895" data-name="パス 9895" d="M618.417,291.035l-6.238,7.355c.2-6.885.2-6.885,6.31-6.811Z"/>
      <path id="パス_9896" data-name="パス 9896" d="M214.8,179.046c2.383,6.851-3.892,8.808-6.231,12.99l-2.161-1.431,8.916-11.571Z"/>
      <path id="パス_9897" data-name="パス 9897" d="M410.729,356.9c4.281-4.831,6.189-3.494,6.742,3.573l-6.815-4.177Z"/>
      <path id="パス_9898" data-name="パス 9898" d="M777.4,610.357l-10.045-.772c4.947-3.051,4.947-3.051,10.045.772"/>
      <path id="パス_9899" data-name="パス 9899" d="M101.546,569.235l7.005,4.71c-6.1.49-6.1.49-6.478-4.807Z"/>
      <path id="パス_9900" data-name="パス 9900" d="M649.779,299.288l-6.361,5.285c1.439-6.819,1.439-6.819,6.434-4.741Z"/>
      <path id="パス_9901" data-name="パス 9901" d="M346.074,587.618c-2.982,3.579-6.043,6.887-11.146,3.291l-.046-1.171,11.252-1.6Z"/>
      <path id="パス_9902" data-name="パス 9902" d="M222.27,348.925l-7.1,1.971q0-1.648.007-3.3l7.16,1.926-.063-.6"/>
      <path id="パス_9903" data-name="パス 9903" d="M450.924,116.247l4.357,8.971c-7.445-1.411-4.958-5.358-3.845-9Z"/>
      <path id="パス_9904" data-name="パス 9904" d="M323.908,334.138l3.7.182a21.407,21.407,0,0,1-1.029,4.436c-.1.24-2.8-.026-3.1-.643-.443-.906.194-2.34.433-3.975"/>
      <path id="パス_9905" data-name="パス 9905" d="M480.006,420.865l6.9,5.32-.711.937-7.277-5.607,1.084-.65"/>
      <path id="パス_9906" data-name="パス 9906" d="M44.768,400.209l3.771,8.919.616-.131c-5.116-1.221-8.678-3.153-4.035-8.83Z"/>
      <path id="パス_9907" data-name="パス 9907" d="M534.652,102.35q1.931,4.131,3.86,8.262l-1.7,1.13q-2.91-3.774-5.821-7.549l3.658-1.843"/>
      <path id="パス_9908" data-name="パス 9908" d="M665.446,130.532l6.591,1.763L671,135.788l-6.274-3.392q.36-.932.719-1.864"/>
      <path id="パス_9909" data-name="パス 9909" d="M52.7,493.216,48.887,486.9a12.336,12.336,0,0,1,2.028-.967c1.361,1.944,2.583,3.984,3.834,6.005l-2.053,1.28"/>
      <path id="パス_9910" data-name="パス 9910" d="M473.995,361.732q-1.749,2.18-3.494,4.359l-7.087-5.46q.293-.848.585-1.694l10,2.795"/>
      <path id="パス_9911" data-name="パス 9911" d="M34.207,492.3l3.966-3.295,1.454,5.129-5.459-2.34Z"/>
      <path id="パス_9912" data-name="パス 9912" d="M194.324,613.524q-1.8-2.465-3.6-4.929l1.086-.921q2.127,2.195,4.252,4.39l-1.743,1.46"/>
      <path id="パス_9913" data-name="パス 9913" d="M559.561,632.4,558,625.874c5.425,1.343,5.425,1.343,1.563,6.522"/>
    </g>
  </g>
</svg>
