<svg xmlns="http://www.w3.org/2000/svg" width="684.892" height="382.852" viewBox="0 0 684.892 382.852">
  <g id="グループ_5278" data-name="グループ 5278" transform="translate(-442.715 -421.555)">
    <g id="_1" data-name="1" transform="matrix(0.934, 0.358, -0.358, 0.934, 662.856, 433.099)" opacity="0.05">
      <path id="パス_9780" data-name="パス 9780" d="M539.127,118.523l-3.115,2.649c7.971-.154,15.972-.116,23.405-3.687l.048-.43c-1.082-3.333-.656-3.644,4.641-3.384l-.38-.032a16.782,16.782,0,0,1,3.658-1.9q25.8-6.111,51.645-12.027c2.454-.56,5.1-.311,7.533-.927a52.111,52.111,0,0,0,6.935-2.794l.1-.687c-.578-.372-1.241-1.154-1.723-1.055q-27.246,5.617-54.459,11.394c-4.485.949-8.934,2.073-13.418,3.027-11.8,2.511-23.617,4.96-35.419,7.469-1.769.376-3.5.948-5.715,1.558-4.441-6.338-11.069-3.455-17.156-3.444l.294.042c-2.959.087-5.977.434-8.139-2.38a11.05,11.05,0,0,0-2.177,1.059l.022-.192c.853,2.868,2.522,4.546,5.754,4.706,1.012.05,1.961,1.355,2.751,3.469-3.251.351-6.528.55-9.746,1.1-3.137.532-6.184,1.842-9.322,2.06-6.434.447-12.907.3-19.356.58-3.982.174-7.948.691-11.921,1.054l.038-.28,2.18,2.829c-3.358,5.679-10.156,3.622-14.567,6.671.355,2.4.355,2.4-2.451,2.353l2.735-2.313c-7.625,1.255-15.254,2.494-22.872,3.794-.644.11-1.558.486-1.773.985-2.806,6.506-8.993,4.868-14.685,6.512l2.915-3.262c-.31-.171-.642-.5-.819-.43-5.669,2.215-11.207,4.846-17.009,6.616-6.481,1.978-13.2,3.181-20.54,4.891l2.01-2.913c-.4-.036-.89-.241-1.142-.078-6.292,4.047-13.695,4.521-20.659,6.293-10.415,2.649-20.935,4.907-31.449,7.145-15.962,3.4-31.973,6.565-47.932,9.98-6.992,1.5-13.879,3.485-20.861,5.032q-17.126,3.8-34.323,7.261c-1.91.388-3.954.117-6.967.167l3.39-2.612-.029.278c-1.679-.189-3.5-.9-5.015-.484-11.932,3.287-23.753,6.985-35.71,10.174-14.181,3.782-28.446,7.254-42.709,10.718-6.193,1.5-12.421,3.312-18.724,3.8-7.9.605-14.874,2.827-21.672,8.515l1.82-4.126c-4.406,1.86-9.541-.6-12.852,3.848q.186,1.569.372,3.138l-6.9.007.376.047c-3.114,1.436-6.1,3.345-9.37,4.2-5.48,1.44-11.208,1.931-16.7,3.345-5.1,1.314-10.052,3.252-15.029,5.026-6.817,2.429-13.624,4.893-20.38,7.488A70.255,70.255,0,0,0,0,243.67l.541,1.257c10.017-3.313,19.953-6.906,30.076-9.859,9.683-2.824,19.575-4.925,29.345-7.458,3.786-.982,7.456-2.41,11.24-3.4,12.3-3.231,24.561-6.611,36.832-9.946,15.729-4.275,31.708-7.637,47.6-11.287,11.007-2.527,22.017-5.065,33.093-7.263,15.589-3.093,31.25-5.818,46.855-8.834,4.054-.783,7.979-2.22,12.023-3.078,8.366-1.775,16.772-3.364,25.162-5.024.228-.045.493.033.7-.052,12.834-5.3,26.89-4.336,40.092-7.838,8.017-2.127,16.2-3.624,24.3-5.461,11.865-2.691,23.73-5.379,35.569-8.179,4.819-1.14,9.569-2.57,14.852-2.627l-5.439,5.374c2.387-1.651,4.111-2.677,5.644-3.937a27.831,27.831,0,0,1,13.142-5.747c8.11-1.518,15.962-4.358,24.013-6.258,7.631-1.8,15.426-2.9,23.063-4.687,13.234-3.088,26.408-6.43,39.592-9.729,7.337-1.836,15.274-.9,22.168-4.835a2.214,2.214,0,0,1,1.989.091c5.615,4.4,13.294,5.756,17.689,11.941.384.541.678,1.145,1.012,1.716-8.259,5.67-18.093,1.434-27.4,4.163.807.55,2.988,4.68,3.027,5.239,9.283-4.39,19.047-3.526,29.92-2.712,2.579,3.347,5.844,7.582,9.107,11.82q18.892,24.536,37.766,49.085c1.942,2.531,3.755,4.979,7.322,2.345-1.494-2.619-2.349-5.9-4.47-7.465-4.46-3.3-6.435-8.157-9.485-12.344-1.959-2.689-3.168-6.321-7.558-6.384-.841-.012-1.759-1.447-2.471-2.358-6.355-8.139-12.7-16.286-18.961-24.5-.718-.942-.883-2.307-1.847-4.982l6.909,4.187c5.138-3.455,8.556-3.366,14.549,1.874,5.845,5.112,12.982,7.041,19.9,9.65,1.83.69,4.451.517,5.529,1.762,5.957,6.875,15.479,6.544,22.324,11.492a69.184,69.184,0,0,0,6.151,3.837c3.637,2.086,6.545,5.359,11.87,2.164,2.288-1.373,7.083.849,10.5,2.094a38.256,38.256,0,0,1,11.957,7.064l-5.483.366c-.507,1.264-.855,3.352-2.012,4.792-4.118,5.132-8.512,10.044-12.8,15.039l1.074.985,15.919-16.378c2.977-.941,3.961,4.113,6.667,1.026l-.038.288-2.59-4.112c3.123-3.742,5.469-4.044,10.575-.678,3.038,2,5.737,2.819,8.676.128l-.038.288c-3.016-1.262-6.089-2.408-9.031-3.824-2-.965-4.69-1.62-4.348-3.991a44.421,44.421,0,0,0-6.452-.962c-8.134-.091-14.258-5.423-21.449-7.929-5.342-1.862-10.835-3.295-16.259-4.924-.846-.254-1.91-.293-2.492-.838-5.593-5.24-12.972-6.685-19.694-9.577-6.846-2.946-13.415-6.531-20.158-9.723-3.571-1.691-8.06-2.312-10.72-4.881-5.279-5.1-12.125-7.319-17.972-11.281-1.531-1.037-4.245-.329-5.311-.374-4.424-2.446-8.828-3.8-11.551-6.727-2.17-2.331-2.43-6.477-6.829-8.45,2.352-.584,4.063-1.6,5.347-1.213,3.578,1.083,5.6-1.038,7.956-2.876.485-.378,1.538-.028,2.329-.013,1.542-.516,2.9-3.3,5.573.717l-5.551-.932m-66.82,9.922q.189,1.26.378,2.521l-18.785,4.2c1.032-2.04,2.615-2.727,3.979-3.715,1.637-1.186,3.088-2.63,4.12-3.527,2.26.8,3.768,1.73,5.291,1.755,1.665.028,3.344-.785,5.017-1.232" transform="translate(-159.242 -45.48)"/>
      <path id="パス_9781" data-name="パス 9781" d="M657.276,141.041c-6.069.79-12.117,1.925-18.212,2.3-12.267.752-24.572.9-36.838,1.664-8.411.525-16.784,1.673-25.173,2.547a8.98,8.98,0,0,1-2.022.241c-10.751-1.45-21.286,2.155-31.879,1.665-14.506-.672-28.857,1.319-43.323,1.28-11.694-.032-23.381,2.137-35.1,2.915-7.248.482-14.549.195-21.826.232-.872,0-1.748-.2-2.617-.17-4.967.187-9.94.3-14.894.68a13.467,13.467,0,0,0-6.809,2.393c19.325,2.49,38.488.765,58.871-1.189l-28.208,23.337.707.869c3.466-2.671,6.948-5.322,10.4-8.018,5.54-4.333,11.268-8.458,16.517-13.12,4.452-3.954,9.546-3.658,14.744-3.412.714.033,1.377,1.166,2.063,1.789l-.305-.056c1.668-.622,3.31-1.686,5.009-1.789,6.511-.394,13.052-.311,19.561-.734,5.474-.356,10.906-1.391,16.38-1.726,9.268-.566,18.558-.764,27.835-1.218,7.284-.356,14.559-.906,21.841-1.3,17.293-.926,34.585-1.861,51.883-2.664,3.365-.156,6.758.4,10.137.384,2.4-.008,4.8-.416,7.673-.69a5.894,5.894,0,0,0,8.326.409c1.241-1.189,2.7-2.844,4.179-2.972,6.588-.571,13.216-.712,19.833-.92,4.019-.126,8.043-.091,12.425-.131-.432,1.655-.818,3.134-1.385,5.3l7.46-3.9c-.5,1.88-.783,2.958-1.073,4.055l3.652-.99.868,1.191-8.319,7.679.544.727c3.19-2.458,6.26-5.1,9.614-7.307,2.081-1.371,4.542-2.786,6.923-2.966,7.115-.535,14.28-.37,21.414-.707,1.982-.094,3.926-.985,5.888-1.51l-.038.281c-.265-.382-.485-1.055-.8-1.1-6.724-1.031-13.458-1.993-20.448-3.005.727-1.7,3.137-.767,4.694-1.337,2.43-.889,1.778-2.242,1.052-3.8l.271.031c-11.8,5.029-24.378,1.98-36.542,3.422-8.695,1.03-17.639-1.569-26.37,1.087-.719.218-1.735-.543-2.613-.85l-5.969,1.1" transform="translate(-347.306 -64.032)"/>
      <path id="パス_9782" data-name="パス 9782" d="M437.909,10.2c6.923,4.166,11.8,13,21.912,14.054.016-2.418.027-3.957.038-5.6L454.97,20.3,439.327,0c-.582,4.187-.976,7.027-1.418,10.2" transform="translate(-73.368)"/>
      <path id="パス_9784" data-name="パス 9784" d="M356.508,120.291c-2.34-4.647-7.715-4.943-11.3-7.831-1.163-.938-2.746-1.357-5.492-2.654,4.694,6.174,9.461,9.8,15.828,11.219.248.055.652-.6.984-.925Z" transform="translate(82.006 -51.604)"/>
      <path id="パス_9786" data-name="パス 9786" d="M407.451,90.64c-.937-1.274-1.694-3.417-2.844-3.654a11.72,11.72,0,0,1-7.109-4.745c-.329-.416-1.932.177-2.947.3l.04-.28c2.678,4.237,5.223,8.666,11.047,8.985.6.033,1.244-.578,1.867-.89Z" transform="translate(1.968 -38.581)"/>
      <path id="パス_9787" data-name="パス 9787" d="M383.212,214.831l18.223-4.448c-6.02-1.77-14.421.3-18.223,4.448" transform="translate(14.048 -98.572)"/>
      <path id="パス_9788" data-name="パス 9788" d="M416.8,121.508c1.714-2.045,3.191-4.368,5.192-6.076,3.969-3.389,8.228-6.438,11.647-10.551-5.84,4.5-11.711,8.961-17.437,13.6-.324.262.552,2,.869,3.056Z" transform="translate(-35.611 -49.289)"/>
      <path id="パス_9789" data-name="パス 9789" d="M328.378,123.981c2.317-3.78-.925-5.356-3.06-7.089a10.179,10.179,0,0,0-5.975-1.956l9.329,9.087Z" transform="translate(120.158 -54.015)"/>
      <path id="パス_9790" data-name="パス 9790" d="M378.548,28.787l-9.865-6.041c1.588,5.983,4.569,7.907,9.865,6.041" transform="translate(44.635 -10.69)"/>
      <path id="パス_9791" data-name="パス 9791" d="M427.315,78.815c-2.208-2.269-3.581-6.1-8.4-4.092a66.2,66.2,0,0,0,5.731,4.917c.434.3,1.781-.7,2.709-1.1Z" transform="translate(-30.797 -34.852)"/>
      <path id="パス_9792" data-name="パス 9792" d="M360.623,180.989l-8.938,2.515c5.235,2.03,5.5,1.978,8.938-2.515" transform="translate(71.57 -85.057)"/>
      <path id="パス_9793" data-name="パス 9793" d="M409.265,51.787c1.368,1.488,1.514,4.757,6.151,3.059L410.3,50.592l-1.032,1.2" transform="translate(-13.742 -23.776)"/>
      <path id="パス_9794" data-name="パス 9794" d="M215.869,163.7l-9.136,2.867c6.29,2,6.29,2,9.136-2.867" transform="translate(293.155 -76.929)"/>
      <path id="パス_9795" data-name="パス 9795" d="M362.006,96.183l-3.949-5.124L357,91.713l3.585,5.43,1.419-.96" transform="translate(67.369 -42.794)"/>
      <path id="パス_9796" data-name="パス 9796" d="M385.437,74.761c-2.132,2-7.861-.757-7.089,5.462l7.089-5.462" transform="translate(32.662 -35.134)"/>
      <path id="パス_9797" data-name="パス 9797" d="M202,133.81l9.266-1.722q.012-1.555.023-3.11l-4.98.985.38.032-4.641,3.384-.048.43" transform="translate(300.242 -60.614)"/>
      <path id="パス_9799" data-name="パス 9799" d="M344.926,267.991l3.132-4.766c-2.885.661-4.37,2.053-2.853,4.818Z" transform="translate(87.89 -123.704)"/>
      <path id="パス_9800" data-name="パス 9800" d="M270.94,239.026a18.658,18.658,0,0,0-1.78,1.181c-.859.734-1.663,1.533-2.49,2.306.145-.081.3-.15.434-.245,1.135-.8,2.273-1.586,3.391-2.406.161-.118.213-.385.445-.836" transform="translate(206.315 -112.332)"/>
      <path id="パス_9801" data-name="パス 9801" d="M388.741,97.685l3.031,2.76c.211-2.744.211-2.744-3.085-2.478Z" transform="translate(20.731 -45.908)"/>
      <path id="パス_9802" data-name="パス 9802" d="M377,105.017l-2.52-.255c-.013.61-.275,1.531.015,1.764a6.351,6.351,0,0,0,2.166.719l.339-2.228" transform="translate(43.175 -49.234)"/>
    </g>
  </g>
</svg>
