<svg xmlns="http://www.w3.org/2000/svg" width="597.686" height="458.911" viewBox="0 0 597.686 458.911">
  <g id="グループ_5277" data-name="グループ 5277" transform="translate(-582.758 -1071.364)">
    <g id="_2" data-name="2" transform="matrix(0.848, -0.53, 0.53, 0.848, 582.758, 1390.111)" opacity="0.05">
      <path id="パス_9778" data-name="パス 9778" d="M501.853,21.164c1-.9,1.908-2.318,3.017-2.627,6.691-1.868,13.444-3.4,20.146-5.214C529.894,12,534.7,10.3,539.583,8.984c7.386-1.993,14.81-3.769,22.2-5.732.744-.2,1.376-1.044,2.06-1.589l.09-.757c-.325-.317-.7-.967-.966-.9C554.574,2.13,546.2,4.387,537.8,6.482c-3.951.986-7.985,1.481-11.92,2.544-13.624,3.681-27.207,7.593-40.836,11.245-4.754,1.274-9.607,1.971-14.39,3.1a39.442,39.442,0,0,0-5.167,1.98c-4.04-4.59-8.632-5.724-13.781-3.349l1.42,4.151c-2.167-.886-4.647-1.825-1.217-4.1l-.886-1.2.261.046c-2.991,1.239-5.865,1.77-8.279-1.681-.116-.166-1.251.759-1.912,1.177l.021-.217c.746,3.188,2.251,5.007,5.131,5.192.919.06,1.778,1.536,3.51,3.153-2.775.718-4.469,1.2-6.177,1.588-3.2.725-6.395,1.534-9.619,2.04a55.615,55.615,0,0,1-7.195.448c-6.817.178-13.636.238-20.45.519-.848.035-1.668,1.125-2.5,1.727l.034-.306,2.195,2.829c-3.367,4.826-8.093,4.676-12.2,6.314,1.573,3.762-.44,3.286-2.864,3.309L394.1,43.72c-6.991,1.663-13.986,3.3-20.966,5.026A3.236,3.236,0,0,0,371,50.128c-2.8,6.174-8.134,4.785-13.047,7.294l2.842-4.187c-2.7.532-5.3,1.54-7.868,1.42-2.9-.137-2.667,4.053-5.6,4.579-6.707,1.2-13.229,3.982-20.561,6.359l2.406-4.057c-.535.035-1.007-.1-1.324.11-7.858,5.3-16.506,6.994-25.182,8.7-3.994.784-7.922,2.1-11.865,3.251-13.956,4.073-27.892,8.254-41.862,12.25-9.808,2.8-19.566,6.51-29.514,7.757-12.057,1.511-23.218,8-35.71,8.186l2.8-4.424c-5.574,1.6-10.578,2.752-15.442,4.5-12.841,4.614-25.567,9.725-38.447,14.154-6.058,2.083-12.386,2.939-18.555,4.563-5.979,1.575-11.907,3.446-17.867,5.138-4.2,1.192-8.761.077-12.63,3.595-1.915,1.74-4.342,2.617-6.735,4,.194.145.061-.006-.093-.063-6.328-2.3-6.328-2.294-11.071,1.915l1.583,2.542-7.393.939.334.053c-3.372,1.735-6.7,4.76-10.124,4.952-8.841.494-16.633,5.089-24.809,8.145-6.733,2.517-13.381,5.422-19.969,8.477-2.031.942-3.744,2.939-5.29,5.009,7.254-2.713,14.6-5.106,21.744-8.207C36.681,150.59,52.227,146.834,67.4,141.4c10.074-3.609,20.214-7.268,30.432-10.376,16.731-5.089,33.469-10.168,50.294-14.741,11.817-3.211,23.8-5.481,35.679-8.356,6.232-1.508,12.406-3.395,18.6-5.142,8.539-2.408,17.033-5.09,25.619-7.2,7.646-1.876,15.221-3.678,22.744-6.535,7.08-2.689,14.939-2.078,22.372-3.553,6.268-1.243,12.433-3.321,18.617-5.16,16.2-4.816,32.375-9.728,48.574-14.533a66.9,66.9,0,0,1,6.823-1.223L341,71.608l-.18-.507c4.877-3.216,9.51-7.379,14.689-9.428,8.12-3.212,16.594-5.078,24.945-7.358,6.405-1.749,12.9-3.039,19.269-4.941,5.891-1.76,11.668-4.1,17.514-6.1,1.571-.537,3.215-.746,4.821-1.13,9.448-2.26,19.258-3.272,28.213-7.238,5.88-2.6,9.927-.186,14.055,2.664,3.275,2.261,5.611,6.6,8.661,10.392-5.677,3.755-10.926,5.369-16.935,3.613-2.258-.66-4.92.8-7.01,1.21l2.423,5.791c7.27-4.528,15.457-3.748,23.5-3.568,1.613.036,3.532,2.449,4.722,4.334,10.157,16.1,20.177,32.331,30.241,48.52,3.436,5.526,6.918,11.007,10.308,16.576,1.687,2.772,3.464,3.495,5.754.993a10.278,10.278,0,0,1-1.794-2.221c-.847-1.947-1.054-5.05-2.3-5.871-4.6-3.033-5.267-9.456-8.418-13.662-2.029-2.708-2.965-6.842-6.821-6.89-.6-.008-1.278-1.26-1.785-2.067q-8.844-14.091-17.62-28.247A23.3,23.3,0,0,1,486,62.62c1.8.736,2.771,1.17,3.76,1.527,1.185.428,2.764,1.593,3.521,1.049,5.6-4.015,8.788,1.35,12.566,4.526a2.922,2.922,0,0,0,1.106.69c5.92,1.312,10.625,6.059,16.086,8.708,5.582,2.708,10.821,6.514,16.426,9.131,7.2,3.362,12.959,10.544,20.9,11.8.84.133,1.777.593,2.508.3a5.9,5.9,0,0,1,6.718,1.007c2,1.605,4.968,1.237,7.369,2.246a66.987,66.987,0,0,1,7.188,4.057c-1.97,6.606-3.929-.89-6.041,1.869.193,1.161.453,2.728.67,4.031l-12.32,18.1.931,1.045,14.923-18.911c1.454,1.1,2.629,2.01,3.827,2.872.092.065.337-.2.945-.579-.63-1.854-1.278-3.76-2.518-7.406,3.653.973,6.163,1.8,8.716,2.277,2.719.5,5.478.668,8.22.981l-.034.318-11.493-8.3,1.047-1.834c-.312-.071-.649-.291-.813-.165-2.148,1.657-3.877,2.366-6.708.687-5.986-3.549-12.391-6.047-18.686-8.755-11.7-5.032-23.275-10.348-33.946-18.331-2.119-1.586-4.832-1.9-7.119-3.21-4.424-2.534-8.722-5.4-13.109-8.041-1.795-1.079-3.786-1.7-5.512-2.907-5.933-4.163-11.916-8.257-17.62-12.869-2.707-2.189-5.859-1.92-8.767-4.017-3.958-2.855-7.785-4.808-9.49-10.544-.312-1.049-1.721-1.6-3.328-2.983l13.844-4.16c1.523-1.529,2.948-3.536,4.978-2.61l.313,1.858-5.273.514-2.931,2.794c.266.427.5,1,.617.962,7.146-2.081,14.865-.825,21.541-5.636l2.841-3.54M420.1,37.39l.275,2.794-16.313,4.109-.308-1.412,9.683-7.287.891,3.492,5.773-1.7m67.888,20.046-.622,2.022c-.352-.207-.895-.311-1.015-.646a7.68,7.68,0,0,1-.18-1.923l1.817.547" transform="translate(0 0)"/>
      <path id="パス_9779" data-name="パス 9779" d="M.293,3.04,4.4,1.694Q4.175.847,3.948,0L0,2.014.293,3.04" transform="translate(489.83 44.296)"/>
    </g>
  </g>
</svg>
