<svg xmlns="http://www.w3.org/2000/svg" width="497.018" height="580.9" viewBox="0 0 497.018 580.9">
  <g id="グループ_5275" data-name="グループ 5275" transform="translate(-673.575 -8478.063)">
    <g id="_4" data-name="4" transform="translate(564.488 8803.196) rotate(-41)" opacity="0.05">
      <path id="パス_9914" data-name="パス 9914" d="M766.572,119.031c.052,4.115-.876,8.546.336,12.286,4.063,12.545,4.931,26.1,12.033,37.767.885,1.452,3.926,5.609-.619,7.971-.278.145.674,2.682,1.079,4.1,2.281,7.989,4.664,15.95,6.746,23.99.286,1.1-.912,2.592-1.423,3.9l.337-.066c-6.18-5.75-5.768-14.169-8.038-21.33-5.453-17.2-10.126-34.7-13.922-52.337-1.393-6.471-4.152-12.23-5.848-18.44-.414-1.516.065-3.274.133-4.922l9.186,7.078" transform="translate(-206.71 -30.567)"/>
      <path id="パス_9915" data-name="パス 9915" d="M811.488,153.554c0,1.958-.555,4.131.1,5.838,2.453,6.381,5.246,12.634,8.034,18.88,1.024,2.292,2.8,4.309,3.5,6.669,1.185,3.971,8.127,3.892,6.287,10.693-.656,2.427,5.152,6.6,9.125,11.3l-6.146-2.68,2.068,12.466-2.728.848c-4.477-10.055-9.723-19.866-13.047-30.288a26.639,26.639,0,0,0-5.59-10.3l.028.374-9.291-29.7,7.655,5.9" transform="translate(-219.473 -40.315)"/>
      <path id="パス_9916" data-name="パス 9916" d="M747.307,108.366c-4.156-1-7.632-2.43-4.913-7.773l6.125,4.719-1.49,3.044Z" transform="translate(-202.435 -27.465)"/>
      <path id="パス_9917" data-name="パス 9917" d="M172.759,279.807c-2.634-3.725-4.477-7.624-2.728-12.318l-.269.049c3.316,4.019,7.5,6.117,12.759,5.345,4.932-.725,8.966,1.162,12.85,4.77l-10.862-.449-.592,1.458c1.512,1.165,2.978,3.273,4.542,3.348,15.76.761,31.457,4.917,47.333,1.162.827-.2,1.83.379,2.757.573,9.538,2,18.362-.472,27.009-4.227,1.232-.535,3.037-1.3,3.942-.8,9.984,5.479,20.911,2.282,31.331,3.545a135.034,135.034,0,0,0,20.184.69c7.954-.236,15.9-1.027,23.828-1.754,8.655-.795,17.322-1.583,25.916-2.837,2.343-.342,4.442-2.349,7.16-3.876l-5.237-7.565c7.64-6.3,14.159,2.807,21.632.971-.009-1.846-.02-3.833-.032-6.208,12.465,1.089,22.554,7.129,31.95,15.334-6.22-1.428-12.387-3.193-18.675-4.191-6.4-1.016-12.915-1.276-20.061-1.929-.736,6.716-1.527,13.439-2.182,20.176-.2,2.086-.583,4.4.071,6.271,1.14,3.271-.025,4.86-2.895,5.8-3.522,1.157-5.44-1.085-6.245-3.817-1.281-4.35-1.926-8.886-4.567-13.325q-1.378,7-2.756,14.005l-1.133-.105c-1-4.49-2-8.98-3.244-14.575-6.16.939-13.051,2.017-19.951,3.023a31.811,31.811,0,0,1-6.443.583c-11.168-.688-22.378-2.56-33.472-2.008-9.272.462-18.468,1.836-27.795.788-.576-.064-1.307,1.266-1.966,1.948l-2.54,3.168-2.6,3.077c-1.848-2.2-3.434-5.854-5.441-6.1-4.068-.5-8.873-.161-12.446,1.654-5.428,2.757-9.648,3.733-14.734-.634-1.783-1.531-5.41-1.115-8.209-1.22-5.26-.2-10.53-.1-15.795-.186-.938-.015-2.2-.789-2.759-.4-10.051,6.9-20.426-1.424-30.908,1.22-.113.681-.313,1.9-.626,3.8-4.218-4.82-9-5.153-15.108-5.172-21.656-.068-43.306-1.744-64.96-2.789-2.219-.108-4.45-.188-6.666-.089-4.925.222-4.295,3.1-2.762,6.529l-8.051-1.719c-3.133,4.067-6.438,8.351-9.738,12.639-1.674,2.176-3.344,4.333-5.824.827l.067.27c-2.424-3.427-.473-5.977,1.633-8.574,2.2-2.716,4.284-5.529,7.616-9.853L0,285.457c3.03-2.9,4.333-5.225,5.633-5.223,14.27.014,28.539.461,42.81.643,9.2.117,18.4-.01,28.324-.03l-1.33-4.453,4.867,2.07c7.881-9.219,17.24-17.342,12.828-31.534,5.284-2.292,10.125-4.384,9.533-11.473-.175-2.092,3.218-4.48,4.975-6.733l-.439.057c2.92,7.55.008,13.658-5.372,19.449l9.068,1.04c-.911,1.182-1.309,1.793-1.8,2.319-4.474,4.811-10.1,8.385-11.639,15.849-.96,4.665-4.8,8.736-8.117,14.375,8.007-.1,15.223-.333,22.436-.248,7.8.092,15.615.826,23.408.634,7.252-.179,14.933,3.667,21.4-2.236,1.58,1.669,2.8,4.08,4.11,4.132a61.731,61.731,0,0,0,11.879-1.16c.221-.034.09-2.314.123-3.548l8.412,4.791c-4.195-7.093-4.195-7.093-8.357-4.373" transform="translate(0 -62.45)"/>
      <path id="パス_9918" data-name="パス 9918" d="M632.779,244.946c-4.505,3.319-9.064,1.232-13.592.1-4.268-1.072-8.514-2.233-13-3.416l-5.937,8.641,4.774,3.678L594,262.158l-14-14.685,14.608,2.68c3.591-2.3,5.077-5.846,2.126-10.317l-71.279-14.61c.688,3.162,1.175,5.4,1.989,9.137L514.351,230.5l2.583-7.176c-2.589.225-6.083.076-6.188.6-1.12,5.621-4.98,3.783-7.994,2.972-9.115-2.454-18.129-5.287-27.208-7.881-5.289-1.511-10.574-3.547-15.966-3.958-2.645-.2-5.529,2.764-7.375,3.783l5.377,8.655-6.314,2.7c.952-.807,2.28-1.447,2.74-2.475.379-.847-.269-2.155-.462-3.258-1.1.757-2.7,1.3-3.136,2.336-.342.812.758,2.231,1.216,3.381l-6.432-1.637c.91-3.314,1.8-5.941,2.335-8.637.95-4.763-1.612-8.221-5.545-9.754-6.925-2.7-14.194-4.516-21.3-6.763-17.382-5.5-34.837-10.482-53.047-12.75-6.747-.84-13.187-4.078-19.8-6.115-2.62-.808-5.446-1.514-4.8,3.458-6.867.166-13.13.379-18.111-6.269-1.541-2.057-7.053-.968-10.681-1.663-15.172-2.9-30.8-3.757-45.246-9.964l.033.366c4.783-.225,9.695-1.25,14.326-.515,11.167,1.772,22.118,5.445,33.315,6.327,11.256.886,22.071,3.618,33.073,5.456,13.322,2.225,26.446,5.675,39.622,8.738,19.986,4.647,39.942,9.418,60.955,14.382,1.176-11.491,3.2-22.891,3.231-34.3.025-8.731.417-17.054,2.349-25.654,1.1-4.874-2.113-10.65-3.054-16.077a19.823,19.823,0,0,1,.592-8.772c5.565,4.943,9.157,12.366,8.139,17.791-2.025,10.788.409,21.347-1.089,31.926-1.085,7.657-1.327,15.432-2.026,23.147-.276,3.045-1.146,6.086-1.009,9.1.071,1.554,2.011,4.45,2.675,4.331,6.987-1.248,11.7,4.722,18.617,5.073,10.528.534,20.894,4.15,31.344,6.385q29.681,6.346,59.379,12.609c19.143,4.049,38.3,8.029,57.422,12.177,2.073.449,3.949,1.807,5.917,2.744Z" transform="translate(-73.445 -32.776)"/>
      <path id="パス_9920" data-name="パス 9920" d="M361.073,509.759c3.072,10.564,12.3,16.047,19.752,22.6,11.544,10.15,24.231,19,36.432,28.4l-1.163,1.554L396.74,547.4l-.922,1.184,44.962,42.095-1.846,2.021q-9.765-8.745-19.534-17.486c-2.147-1.916-4.388-3.729-6.5-5.682-9.386-8.67-18.589-17.545-28.164-26-5.466-4.826-11.519-8.987-18.075-14.039-.526,3.577-.928,6.315-1.48,10.074A12.577,12.577,0,0,1,359.3,528.44c-.087-5.862-2.776-9.614-7.313-13.381-16.955-14.076-33.328-28.853-50.155-43.086-4.568-3.863-10.108-6.553-14.927-10.15-2.745-2.05-4.889-4.893-7.382-7.3-5.945-5.733-11.936-11.418-17.272-17.923l12.064,9.3c2.177-6.588,1.985-6.931-9.235-18.843l4.83,2.746c5.932-8.567-2.83-12.609-6.217-18.61,4.735-.617,4.626-3.6,3.8-6.658-2.6-9.6-5.656-19.1-7.843-28.794-.7-3.1-3.322-7.041.7-10.092l-.273.054c5.428,17.444,11.313,34.76,14.283,52.877.286,1.741,1.727,3.327,2.754,4.907,2.659,4.088,3.156,8.5,3.963,13.311,1.543,9.195.544,20.776,13.024,24.849,2.562.836,4.636,3.292,6.82,5.14,7.691,6.5,15.182,13.256,23.084,19.489,2.272,1.793,4.266,6.906,8.932,2.813.208-.182,3.549,3.063,5.316,4.828,4.894,4.884,9.637,9.925,14.622,14.712,2.442,2.345,5.377,3.54,8.588,1.075Z" transform="translate(-70.487 -99.834)"/>
      <path id="パス_9921" data-name="パス 9921" d="M389.23,509.483c.275-14.457-4.5-28.242-5.044-42.665-.55-14.479-2.488-28.9-3.885-44.091,1.643.861,3.077,1.221,3.116,1.692.74,9.086,5.131,17.581,4.022,27.029-.41,3.491.9,7.178,1.383,10.782,1.511,11.285,3.325,22.543,4.341,33.872.406,4.521-.968,9.2-1.532,13.809l-2.4-.428" transform="translate(-103.835 -115.419)"/>
      <path id="パス_9922" data-name="パス 9922" d="M150.492,575.325l2.9-2.717,78.022,16.377q-.016.5-.034,1.008c-2.777.082-5.63.619-8.316.166-11.148-1.878-22.215-4.248-33.375-6.04-5.231-.84-10.614-.687-15.915-1.145-8.145-.7-16.357-1.271-23.144-6.706Z" transform="translate(-41.089 -156.341)"/>
      <path id="パス_9923" data-name="パス 9923" d="M511.933,594.749c1.446,1.43,3.924,2.705,4.166,4.315,1.306,8.7,11.244,13.736,10.066,23.086a62.688,62.688,0,0,1-6.093,19.481c-2.427-7.6-7.289-15.427-6.637-22.758.743-8.358-.742-16.131-1.147-24.16Z" transform="translate(-139.775 -162.377)"/>
      <path id="パス_9924" data-name="パス 9924" d="M249.616,184.585c-13.474,2.145-26.534-4.867-40-1.827-1.759.4-3.22,2.107-4.82,3.209l.358-.04-7.031-1.371c-.035-3.6-.067-7-.109-11.427,1.854.329,4.48.784,7.1,1.265,11.756,2.153,23.544,4.152,35.244,6.578,3.234.67,6.2,2.618,9.293,3.979Z" transform="translate(-54.064 -47.27)"/>
      <path id="パス_9925" data-name="パス 9925" d="M523.888,363.424c3.365,10.682,3.063,43.675-1.646,49.967-.2-17.62-.385-33.645-.568-49.671l2.214-.3" transform="translate(-142.434 -99.227)"/>
      <path id="パス_9926" data-name="パス 9926" d="M318.314,584.707c4.237,14.1,8.54,28.171,12.619,42.312.454,1.573-.374,3.515-.848,7.113-9.443-16.347-11.241-32.745-14.313-48.782l2.543-.643" transform="translate(-86.216 -159.645)"/>
      <path id="パス_9927" data-name="パス 9927" d="M489.663,87.618c-.869.926-1.811,2.713-2.6,2.646-8.54-.731-17.1-1.456-25.544-2.882-2.346-.4-4.3-3.1-6-5.862,11.7,1.294,24.089-2.5,34.175,6.479Z" transform="translate(-124.374 -22.258)"/>
      <path id="パス_9928" data-name="パス 9928" d="M338.658,36.816C346.327,25.988,357.21,26,366.494,22.871c-8.733,4.212-14.353,14.543-27.836,13.945" transform="translate(-92.465 -6.245)"/>
      <path id="パス_9929" data-name="パス 9929" d="M335.991,221.375c-.3,2.214-.606,4.427-1.12,8.183l4.366,4.224-1.179,1.444-40.743-31.394,1.24-1.631,29.622,22.826,5.988-4.882,1.825,1.23" transform="translate(-81.177 -55.208)"/>
      <path id="パス_9930" data-name="パス 9930" d="M671.041,380.275l5.042-5.461c.133,2.73.216,4.443.362,7.459l7.51-5.73,4.7,4.337-6.27,8.137-11.345-8.742" transform="translate(-183.217 -102.337)"/>
      <path id="パス_9931" data-name="パス 9931" d="M523.8,487.216c4.219,9.68,3.945,19.548,2,31.725-2.193-2.9-4.046-4.384-3.786-5.153,2.962-8.733-4.428-18.282,2.147-26.641Z" transform="translate(-142.341 -133.007)"/>
      <path id="パス_9932" data-name="パス 9932" d="M794.414,245.489l14.274,9.466-.308,1.058-6.685-1.2-4.136,8.221.39-.077c-1.833-4.166-3.967-8.239-5.316-12.556-.409-1.309,1.351-3.3,2.117-4.973l-.337.065" transform="translate(-216.399 -67.009)"/>
      <path id="パス_9933" data-name="パス 9933" d="M617.539,341.736c4.126,5.943,4.059,11.575.3,18.766-1.506-2.027-3.533-3.513-3.462-4.89.236-4.521-2.565-9.885,3.159-13.876" transform="translate(-167.615 -93.305)"/>
      <path id="パス_9934" data-name="パス 9934" d="M508.2,561.146c6.166,6.264,4.032,14.432,4.873,21.888.083.742-1.641,1.686-2.526,2.536l.355-.036c-1.381-7.423-2.812-14.838-4.048-22.285-.1-.6,1.133-1.431,1.747-2.154Z" transform="translate(-138.385 -153.198)"/>
      <path id="パス_9935" data-name="パス 9935" d="M305.325,543.517l-8.75-13.053,5.569-3.183,4.616,15.941-1.435.3" transform="translate(-80.975 -143.965)"/>
      <path id="パス_9936" data-name="パス 9936" d="M515.844,87.922l7.45-3.861c8.318,3.176-.284,8.5,1.738,14.4l-9.15-9.709Z" transform="translate(-140.843 -22.951)"/>
      <path id="パス_9937" data-name="パス 9937" d="M497.511,465.662c.936,1.39,2.56,2.722,2.684,4.181a79.84,79.84,0,0,1-.2,15.169c-4.022-5.527-4.49-11.736-2.211-19.286Z" transform="translate(-135.539 -127.141)"/>
      <path id="パス_9938" data-name="パス 9938" d="M333.339,8.482c1.591-7.221,7.64-5.511,12.176-8.482-3.781,10.148-3.908,10.233-12.176,8.482" transform="translate(-91.013)"/>
      <path id="パス_9939" data-name="パス 9939" d="M705.355,333.97c-5.12,6.855-9.692,7.016-17.818.731l17.818-.731" transform="translate(-187.721 -91.185)"/>
      <path id="パス_9940" data-name="パス 9940" d="M500.3,390.985c-.5-5.426-1-10.853-1.547-16.8,6.431,6.411,6.541,8.726,1.273,16.854l.274-.052" transform="translate(-136.176 -102.164)"/>
      <path id="パス_9941" data-name="パス 9941" d="M632.909,501.028c3.655,7.318-3.593,8.2-5.514,12.232l-2.353-1.507,8.309-10.782Z" transform="translate(-170.657 -136.782)"/>
      <path id="パス_9942" data-name="パス 9942" d="M769.437,292.233c9.707.579,14.025,1.8,18.369,6.825l-18.4-7.2.029.377" transform="translate(-210.074 -79.686)"/>
      <path id="パス_9943" data-name="パス 9943" d="M599.97,193.859l-7.078,9.185c.249-9.731.249-9.731,7.078-9.185" transform="translate(-161.879 -52.878)"/>
      <path id="パス_9944" data-name="パス 9944" d="M743.212,234.874c-7.276-5.091-1.087-7.038-.049-10.387,7.457,4.188.179,6.594.049,10.387" transform="translate(-201.968 -61.292)"/>
      <path id="パス_9945" data-name="パス 9945" d="M647.265,466.958l6.569-8.525,1.781,1.2-6.157,8.924-2.193-1.6" transform="translate(-176.725 -125.168)"/>
      <path id="パス_9946" data-name="パス 9946" d="M697.385,396.417l-10.95-3.6c4.942-3.469,8.725-5.417,10.95,3.6" transform="translate(-187.42 -106.459)"/>
      <path id="パス_9947" data-name="パス 9947" d="M499.447,397.348c3.473,4.811,3.09,8.109-1.625,13.993l.422-.066c-1.739-4.9-3.042-9.746,1.478-13.978Z" transform="translate(-135.598 -108.475)"/>
      <path id="パス_9948" data-name="パス 9948" d="M258.782,359.667c-7.139-4.84-7.4-5.667-5.013-15.926l-.378.086,5.119,15.894Z" transform="translate(-68.918 -93.853)"/>
      <path id="パス_9949" data-name="パス 9949" d="M635.45,496.735c-.947-.689-2.76-1.914-2.714-1.99,1.953-3.161,4.071-6.219,6.168-9.29l2.392,1.63-6.288,9.706Z" transform="translate(-172.758 -132.545)"/>
      <path id="パス_9950" data-name="パス 9950" d="M497.949,416.59c4.634,2.426,6.144,5.469,1.839,10.5-2.674-3.75-3.72-6.9-1.417-10.57Z" transform="translate(-135.725 -113.725)"/>
      <path id="パス_9951" data-name="パス 9951" d="M416.036,361.579c-6.87-.968-6.14-5.875-5.854-10.574l5.854,10.574" transform="translate(-111.946 -95.836)"/>
      <path id="パス_9952" data-name="パス 9952" d="M263.955,116.285c3.207-5.284,5.911-2.48,8.868-.958-3.3,3.854-3.3,3.854-8.868.958" transform="translate(-72.069 -30.91)"/>
      <path id="パス_9953" data-name="パス 9953" d="M472.706,239.14c-1.165,1-2.329,2.834-3.5,2.837-2.36.006-4.722-.982-6.88-1.511,4.432-3.228,4.432-3.228,10.383-1.056Z" transform="translate(-126.231 -64.953)"/>
      <path id="パス_9954" data-name="パス 9954" d="M645.076,281.6l-12.084-4.131.484-1.762,12.505,3.05-.905,2.843" transform="translate(-172.828 -75.276)"/>
      <path id="パス_9955" data-name="パス 9955" d="M251.918,339.154c-5.411-2.187-4.683-7.3-6.279-11.312l2.23-.9,3.672,12.3Z" transform="translate(-67.068 -89.266)"/>
      <path id="パス_9956" data-name="パス 9956" d="M508.165,556.506c-5.789-3.009-.814-8.359-2.611-12.219,3.66,3.541,3.809,7.744,2.211,12.27Z" transform="translate(-137.954 -148.609)"/>
      <path id="パス_9957" data-name="パス 9957" d="M556.5,184.72c4.514,1.157,9.854-.437,14.558,4.412-6.493.636-11.468.637-14.627-4.851Z" transform="translate(-151.923 -50.315)"/>
      <path id="パス_9958" data-name="パス 9958" d="M521.1,27.213c-1.306-2.861-5.453-5.449.74-9.759.62,3.535,1.128,6.432,1.636,9.33l-2.376.429" transform="translate(-141.576 -4.766)"/>
      <path id="パス_9959" data-name="パス 9959" d="M617.663,531.081,608.3,543.232l-.714-.543,9.363-12.151.714.543" transform="translate(-165.891 -144.855)"/>
      <path id="パス_9960" data-name="パス 9960" d="M286.467,337.488l8.6-4.128.781,2.032c-2.715,1.919-4.084,8.026-9.454,1.689l.072.408" transform="translate(-78.195 -91.018)"/>
      <path id="パス_9961" data-name="パス 9961" d="M284.233,338.451l-4.858,7.744c-1.623-8.392-1.623-8.392,4.93-7.337Z" transform="translate(-76.033 -92.389)"/>
      <path id="パス_9962" data-name="パス 9962" d="M242.288,115.242c2.039-5.556,3.324-8.421,9.672-4.182l-9.672,4.182" transform="translate(-66.153 -29.768)"/>
      <path id="パス_9963" data-name="パス 9963" d="M244.517,157.821l9.709,7.481-.207.265-9.884-7.616.382-.131" transform="translate(-66.657 -43.09)"/>
      <path id="パス_9964" data-name="パス 9964" d="M373.407,233.651l-4.767-3.263.6-1.168,5.553,2.424-1.384,2.007" transform="translate(-100.651 -62.585)"/>
      <path id="パス_9965" data-name="パス 9965" d="M439.368,320.284l4.008-5.2,1.27.912-4.029,5.228-1.249-.939" transform="translate(-119.962 -86.028)"/>
      <path id="パス_9966" data-name="パス 9966" d="M626.681,329.284l7.254-.758-.181,2.663-7.118-2.3Z" transform="translate(-171.093 -89.699)"/>
      <path id="パス_9967" data-name="パス 9967" d="M497.7,463.47l-1.59-5.012,2.138-1.056,4.93,6.86-5.751-.856.273.063" transform="translate(-135.455 -124.886)"/>
      <path id="パス_9968" data-name="パス 9968" d="M288.711,44.943c.911,3.018,1.42,4.7,2.07,6.855-1.471-.007-2.856.4-3.75-.089-3.905-2.141-1.167-3.74,1.68-6.765" transform="translate(-77.839 -12.271)"/>
      <path id="パス_9969" data-name="パス 9969" d="M657.111,297.324c5.1-3.855,6.235-.74,9.188,3.05l-9.188-3.05" transform="translate(-179.413 -80.697)"/>
      <path id="パス_9970" data-name="パス 9970" d="M375.329,47.075,369.3,54.012c.582-6.423.582-6.423,6.075-6.59l-.047-.347" transform="translate(-100.832 -12.853)"/>
      <path id="パス_9971" data-name="パス 9971" d="M553.253,183.9c-2.417,6.266-5.683.19-8.376,2.462l-.079-3.473,8.524,1.45-.069-.439" transform="translate(-148.748 -49.935)"/>
      <path id="パス_9972" data-name="パス 9972" d="M377.641,45.566c2.366-1.739,2.412-7.912,7.716-4.032l.014.619c-2.13,2.195-3.244,6.963-7.777,3.066Z" transform="translate(-103.096 -10.997)"/>
      <path id="パス_9973" data-name="パス 9973" d="M512.235,90.206c-3.436,3.948-6.542.619-9.751-.444l.038.382,9.674-.772Z" transform="translate(-137.195 -24.401)"/>
      <path id="パス_9974" data-name="パス 9974" d="M597.9,154.225l-3.131-9.04,1.48-.743,4.19,8.967-2.539.816" transform="translate(-162.392 -39.437)"/>
      <path id="パス_9975" data-name="パス 9975" d="M247.2,448.915c6.1.129,6.828,4.02,8.6,6.627l-8.6-6.627" transform="translate(-67.495 -122.569)"/>
      <path id="パス_9976" data-name="パス 9976" d="M398.723,560.588c-3.948-1.578-4.006-4.724-4.1-7.855l2.372-.717q.67,4.314,1.337,8.628Z" transform="translate(-107.745 -150.719)"/>
      <path id="パス_9977" data-name="パス 9977" d="M799.432,269.613c3.909,1.116,7.592,2.366,4.514,7.619l.26-.042c-2.64-1.876-5.8-3.455-4.384-7.654Z" transform="translate(-218.272 -73.592)"/>
      <path id="パス_9978" data-name="パス 9978" d="M756.284,161.61l3.329-4.852L761.6,158.1q-1.664,2.423-3.328,4.846l-1.992-1.341" transform="translate(-206.491 -42.8)"/>
      <path id="パス_9979" data-name="パス 9979" d="M669.025,286.351l7.07,2.287q-.3.859-.595,1.719l-6.953-2.59.478-1.415" transform="translate(-182.536 -78.183)"/>
      <path id="パス_9980" data-name="パス 9980" d="M623.881,328.42c-3.535,2.8-3.535,2.8-7.333-1.6l7.378,2-.045-.4" transform="translate(-168.338 -89.233)"/>
      <path id="パス_9981" data-name="パス 9981" d="M311.361,566.88l4.162,5.508-2.3,1.484q-1.618-3.033-3.237-6.066l1.373-.926" transform="translate(-84.637 -154.777)"/>
      <path id="パス_9982" data-name="パス 9982" d="M524.928,484.793c.088-2.186-3.362-5.571,3.745-6.266l-4.1,6.336Z" transform="translate(-143.115 -130.654)"/>
      <path id="パス_9983" data-name="パス 9983" d="M374.678,315.715l2.541-3.169,5.15,3.969-.427,1.232-7.263-2.032" transform="translate(-102.3 -85.336)"/>
      <path id="パス_9984" data-name="パス 9984" d="M521.21,343.816c-.22-1.192-.7-2.149-.434-2.79.292-.7,1.282-1.1,1.968-1.636.378.957,1.074,1.937,1.006,2.861-.037.5-1.388.893-2.54,1.564" transform="translate(-142.168 -92.665)"/>
      <path id="パス_9985" data-name="パス 9985" d="M476.611,239.878l7.45,2.235-.919,2.145c-2.926.073-5.224-1.22-6.538-4.651Z" transform="translate(-130.129 -65.421)"/>
      <path id="パス_9986" data-name="パス 9986" d="M263.628,53.157c.132,1.826.539,3.014.175,3.339a10.1,10.1,0,0,1-2.928,1.317c-.137-.808-.648-1.85-.323-2.37.494-.792,1.567-1.221,3.076-2.286" transform="translate(-71.11 -14.514)"/>
      <path id="パス_9987" data-name="パス 9987" d="M796.661,191.106l-2.53-4.775,1.067-.739,3.62,4.163-2.157,1.35" transform="translate(-216.824 -50.673)"/>
      <path id="パス_9988" data-name="パス 9988" d="M805.565,280.107l5.186,5.071c-5.875-1.238-5.875-1.238-4.926-5.113Z" transform="translate(-219.89 -76.467)"/>
      <path id="パス_9989" data-name="パス 9989" d="M388.273,41.278l4.184-1.934q.154,1.744.308,3.487l-4.478-.933Z" transform="translate(-106.012 -10.742)"/>
      <path id="パス_9990" data-name="パス 9990" d="M815.122,187.456l-3.756,1.7q-.057-1.57-.113-3.14l3.9,1.811Z" transform="translate(-221.499 -50.789)"/>
      <path id="パス_9991" data-name="パス 9991" d="M657.054,70.289l-2.182-2.555a8.835,8.835,0,0,1,1.46-.807,27.291,27.291,0,0,1,1.738,2.623l-1.016.739" transform="translate(-178.802 -18.272)"/>
      <path id="パス_9992" data-name="パス 9992" d="M367.326,256.552l-4.162-3.207.519-.745,4.449,3.1-.806.849" transform="translate(-99.156 -68.968)"/>
      <path id="パス_9993" data-name="パス 9993" d="M747.907,111.271l-.923,7.273c-3.358-3.025-3.214-5.38,1.2-7.263Z" transform="translate(-203.314 -30.381)"/>
    </g>
  </g>
</svg>
