<svg xmlns="http://www.w3.org/2000/svg" width="561.187" height="485.74" viewBox="0 0 561.187 485.74">
  <g id="グループ_5276" data-name="グループ 5276" transform="translate(-269.117 -3528.596)">
    <g id="_3" data-name="3" transform="translate(392.705 3449.427) rotate(21)" opacity="0.05">
      <path id="パス_9803" data-name="パス 9803" d="M501.286,204.372a33.437,33.437,0,0,0-.586-4.124c-3.609-13.478-7.222-26.954-10.963-40.4a21.343,21.343,0,0,0-2.827-6.13c-2.366-3.5-5.545-6.552-2.946-11.431.465-.873-1.057-2.618-.991-3.926.2-3.915-5.985-6.588-2.127-11.481.379-.481-2.922-4.6-5.115-6.226-5-3.7-10.624-6.559-15.518-10.373-5.61-4.369-10.553-9.589-16.118-14.022-1.548-1.233-3.273-5.668-6.439-1.522-2.148-1.788-4.432-3.437-6.416-5.392-4.258-4.194-8.327-8.579-12.54-12.819-2.056-2.069-4.377-2.669-6.863-.607l.334-.02c-5.681-9.83-13.78-17.367-22.714-24.155-9.865-7.493-19.638-15.107-29.451-22.669l1.082-1.425,18.205,14.028.76-.975L338.245,1.375,339.3,0c17.854,13.639,34.218,28.929,50.189,44.7,5.006,4.944,11.136,8.751,17.546,13.689.478-3.45.816-5.888,1.155-8.327l2.142-.251c.594,3.061,1.313,6.1,1.754,9.186.621,4.336,1.982,7.874,5.943,10.611a254.005,254.005,0,0,1,20.525,15.774c7.637,6.52,14.648,13.774,22.286,20.292,5.619,4.794,11.89,8.816,17.707,13.389,2.185,1.718,3.835,4.1,5.857,6.042,5.137,4.945,10.346,9.815,14.9,15.508l-10.989-8.467c-1.5,9.159,5.171,12.541,9.679,17.634-.916-.417-1.861-.779-2.739-1.265-.99-.549-1.918-1.21-2.728-1.729-4.157.957-2.7,5.373,5.115,16.177-3.2,1.368-4.09,3.55-2.932,6.934,3.057,8.934,6.192,17.863,8.628,26.972.577,2.157-1.466,5.013-2.3,7.549Z" transform="translate(-117.329)"/>
      <path id="パス_9804" data-name="パス 9804" d="M22.315,471.642c2.219,7.986,4.438,15.971,6.574,23.66-3.913-1.488-3.543-1.636-5.335-6.128-3.407-8.54-7.073-17-11.1-25.259-1.1-2.253-3.863-3.7-5.137-4.853-1.259-3.2-2.09-5.83-3.312-8.267A71.355,71.355,0,0,0,0,444.454l5.339,2.939L1.59,436.449l2.119-2.75c3.512,5.064,11.006,24.554,12.573,29.579,1,3.215,3.972,5.817,6.059,8.694Z" transform="translate(0 -150.44)"/>
      <path id="パス_9805" data-name="パス 9805" d="M330.182,60.623c-5.478-.812-2.78-6.041-4.524-8.93-.7-1.16-.472-2.284-2.274-3.33-5.327-3.092-7.144-9.054-4.021-14.1,2.581-4.172,2.009-7.252-.914-10.541l5.3-6.875c.593.607,1.623,1.157,1.713,1.831,1.362,10.227,2.677,20.461,3.832,30.712.42,3.73.393,7.511.57,11.269Z" transform="translate(-110.25 -5.842)"/>
      <path id="パス_9806" data-name="パス 9806" d="M235.282,128.426c.4.4,1.149.8,1.158,1.211.116,5.233-6.153,11.865-11.754,12.539l10.6-13.75" transform="translate(-77.938 -44.548)"/>
      <path id="パス_9807" data-name="パス 9807" d="M42.131,396.463,36.5,392.238l2.119-2.75c1.163,2.3,7.136,2.352,3.279,7Z" transform="translate(-12.662 -135.104)"/>
      <path id="パス_9809" data-name="パス 9809" d="M490.143,367.612c2.012,3.8,5.746,7.06,3.85,12.1l.235-.031c-3.044-5.363-7.968-5.687-13.46-5.657-3.866.021-8.5.577-11.492-4.232l10.437.528.361-2.564c-5.571-1.085-11.1-2.761-16.721-3.115-8.332-.526-16.726-.268-25.086-.061-7.45.184-14.96-1.643-22.353,1.025-8.682,3.133-17.271,1.389-26.241.358-12.233-1.406-24.806.012-37.225.441-8.833.306-17.66.894-26.478,1.523-4.638.331-9.385.53-13.825,1.735-2.5.68-4.638,2.835-3.475,6.676,1.518,5.011-.465,6.815-5.217,5.26-3.755-1.229-7.4-2.8-11.965-4.544-.133,2.609-.221,4.331-.324,6.327-2.513,3.064-23.034-5.633-28.632-12.451l33.815,5.839c1.9-9.821,8.756-18.01,1.031-28.1l9.34-2.929,3.317,16.268,1.411.007,2.471-12.572.978.086q1.673,6.791,3.353,13.61c12.216-1.957,23.827-3.487,35.923-1.665,8.7,1.31,17.8.02,26.715-.259,4.68-.146,9.358-.527,14.018-.992,1.189-.119,2.306-.961,3.456-1.471l2.283-2.847,3.443-3.9c1.288,2.674,2.281,4.734,3.2,6.65,7.352.539,13.982-4.837,21.044-1.75,8.758,3.828,18.113,3.016,26.759,1.882,7.325-.96,14.292-.655,21.428-.22,2.648.161,5.269.75,8.51,1.234l.6-1.855c3.915.47,7.713,1.137,11.535,1.349,15.574.861,31.156,1.558,46.732,2.368,6.374.331,12.737.9,19.114,1.119,1.42.048,3.711-.6,4.1-1.538.458-1.121-.705-2.906-1.175-4.43,4.689,2.556,8.1.546,10.761-3.992a44.407,44.407,0,0,1,5.555-7.677c.536-.579,2.64.291,4.023.5l-.059-.243c2.166,3.071.431,5.359-1.458,7.694-2.11,2.605-4.108,5.3-7.288,9.428,10.735.049,19.726.125,28.719.114,3.891,0,7.78-.219,11.671-.28,4.979-.077,9.96-.1,14.94-.135,4.716-.03,9.749-1.224,13.482,3.844-22.889,4.024-45.742.466-68.872,1.155.385,1.868.6,2.916.818,3.965l-4.421-2.04c-.63.29-1.266.391-1.6.764-5.886,6.623-12.043,13.1-10.056,23.213a5.927,5.927,0,0,1-1.2,4.042c-4,5.518-8.188,10.9-12.309,16.337l.4-.051c.048-6.516,1.314-12.612,8.062-18.009l-10.654-.182c10.422-6.433,9.629-19.735,18.71-27.433-1.993-1-3.158-2.1-4.294-2.068-7.215.183-14.431.986-21.634.866-8.392-.139-16.772-1.012-25.157-1.569-2.714-.181-5.373-1.534-7.987,1.222-.744.784-3.937-.912-6.043-1.223-2.477-.366-5.01-.344-7.487-.706-3.618-.528-1.294,2.62-2.366,3.637l-7.578-4.32c3.794,6.393,3.794,6.393,7.529,3.944" transform="translate(-91.066 -119.656)"/>
      <path id="パス_9810" data-name="パス 9810" d="M79.252,379.262c8.746-2.172,16.6,1.991,25.368,3.878l5.252-7.817-5.727-3.9,11.508-6.345,12.565,13.346-14.429-4.028c-3.347,2.266-4.646,5.309-2.036,9.709L177.3,397.624c-.462-3.68-.726-5.773-.974-7.753l9.242,2.169-2.021,6.371,7.52,1.4c-.312-1.9-.517-3.152-.874-5.334,10.984,3.193,21.545,6.425,32.2,9.285a57.7,57.7,0,0,0,13.695,2.146c1.946.037,3.936-2.31,6.529-3.973l-4.835-2.334c-.834-3.868,1.045-6,4.55-7.1-.856.726-2.049,1.3-2.465,2.223-.342.761.236,1.936.406,2.927.988-.677,2.429-1.163,2.822-2.092.308-.731-.676-2.008-1.085-3.043l4.3,1.091c.639,6.209,1.176,11.432,1.567,15.235,8.3,2.889,14.8,5.407,21.464,7.413,10.538,3.175,21.151,6.107,31.785,8.946,6.169,1.648,12.247,3.162,18.884,3.217,5.1.042,10.136,3.455,15.282,5.117,2.684.867,5.892,1.707,4.2-3.506,6.427,1.114,12.084,1.27,16.58,6.273,1.854,2.063,6.783,3.132,9.53,2.24,5.037-1.635,8.879.662,13.24,1.583,4.942,1.044,10.041,1.351,14.97,2.439,4.158.918,8.17,2.5,12.246,3.784l-.03-.279c-1.45.589-3,1.855-4.333,1.657-7.706-1.146-15.349-2.716-23.039-3.985-6.431-1.061-12.9-1.877-19.345-2.858-5.151-.784-10.334-1.434-15.422-2.524-14.911-3.193-29.793-6.524-44.665-9.9-18.452-4.185-36.882-8.465-56.243-12.915-.406,25.453-7.282,50.7-1.718,77.245-1.34-1.032-3.46-1.81-3.891-3.138-2.7-8.316-5.848-16.67-2.5-25.619a6.231,6.231,0,0,0,.071-2.394c-.721-13.514-1.082-26.991,2.559-40.243,1.362-4.958-.626-8.4-5.538-8.222-6.2.227-10.971-3.911-17.069-4.169-5.774-.244-11.43-2.654-17.205-3.762-5.332-1.023-10.8-1.36-16.123-2.407-6.311-1.241-12.5-3.081-18.808-4.367-9.413-1.921-18.914-3.42-28.312-5.409-7.4-1.565-14.675-3.686-22.044-5.4-8.233-1.916-16.537-3.535-24.752-5.527-2.9-.7-5.625-2.121-8.43-3.212Z" transform="translate(-27.482 -126.636)"/>
      <path id="パス_9811" data-name="パス 9811" d="M591.058,594.035l-13.976.671,1.959,4.416c-6.472,6.248-6.332,15.934-11.379,25.667-1.626-3.373-3.56-5.539-3.076-6.691,2.664-6.348,5.919-12.448,9.029-18.751-5.133-1.283-5.133-1.283-10.264,3.5-3.115-1.483-5.429-7.518-10.12-1.65-.626.783-4.465-1.452-6.845-1.542-10.5-.4-21.023-.438-31.531-.775-7.535-.242-15.06-1.049-22.59-1.069-10.436-.029-20.878.762-31.309.6-8.424-.13-16.835-1.149-25.251-1.773l-.374-2.184,4.253-2.423c-2.639-1.652-3.216-4.473-1.889-7.7,11.8,1.63,23.662,3.413,35.568,4.859,7.224.878,14.518,1.16,21.766,1.857,3.215.309,6.386,1.356,9.591,1.428,12.769.289,25.544.52,38.314.39,9-.091,18.015-1.281,27-1.047,5.105.133,8.939-2.07,13.122-3.992l-.34.008c12.064.576,24.143.958,36.165,2.163a72.807,72.807,0,0,1,8.858,1.974l-.045-.348c-1.3,3.364-3.853,3.228-6.888,2.894-7.9-.871-15.828-1.551-23.763-1.979-2.053-.11-4.171.987-6.258,1.53l.275-.033" transform="translate(-151.006 -202.69)"/>
      <path id="パス_9812" data-name="パス 9812" d="M54.262,434.812c4.1,11.547,9.954,22.816,11.84,34.712,2.229,14.056,6.7,27.344,10.008,41.008.711,2.933,1.844,5.764,3.053,9.472-4.146-.562-6.057-2.006-7.125-5.885-3.09-11.228-4.338-22.905-9.232-33.76-1.483-3.29-1.362-7.135-4.24-10.374-2.1-2.369.506-6.4.174-9.3-.588-5.158-2.914-10.14-4.689-15.133-1.324-3.723-2.919-7.348.511-10.8Z" transform="translate(-18.211 -150.806)"/>
      <path id="パス_9813" data-name="パス 9813" d="M454.4,135.984c1.161,8.894,1.4,18.038,3.742,26.61,2.317,8.485.78,17,2.362,25.431a118.256,118.256,0,0,1,1.521,27.256c-.9-1.953-2.239-3.824-2.619-5.874-2.155-11.586-3.921-23.232-3.57-35.081.016-.561.248-1.262,0-1.663-6.376-10.28-1.024-22.134-4.367-32.843-.34-1.084.926-2.669,1.447-4.021l1.483.184" transform="translate(-156.584 -47.106)"/>
      <path id="パス_9814" data-name="パス 9814" d="M659.306,95.056c-4.047,5.659-9.872,3.674-13.807,1.391-8.7-5.047-18.32-5.5-27.627-7.45-8.018-1.68-16.219-2.468-24.311-3.818a66.92,66.92,0,0,1-7.454-2.113l.47-1.644c11.976,1.73,23.943,3.531,35.933,5.158,4.987.676,10.014,1.188,15.039,1.4A46.151,46.151,0,0,1,659.18,94.21Z" transform="translate(-203.306 -28.243)"/>
      <path id="パス_9815" data-name="パス 9815" d="M619.511,487.9l5.595,1.042,2.516,11.494c-1.827-.3-4.16-.652-6.477-1.082-3.489-.649-7.107-.954-10.424-2.109-10.192-3.547-22.083-.9-31.112-8.579l.03.279c10.381,1.083,20.757,2.209,31.143,3.226,3.791.371,7.394.037,9.014-4.293Z" transform="translate(-201.052 -169.233)"/>
      <path id="パス_9816" data-name="パス 9816" d="M660.007,567.5c-1.385-1.974-2.981-3.327-2.244-6.636.893-4.012-.263-8.476-.508-12.746a15.467,15.467,0,0,1,0-3.051c.4-2.789.916-5.563,1.38-8.312,2.487.735,5.839,2.754,5.39-3.588-.169-2.39,2.044-4.947,3.172-7.428l-.2.123c4.428,3.532.641,7.624.311,11.2-.59,6.37-2.567,12.626-4.15,18.883-.986,3.9-2.313,7.713-3.486,11.565Z" transform="translate(-227.959 -182.367)"/>
      <path id="パス_9817" data-name="パス 9817" d="M324.112,292.383c-5.691-13.621-.581-28.023-3.455-41.821-.176-.85,1.5-2.084,3.582-4.788-.539,9.56,2.239,16.943.117,24.933-1.855,6.982,2.565,14.446-.244,21.676" transform="translate(-111.224 -85.253)"/>
      <path id="パス_9818" data-name="パス 9818" d="M714.825,604.521c-1.235,4.115-4.324,2.439-7.043,2.388-10.02-.187-20.047-.062-30.063-.361-4.8-.143-6.122-3-4.353-7.359l-.275.033c1.82,5.143,6.372,3.085,9.752,3.4,10.641.986,21.324,1.522,31.99,2.232Z" transform="translate(-233.314 -207.845)"/>
      <path id="パス_9819" data-name="パス 9819" d="M515.391,27.464,527.9,72.689c-7.111-3.525-8.1-9.608-7.947-13.72.265-6.954-4.015-12.065-4.8-18.368-.527-4.228-1.854-8.357-2.823-12.53l3.059-.607" transform="translate(-177.716 -9.527)"/>
      <path id="パス_9820" data-name="パス 9820" d="M346.113,586.943c1.136-.79,2.539-2.473,3.365-2.227,6.182,1.854,12.32,2.974,18.869,2.385,4.611-.415,7.563,2.723,10.26,6.653-9.683.192-18.632-.234-27.232-3.026-2-.65-3.546-2.712-5.3-4.125Z" transform="translate(-120.045 -202.816)"/>
      <path id="パス_9821" data-name="パス 9821" d="M672.409,509.84l4.837-15-4.963-9.858-.035.007,5.379,3.654,6.738-8.745c.723,1.7,1.739,2.926,1.516,3.853-.305,1.27-1.668,2.247-2.37,3.469-2.681,4.672-1.988,6.567,4.124,9.634-3.283,1.919-6.394,3.207-8.811,5.3-2.551,2.2-4.44,5.175-6.618,7.811l.2-.123" transform="translate(-233.173 -166.466)"/>
      <path id="パス_9822" data-name="パス 9822" d="M503.761,440.714c.422,6.48-2.86,5.167-6.417,4.515.447-2.351-2.421-5.362,2.225-6.879l-4.46-4.339c.679-.191,1.128-.486,1.384-.366,10.417,4.853,17.274,14.32,26.625,20.581a34.586,34.586,0,0,1,8.83,8.207l-28.186-21.718" transform="translate(-171.741 -150.412)"/>
      <path id="パス_9823" data-name="パス 9823" d="M758.188,335.912c.03-4.292.372-8.042,4.946-10.675,2.714-1.563,4.254-5.163,6.706-8.344l3.862,4.269c-3.408,4.422-6.64,8.68-9.947,12.879-1.444,1.833-2.992,3.716-5.626,1.629Z" transform="translate(-262.977 -109.922)"/>
      <path id="パス_9824" data-name="パス 9824" d="M496.1,637.518c-4.9,9-15.827,7.084-21.871,13.61l-1.028-1.584c3.488-2.708,6.73-5.854,10.536-8,3.634-2.048,5.729-8.984,12.362-4.028" transform="translate(-164.143 -220.533)"/>
      <path id="パス_9825" data-name="パス 9825" d="M323.777,177.215a51.041,51.041,0,0,1-3.563-6.092,10.977,10.977,0,0,1-.709-4.936c.42-5.627,1.066-11.236,1.812-18.728,1.927,3.153,4.265,5.348,3.833,6.542-2.406,6.661-.613,13.05.172,19.567.138,1.146-1.206,2.469-1.866,3.71Z" transform="translate(-110.817 -51.15)"/>
      <path id="パス_9826" data-name="パス 9826" d="M709.16,141.545c.5-1.329.991-2.659,1.6-4.3,6.723,6.516,18.509-.551,24.188,9.589-9.4,1.335-17.192-4.158-25.823-5.536l.031.249" transform="translate(-245.98 -47.606)"/>
      <path id="パス_9827" data-name="パス 9827" d="M48.128,425.82,33.953,416.2q.125-.437.25-.875l6.088,1.065L43.882,409l-.4.086c2.114,4.1,4.458,8.111,6.178,12.37.427,1.056-1.166,2.927-1.83,4.424l.3-.057" transform="translate(-11.777 -141.872)"/>
      <path id="パス_9828" data-name="パス 9828" d="M165.917,297.6c-.207-2.947-.315-4.49-.513-7.321L159,295.723c-5.448-5.38,1.276-7.048,2.264-10.763l9.031,6.96-4.375,5.678" transform="translate(-54.421 -98.846)"/>
      <path id="パス_9829" data-name="パス 9829" d="M632.46,454.909c1.673,1.733,3.865,3.206,4.893,5.262,1.426,2.848,1.961,6.14,2.912,9.231.956,3.107.39,5.583-2.784,7.043l.284-.022c-2.521-4.9-.749-11.458-6.167-15.431-.7-.517.779-4.017,1.249-6.135l-.387.053" transform="translate(-219.022 -157.779)"/>
      <path id="パス_9830" data-name="パス 9830" d="M619.75,308.359l-15.056,8.568-.955-1.04,8.412-10.917,7.6,3.7v-.306" transform="translate(-209.423 -105.787)"/>
      <path id="パス_9831" data-name="パス 9831" d="M664.319,478.418c-2.763-2.848-5.653-5.586-8.25-8.578-2.4-2.765-4.484-5.8-6.821-8.869,9.167,2.268,13.01,9.057,15.036,17.453Z" transform="translate(-225.209 -159.9)"/>
      <path id="パス_9832" data-name="パス 9832" d="M231,312.554c.626,1.652,2.249,3.865,1.694,4.855-1.861,3.321,1.63,8.719-5.224,11.182.519-5.86.961-10.845,1.4-15.83l2.127-.207" transform="translate(-78.903 -108.418)"/>
      <path id="パス_9833" data-name="パス 9833" d="M549.052,142.039c-5.116,3.841-5.291,3.716-7.053-2.539-.776-2.757-2.138-5.349-1.792-8.8l8.845,11.341" transform="translate(-187.366 -45.336)"/>
      <path id="パス_9834" data-name="パス 9834" d="M152.145,340.9c-4.86,3.371-9.586,2.055-14.494.457,3.7-5.232,7.278-5.335,14.494-.457" transform="translate(-47.748 -117.015)"/>
      <path id="パス_9835" data-name="パス 9835" d="M349.279,202.827c-2.343-5.661-4.076-11.361-1.34-18.937,3.769,7.186,5.511,12.9,1.091,18.92Z" transform="translate(-120.207 -63.787)"/>
      <path id="パス_9836" data-name="パス 9836" d="M328.594,586.539l-8.92,2.055-3.008-3.684,4.148-6.6,7.75,7.465Z" transform="translate(-109.844 -200.602)"/>
      <path id="パス_9837" data-name="パス 9837" d="M337.651,105.818c-1.493-6.557-3.055-13.1-4.359-19.695-.114-.579,1.46-1.492,2.25-2.249l-.319.033c2.624,7.137,5.135,14.285,2.069,21.957Z" transform="translate(-115.609 -29.094)"/>
      <path id="パス_9838" data-name="パス 9838" d="M499.348,673.062c2.869-8.461,3.285-8.712,10.177-6.133-2.427,4.053-2.427,4.053-10.177,6.133" transform="translate(-173.212 -230.843)"/>
      <path id="パス_9839" data-name="パス 9839" d="M625.792,436.668l-8.716-1.571,6.365-8.261c3.917,2.059,5.156,5.279,2.051,9.873Z" transform="translate(-214.049 -148.059)"/>
      <path id="パス_9840" data-name="パス 9840" d="M616.19,398.163l6.571,13.4c-8.8-3.359-9.254-4.576-6.335-13.429l-.236.031" transform="translate(-213.264 -138.103)"/>
      <path id="パス_9841" data-name="パス 9841" d="M729.9,595.367c.361-.436.725-1.251,1.082-1.249a99.047,99.047,0,0,1,15.919,1.091c-5.788,2.8-11.468,3.055-17.046-.189Z" transform="translate(-253.17 -206.085)"/>
      <path id="パス_9842" data-name="パス 9842" d="M346.508,281.318c3.689,4.772,2.081,9.781.3,16.083-1.294-6.2-5.357-11.035-.051-16.13Z" transform="translate(-119.36 -97.567)"/>
      <path id="パス_9843" data-name="パス 9843" d="M252.733,470.968c-.067,4.54-.106,7.267-.154,10.543l-7.049-1.2,7.2-9.347" transform="translate(-85.169 -163.368)"/>
      <path id="パス_9844" data-name="パス 9844" d="M737.251,607c5.13-2.665,9.95-1.954,15.6,1.407-6.039.5-11.2,2.673-15.606-1.738Z" transform="translate(-255.732 -209.988)"/>
      <path id="パス_9845" data-name="パス 9845" d="M703.529,141.561c-4.621,3.6-4.621,3.6-10.544-3.1,4.542-1.321,7.731.419,10.575,3.354Z" transform="translate(-240.38 -47.872)"/>
      <path id="パス_9846" data-name="パス 9846" d="M227.457,377.447l12.134,4.079c-8.27,2.743-8.27,2.743-12.134-4.079" transform="translate(-78.899 -130.927)"/>
      <path id="パス_9847" data-name="パス 9847" d="M214.848,173.387c-3.047-6.158,2.449-7.624,5.134-10.633l1.559.95-7.035,9.692Z" transform="translate(-74.215 -56.455)"/>
      <path id="パス_9848" data-name="パス 9848" d="M587.5,312.963c6.944,3.119,7.753,8.673,6.043,15.224l.336-.037-6.133-15.235Z" transform="translate(-203.79 -108.543)"/>
      <path id="パス_9849" data-name="パス 9849" d="M70.119,383.25A31.729,31.729,0,0,1,52.973,379.2q.265-.826.532-1.651l16.641,6.037Z" transform="translate(-18.375 -130.964)"/>
      <path id="パス_9850" data-name="パス 9850" d="M431.4,310.422c5.386,2.963,5.273,7.794,7.912,12.765-5.129-3.5-7.619-6.8-7.912-12.765" transform="translate(-149.641 -107.678)"/>
      <path id="パス_9851" data-name="パス 9851" d="M197.494,207.906l-5.913,7.673-1.353-.989,5.914-7.675,1.351.991" transform="translate(-65.986 -71.774)"/>
      <path id="パス_9852" data-name="パス 9852" d="M339.3,117.518c4.4,3.535,4.644,8.139,3.382,13.13l.348-.039c-4.307-3.563-4.509-8.179-3.371-13.137Z" transform="translate(-117.614 -40.749)"/>
      <path id="パス_9853" data-name="パス 9853" d="M383.5,436.625c-3.862,1.136-8.132,4.4-11.8-2.3l11.8,2.3" transform="translate(-128.934 -150.655)"/>
      <path id="パス_9854" data-name="パス 9854" d="M716.428,174.788l8.668,8.295c-5.921,1.067-6.092.9-8.668-8.295" transform="translate(-248.512 -60.63)"/>
      <path id="パス_9855" data-name="パス 9855" d="M347.068,274.595c-3.119-4.324-2.774-7.287,1.462-12.573l-.378.061c1.552,4.4,2.741,8.758-1.331,12.558Z" transform="translate(-119.672 -90.889)"/>
      <path id="パス_9856" data-name="パス 9856" d="M558.649,340.168l-10.7,4.4c4.164-8.288,4.886-8.456,10.777-4.1Z" transform="translate(-190.069 -117.118)"/>
      <path id="パス_9857" data-name="パス 9857" d="M628.466,395.712l2.313-12.048c3.379,6.236,3.379,6.236-2.313,12.048" transform="translate(-218 -133.084)"/>
      <path id="パス_9858" data-name="パス 9858" d="M698.336,468.232l-7.895,6.83c-2.475-3.9.947-5.376,2.425-7.105.564-.658,2.763.083,5.47.275" transform="translate(-239.195 -162.23)"/>
      <path id="パス_9859" data-name="パス 9859" d="M735.864,509.484l-10.88-1.574q.166-1.259.33-2.517l10.875,1.7q-.162,1.2-.324,2.39" transform="translate(-251.48 -175.309)"/>
      <path id="パス_9860" data-name="パス 9860" d="M593.541,564.74l9.021-.461c-3.093,5.988-3.093,5.988-9.021.461" transform="translate(-205.885 -195.735)"/>
      <path id="パス_9861" data-name="パス 9861" d="M778.81,286.79l-7.706-8.783,1.958-1.657q3.648,4.555,7.3,9.108l-1.55,1.332" transform="translate(-267.478 -95.859)"/>
      <path id="パス_9862" data-name="パス 9862" d="M285.129,491.515c-4.559.841-8.8.559-13.225-4.232,5.7.686,10.393-.2,13.288,4.626Z" transform="translate(-94.317 -169.027)"/>
      <path id="パス_9863" data-name="パス 9863" d="M605.2,234.623l8.3,8.928-1.428,1.313-8.118-9.089,1.249-1.153" transform="translate(-209.497 -81.385)"/>
      <path id="パス_9864" data-name="パス 9864" d="M596.641,336.279l4.7,9.033c-4.585-1.83-5.758-4.982-4.368-9.071Z" transform="translate(-206.886 -116.634)"/>
      <path id="パス_9865" data-name="パス 9865" d="M248.225,520.71l4.439,9.093-1.419.8-5.283-9.089,2.263-.8" transform="translate(-85.318 -180.622)"/>
      <path id="パス_9866" data-name="パス 9866" d="M713.54,348.644l-7.5-7.961.884-.838,7.895,8.22-1.277.579" transform="translate(-244.908 -117.884)"/>
      <path id="パス_9867" data-name="パス 9867" d="M210.051,401.034l-9.632-1.985q.2-.924.393-1.848l9.742,2.04-.5,1.793" transform="translate(-69.521 -137.78)"/>
      <path id="パス_9868" data-name="パス 9868" d="M698.851,449.884c5.329,4.378-.05,5.178-3.3,6.587l3.695-6.638-.4.051" transform="translate(-241.27 -156.036)"/>
      <path id="パス_9869" data-name="パス 9869" d="M222.31,348.4c4.266-3.19,4.266-3.19,7.187,2.893l-7.228-3.284Z" transform="translate(-77.1 -120.117)"/>
      <path id="パス_9870" data-name="パス 9870" d="M472.727,443.666l4.882,2.948-.843,1.6-5.287-2.846,1.247-1.7" transform="translate(-163.545 -153.897)"/>
      <path id="パス_9871" data-name="パス 9871" d="M348.674,258.146c-5.114-1.957-3.56-4.6.215-7.3q-.3,3.68-.593,7.359Z" transform="translate(-119.817 -87.013)"/>
      <path id="パス_9872" data-name="パス 9872" d="M574.426,560.1l6.828-1.039c-1.7,5.194-3.872,4.911-6.322,3.674q-.253-1.318-.507-2.635" transform="translate(-199.255 -193.923)"/>
      <path id="パス_9873" data-name="パス 9873" d="M105.243,439.738c2.006,5.793-.63,7.143-4.131,8.054l4.131-8.054" transform="translate(-35.073 -152.535)"/>
      <path id="パス_9874" data-name="パス 9874" d="M292.216,492.937c2.173-5.426,5.051-.9,7.58-1.3q.007,1.1.014,2.2l-7.656-1.286.063.393" transform="translate(-101.341 -170.055)"/>
      <path id="パス_9875" data-name="パス 9875" d="M345.614,158.682l-2.531-6.082,1.473-.747,3.106,5.8-2.048,1.033" transform="translate(-119.007 -52.675)"/>
      <path id="パス_9876" data-name="パス 9876" d="M479.315,625.844l-4.9,3.944c-.5-.97-1.035-1.549-.909-1.856.8-1.967,1.356-4.55,5.8-2.088" transform="translate(-164.243 -216.741)"/>
      <path id="パス_9877" data-name="パス 9877" d="M628.254,307.509l5.294-5.872c.372,5.345-2.8,5.045-5.295,5.566Z" transform="translate(-217.926 -104.631)"/>
      <path id="パス_9878" data-name="パス 9878" d="M632.055,450.358c-1.244-2.688-4.436-4.9-2.082-8.468l-.3.041c2.537,2.387,5.607,4.649,2,8.48Z" transform="translate(-218.23 -153.281)"/>
      <path id="パス_9879" data-name="パス 9879" d="M327.366,649.825q.045,3.342.09,6.684l-2.848-.061q.283-3.321.568-6.642l2.191.02" transform="translate(-112.599 -225.402)"/>
      <path id="パス_9880" data-name="パス 9880" d="M84.915,517.56l3.157-4.1,1.61.99-2.716,4.5-2.051-1.4" transform="translate(-29.455 -178.108)"/>
      <path id="パス_9881" data-name="パス 9881" d="M101.177,564.393c-.46-2.432-.919-4.863-1.688-8.933,3.607,3.883,6.416,6.213,1.343,9l.344-.063" transform="translate(-34.51 -192.676)"/>
      <path id="パス_9882" data-name="パス 9882" d="M603.3,520.105l-6.463-4.981.153-.2,6.464,4.981-.153.2" transform="translate(-207.028 -178.617)"/>
      <path id="パス_9883" data-name="パス 9883" d="M408.177,356.293l-4.667,5.266c.52-5.323.52-5.323,4.715-4.871l-.048-.395" transform="translate(-139.968 -123.59)"/>
      <path id="パス_9884" data-name="パス 9884" d="M594.548,227.195l-3.928-5.067q.431-.4.863-.8l5.146,4.52-2.081,1.344" transform="translate(-204.872 -76.774)"/>
      <path id="パス_9885" data-name="パス 9885" d="M169.844,387.221l6.525,2.537-.615,1.532-6.484-2.644.574-1.425" transform="translate(-58.716 -134.318)"/>
      <path id="パス_9886" data-name="パス 9886" d="M348.845,212.86c2.291,1.87,2.14,3.558-.743,5.511-1.592-2.394-4.226-4.431.993-5.495Z" transform="translate(-120.022 -73.836)"/>
      <path id="パス_9887" data-name="パス 9887" d="M323.785,193.082c-.088,1.961,3.015,5.007-3.368,5.625l3.688-5.687Z" transform="translate(-111.145 -66.954)"/>
      <path id="パス_9888" data-name="パス 9888" d="M583.255,619.344l2.854-.254a8.914,8.914,0,0,1-.172,2.832c-.131.344-1.844.56-1.962.348a11.251,11.251,0,0,1-.72-2.926" transform="translate(-202.317 -214.748)"/>
      <path id="パス_9889" data-name="パス 9889" d="M183.313,378.711l3.564,1.186a11.8,11.8,0,0,1-.928,1.962,26.326,26.326,0,0,1-3.348-1.351l.712-1.8" transform="translate(-63.34 -131.366)"/>
      <path id="パス_9890" data-name="パス 9890" d="M351.517,523.11,353,527.57l-.706.454-2.951-3.782,2.179-1.132" transform="translate(-121.177 -181.454)"/>
      <path id="パス_9891" data-name="パス 9891" d="M564.406,338.413l3.347-6.691c.28,5.3.28,5.3-3.418,6.395l.072.3" transform="translate(-195.754 -115.066)"/>
      <path id="パス_9892" data-name="パス 9892" d="M343.881,137.626c.491,2.116.982,4.232,1.829,7.883-3.779-3.324-4.081-5.477-1.481-7.922Z" transform="translate(-118.816 -47.726)"/>
      <path id="パス_9893" data-name="パス 9893" d="M420.67,301.073l3.445,1.2-.8,1.857-3-2.315.361-.747" transform="translate(-145.795 -104.435)"/>
      <path id="パス_9894" data-name="パス 9894" d="M457.121,633.673c.673,1.366,1.37,2.721,1.928,4.132.023.058-1.266.635-1.944.97l-1.924-4.023,1.94-1.079" transform="translate(-157.891 -219.806)"/>
      <path id="パス_9895" data-name="パス 9895" d="M616.253,291.035l-4.074,4.8c.131-4.5.131-4.5,4.121-4.448Z" transform="translate(-212.35 -100.953)"/>
      <path id="パス_9896" data-name="パス 9896" d="M211.889,179.042c1.556,4.475-2.542,5.753-4.07,8.484l-1.411-.935,5.823-7.557Z" transform="translate(-71.598 -62.103)"/>
      <path id="パス_9897" data-name="パス 9897" d="M410.7,355.9c2.8-3.155,4.042-2.282,4.4,2.334l-4.451-2.728Z" transform="translate(-142.447 -122.806)"/>
      <path id="パス_9898" data-name="パス 9898" d="M773.915,609.326l-6.561-.5c3.231-1.993,3.231-1.993,6.561.5" transform="translate(-266.177 -210.687)"/>
      <path id="パス_9899" data-name="パス 9899" d="M101.546,569.2l4.575,3.076c-3.981.32-3.981.32-4.231-3.14Z" transform="translate(-35.224 -197.42)"/>
      <path id="パス_9900" data-name="パス 9900" d="M647.573,299.055l-4.155,3.452c.94-4.454.94-4.454,4.2-3.1Z" transform="translate(-223.186 -103.583)"/>
      <path id="パス_9901" data-name="パス 9901" d="M342.192,587.618c-1.948,2.338-3.947,4.5-7.28,2.149l-.03-.765,7.349-1.045Z" transform="translate(-116.163 -203.831)"/>
      <path id="パス_9902" data-name="パス 9902" d="M219.806,348.464l-4.64,1.287q0-1.077,0-2.155l4.676,1.258-.041-.391" transform="translate(-74.636 -120.573)"/>
      <path id="パス_9903" data-name="パス 9903" d="M450.648,116.236l2.846,5.859c-4.863-.922-3.238-3.5-2.511-5.88Z" transform="translate(-156.139 -40.312)"/>
      <path id="パス_9904" data-name="パス 9904" d="M323.7,334.138l2.416.119a13.984,13.984,0,0,1-.672,2.9c-.068.157-1.829-.017-2.027-.42-.289-.592.127-1.528.283-2.6" transform="translate(-112.153 -115.905)"/>
      <path id="パス_9905" data-name="パス 9905" d="M479.63,420.865l4.509,3.475-.464.612-4.753-3.662.708-.425" transform="translate(-166.127 -145.988)"/>
      <path id="パス_9906" data-name="パス 9906" d="M44.142,400.194l2.463,5.825.4-.086c-3.341-.8-5.668-2.059-2.635-5.767Z" transform="translate(-14.903 -138.808)"/>
      <path id="パス_9907" data-name="パス 9907" d="M533.383,102.35l2.521,5.4-1.108.738-3.8-4.93,2.389-1.2" transform="translate(-184.189 -35.503)"/>
      <path id="パス_9908" data-name="パス 9908" d="M665.2,130.532l4.3,1.151-.677,2.281-4.1-2.215.47-1.217" transform="translate(-230.578 -45.278)"/>
      <path id="パス_9909" data-name="パス 9909" d="M51.375,490.686l-2.488-4.126a8.058,8.058,0,0,1,1.325-.632c.889,1.27,1.687,2.6,2.5,3.922l-1.341.836" transform="translate(-16.958 -168.555)"/>
      <path id="パス_9910" data-name="パス 9910" d="M470.325,360.762q-1.142,1.424-2.282,2.847l-4.629-3.566q.191-.554.382-1.106l6.529,1.825" transform="translate(-160.747 -124.507)"/>
      <path id="パス_9911" data-name="パス 9911" d="M34.193,491.157l2.59-2.152.95,3.35-3.565-1.528Z" transform="translate(-11.852 -169.624)"/>
      <path id="パス_9912" data-name="パス 9912" d="M193.077,611.495q-1.175-1.61-2.348-3.219l.709-.6,2.777,2.867-1.138.954" transform="translate(-66.159 -210.788)"/>
      <path id="パス_9913" data-name="パス 9913" d="M559.019,630.134,558,625.874c3.543.877,3.543.877,1.021,4.26" transform="translate(-193.556 -217.101)"/>
    </g>
  </g>
</svg>
