<svg xmlns="http://www.w3.org/2000/svg" width="602.901" height="237.556" viewBox="0 0 602.901 237.556">
  <g id="title" transform="translate(-528.857 -2537.138)">
    <path id="パス_10008" data-name="パス 10008" d="M19.068,2.184h7.084V-1.568H22.4V-19.712h3.752v-3.752H19.068Zm13.216-.9h5.628c5.768-.112,8.428-3.108,8.4-9.464H55.5v-4.34H46.312V-15.6c5.152-.084,7.644-2.184,8.456-7.168h-5.32C49-20.384,48.3-20.048,43.82-19.992H33.1v4.4h8.176v3.08H31.164v4.34H41.272c.112,3.612-.98,4.844-4.256,4.9H32.284ZM62.272,1.4h7.56c5.32-.056,8.792-3.7,8.82-9.3V-13.1h6.132v-4.564H69.692A28.363,28.363,0,0,0,70.784-22.9h-5.1c-.532,6.3-1.764,8.652-5.1,9.828v5.012c3.948-1.148,5.8-2.464,7.224-5.04H73.5V-7.9c-.112,3.36-1.848,5.012-5.264,4.928H62.272Zm29.2-.252H102.2c7,0,10.3-3.612,10.3-11.368v-8.988h-4.592v8.6c.168,5.264-1.484,7.336-6.02,7.5H91.476Zm.84-10.5h4.816c-.784-3.64-1.316-5.824-2.38-9.716H90.328A87.7,87.7,0,0,1,92.316-9.352Zm7.42,0h4.788c-.5-2.66-1.372-6.216-2.38-9.716H97.608C98.588-15.288,98.98-13.524,99.736-9.352Zm23.24,11.116H128.1V-10.528A114.285,114.285,0,0,1,141.12-6.72V-11.9a115.789,115.789,0,0,0-13.02-3.668v-7.476h-5.124Zm28.812.448h4.228V-12.824l1.876,2.3v-2.016H174.02v-2.884h-5.964v-.7H172.9V-18.62h-4.844v-.868h5.6v-2.744h-5.6v-1.232h-4.284v1.232H158.34v2.744h5.432v.868H158.7v2.492h5.068v.7h-5.88v-.588l-1.876-1.736v-5.824h-4.228Zm-4.2-11.452H150.7a27.064,27.064,0,0,0,.56-6.664v-2.072h-2.968v2.716A17.9,17.9,0,0,1,147.588-9.24ZM166.964,2.1h2.3c2.8-.112,3.724-1.092,3.64-3.892V-11.956H158.76V1.932h4.228v-4.62h5.488V-1.6h-1.512ZM162.988-8.4v-.924h5.488V-8.4Zm0,3.36V-6.132h5.488V-5.04Zm14.364-11.536v3.584h1.764l.644,2.184H177.6v3.752h4.676v1.288h-4.032v3.64h4.032V2.24h4.2V-2.128h3.612v-3.64H186.48V-7.056h3.864v-3.752h-1.26l.364-2.184h1.12v-3.584H186.48v-1.512h3.612v-3.444H186.48V-23.52h-4.2v1.988h-4.032v3.444h4.032v1.512Zm13.832-6.356V2.24h4.172v-9.6a14.242,14.242,0,0,0,1.6,3.808A5.567,5.567,0,0,1,195.86-2.52V2.1a8.123,8.123,0,0,0,3.556-2.492,10.912,10.912,0,0,0,3.864,2.52V-2.688a5.665,5.665,0,0,1-1.736-1.26c.924-2.156,1.428-4.228,1.456-9.016h-7.644v-6.272h3.136v1.708h-1.96v3.388H199c2.828,0,3.7-.7,3.7-3.024v-5.768Zm-7.56,12.124-.364-2.184h2.24l-.364,2.184Zm15.82,1.232a16.811,16.811,0,0,1-.5,2.828A23.9,23.9,0,0,1,197.9-9.576Zm8.2,11.76h7.084V-23.464h-7.084v3.752H211.4V-1.568h-3.752Z" transform="translate(871.711 2770.694)" fill="#040000"/>
    <path id="Ticket" d="M1377.332,5356.036c-4.667-5.45.053-11.515.874-16.108a82.736,82.736,0,0,1,4.048-11.456c.922-1.96,2.656-3.2,3.2-4.865.586-1.448.44-4.295,1.069-5.531.71-1.917,2.4-3.373,3.154-5.077,2.1-3.752,5.335-9.51,6.4-15.04,5.034-3.474,7.208-9.012,9.982-13.789,2.986-4.821,5.972-9.642,8.745-14.418,7.3-8.588,14.036-17.724,17.191-29.218,1.771-2.135,4.61-3.386,5.1-6.364-.008-1.1,1.99-1.075,1.727-2.348l4.031-.833c5.742,7.442.392,14.742-2.381,19.519-1.127,3.109-3.279,5.544-4.662,8.485.227,2.166-3.431,1.595-3.417,3.8,1.418,2.583-1.471,2.517-1.076,4.426-3.805,3-5.137,7.256-8.474,10.379a39.241,39.241,0,0,0-2.8,7.88c-5.166,2.836-6.023,8.324-8.928,12.464a103.719,103.719,0,0,0-7.859,13.351c-4.12,6.826-8.284,13.438-10.612,21.441-1.39,1.836-.432,5.4-4.039,6.145,1.257,3.943-.557,5.867,1.256,10.359-2.819,2.115-5.522,7.191-10.2,7.19A7.37,7.37,0,0,1,1377.332,5356.036Zm80.173-21a16.37,16.37,0,0,1-1.293-9.467c1.076-4.426,4.583-14.22,7.451-17.469,5.437-6.876,10.187-21.353,16.136-27.892.154-2.466,2.313-3.8,4.259-5.083-.4-3.015,2.569-3.629,2.979-5.927a50.122,50.122,0,0,0,4.215-5.3c1.734-1.243.439-4.294,4.478-4.022,4.156-1.3,3.723,4.1,6.364,5.1.255,6.584-5.891,8.96-6.4,15.04-4.91,3.006-4.655,9.591-8.072,13.395-4.866,3.218-7.6,14.623-11.65,18.557-1.625,4.982-7.046,7.652-6.58,14.193,4.813,1.881,10.433-3.042,12.709-5.946,7.506-2.215,12.745-6.838,17.86-10.993,4.9-4.11,9.512-7.5,14.37-11.819,3.893-2.575,3.279-5.544,6.447-8.413,4.18-2.187,7.626-6.86,12.814-8.4,2.216-4.834,4.373-9.679,7.61-13.746,9.133-13.614,20.841-29.75,44.8-30.5,6.072,5.825,9.954,14.979,14.386,23.575-2.165.227.322,3.694-.008,5.312-2.231,3.116-6.14,9.9-13.6,5.909-.139-1.741-1.126-3.307-1.053-5.092-.065-3.526,3.316-6.437,1.707-12.079-.438-2.122-1.763-3.175-3.138-5.546-5.326-2.217-10.593-2.014-15.5,2.1,1.5,1.9,1.5,1.9-.842,1.28s-1.134,2-1.727,2.349c-.548.556-2.165.227-2.97.613-1.1,1.112-1.932,3.5-4.653,3.175-.329,1.617-2.364,2.479-3.417,3.8-.673,1.023.372,5.011-3.374,4.016.7,3.395-1.413,4.938-2.972,7.029-.008,5.312-6.117,6.8-5.781,12.7-2.415,1.163-3.08,3.292-4.259,5.084-.411,8.713-5.284,10.826-.208,20.4,3.306,5.291,9.305,6.485,15.26,7.465,11.114-2.961,23.507-5.08,30.78-10.565,2.919-1.931,7.119-3.021,9.57-5.076,6.863-3.188,10.6-9.714,17.465-12.9q1.56-1.343,3.195-2.693c2.574-6.781,3.535-11.893,7.565-15.9a4.238,4.238,0,0,1-.52-1.441c-.657-3.183,2.569-3.628,1.911-6.811l-.132-.636c4.478-4.023,1.655-6.979,6.389-10.834-.922-4.455,4.009-4.146,3.6-8.266,1.7-.351.234-3.145,1.931-3.5l.425-.088c.118-1.572,2.115-1.543,1.764-3.24a3.228,3.228,0,0,0-.476-1.229c5.166-2.838,5.979-8.537,9.14-12.509,5.006-7.892,8.05-16.708,14.037-24.14.673-1.024,3.717-3.423,3.5-4.484-.087-.424-.432-1.018-.476-1.229-.132-.636,2.751-1.674,3.549-3.167,1.053-1.324,1.551-3.2,2.349-4.689,4.448-2.025,8.167-11.865,13.179-18.653,0,0,2.562-4.733,5.107-5.259,3.55-9.583,12.521-15.42,16.159-24.579,3.724-2.319,5.656-5.816,8.912-8.259,2.532-2.735,2.964-8.135,8.693-9.319,2.546-.526,2.685,1.215,5.75,2.13.841,5.137-3.139,7.286-5.116,10.571-4.187,9.715-17.131,25.222-16.385,28.829l-2.97.614c-8.063,1.667-5.43,7.981-10.946,9.122a9.563,9.563,0,0,1-2.21.013c-1.01,1.537.541,4.756-.637,6.547-5.759,3.182-6.609,9.774-11.086,13.8-4.2,7.5-9.937,14-14.651,21.169-.022,3.1-2.261,5.114-3.82,7.206-3.285,4.44-4.772,11.163-9.982,13.789-2.928,7.243-5.812,14.7-10.444,21.185-2.239,2.012-4.705,8.274-4.662,8.486,9.249-8.771,18.074-17.453,25.67-25.66,2.531-2.735,4.12-6.824,8.956-8.045,2.034-.864,1.34-3.154,3.154-5.078,1.266-1.367,4.068-1.726,5.758-3.181,5.239-4.623,12.5-12.318,24.8-14.862,5.092-1.053,10.279-.576,11.945,7.486a39.7,39.7,0,0,1-.288,14.662c-2.4,3.372-6.081,5.9-7.456,9.948l-.849.175c-2.758.571-3.717,3.423-5.707,4.5-1.946,1.287-4.448,2.025-6.607,3.356-.973.644-1.558,2.092-2.744,2.78-3.512,2.274-9.57,5.076-16.133,8.644-5.971,3.226-17.164,6.867-15.916,16.122,2.4,9.46,13.254,12.747,18.558,11.65,20.369-4.21,43.893-26.329,54.548-41.143a43.723,43.723,0,0,0,4.592-3.9c.617-2.769,1.44-5.264,2.463-5.962.447-3.19.85-6.591,3.6-8.267,1.15-6.211,6.352-9.94,8.314-15.435,5.2-3.731,10.192-7.417,13.347-12.494,7.557-.9,9.738-5.331,16.784-6.567,3.453,1.721,4.235,4.435,4.857,8.51.351,1.7-.162,1.361-.411,2.3-.542,1.662.629,5.18-.674,7.44,1.711,8.275-4.254,19.021-3.355,26.579-2.664,2.1-3.864,6.993-5.292,9.722s-4.222,4.192-4.925,7.213c-4.529,2.705-6.286,7.051-10.815,9.756,3.753,2.1,9.108,2.322,12.254,2.557l2.122-.439c11.113-2.961,26.428-13.428,33.979-21.846a51.167,51.167,0,0,1,6.936-5.975c.045-.851.1-1.708.148-2.569,1.45-5.831,1-15.473,3.405-18.845,3.382-9.328,4.715-20,9.165-28.443-1.836-1.39-5.4-.433-8.494.649-2.246.907-7.119,3.02-11.656,4.622-6.446,2-14.487,6.977-18.056.414-1.257-3.944,4.866-3.218,6.381-5.523,1.558-2.092,6.4-2.208,7.448-4.636,10.477-2.83,19.93-6.332,29.895-9.5,1.654-.563,2.788-2.567,3.418-3.8.461-.98-.014-2.209.447-3.189,1.091-2.216,4.844-6.533,6.352-9.941,3.191-5.969,5.189-12.355,7.868-18.662,3.081-3.292,1.341-9.568,8.518-10.167,4.243-.878,2.34,7.039,5.068,8.464-3.03,11.025-10.714,18.809-11.7,31.179.536,1.264,2.407.714,4.287.164a9.791,9.791,0,0,1,3.146-.595c23.113-6.989,47.93-13.225,71.086-20,2.81.747,6.767,1.7,4.879,5.407-5.217,1.521-9.541,3.078-9.373,2.822-5.985,1.017-9.409,3.715-16.118,4.438-3.929,3.467-8.311,2.6-13.6,5.909-3.988,1.045-7.638,1.579-10.36,1.256-6.344,4.63-7.471,1.323-14.033,4.892-2.795,1.463-2.795,1.463-5.941,1.228a26.807,26.807,0,0,1-5.715,3.394,7.983,7.983,0,0,1-3.566-.109c-2.692-.414-5.9-.826-7.679,2.434.651,2.078-3.519,1.169-4.872,2.113-1.107,6.424-6.009,10.534-7.027,17.381-4.346,4.66-2.65,10.726-7.465,15.261.782,2.715-1.925,4.6-2.76,6.985-1.046,2.43-.345,5.824-2.583,7.836.393,8.326-1.642,15.6,3.588,22.708,2.685,1.216,4.521,2.605,6.986,2.76.892.037.812.717,1.068.886,7.447,1.78,16.125-3.333,23.332-5.929,3.007-1.506,7.924-3.408,10.7-7.08.167-.256,5.114-4.155,5.327-4.2,1.521-1.2,2.488-2.948,4.222-4.191,1.566-.988,4.324-1.558,5.934-2.333.578-2.553,4.529-2.706,7.412-3.745,3.708,1.889.072,4.631,2.464,6.571-4.61,3.386-6.373,6.627-9.417,9.027-1.9,1.5-4.852,5.427-8.028,7.189a20.592,20.592,0,0,0-4.061,2.831c-1.185.687-1.222,1.581-3.636,2.743-1.186.688-4.742,2.749-6.563,3.569-1.413.708-1.481.6-1.595.493s-.316-.243-2.561.809a18.1,18.1,0,0,0-5.714,3.394c-4.851-.989-12.27,1.65-18.467,2.71-1.711-1.858-4.937-1.413-7.871-1.691-3.424-3.717-9.729-6.4-12.281-13.39q-.089-.234-.171-.469c-9.06,8.833-24.122,20.438-34.907,23.427-13.191,3.612-26.155,2.973-35.358-.876-5.012.372-7.893-5.006-8.258-8.913-.85-2-1.856-4.241-2.626-6.612-6.8,6.717-14.493,13.394-20.437,18.237-1.888,3.709-6.5,5.99-11.041,7.592-6.731,3.825-14.743,6.809-21.219,10.8l-1.7.351c-12.73,2.631-21.954-4.533-29.547-9.157-1.77-4.281-4.937-7.83-5.376-9.952a13.142,13.142,0,0,1-.243-1.771c-3.188,5.046-9.424,10.915-13.032,12.479-.572.5-1.172,1.025-1.791,1.554-2.756,5.143-8.086,10.345-10.078,15.944-2.255,6.218-5.093,7.468-6.828,15.127a2.73,2.73,0,0,1-.661.025,2.718,2.718,0,0,0-.656.026c-2.97.614-4.61,3.387-6.944,3.87-2.758.57-4.689-2.351-5.083-4.259a15.027,15.027,0,0,1,1.006-7.793,9.752,9.752,0,0,0-1.767,1.977c-1.565.987-6.2-.044-5.721,2.289-.285,1.83-4.923.8-4.7,2.962-7.726,1.154-12.724,3.736-17.889,6.573-8.53,1.542-17.31,4.021-24.619,3.983-3.665-1.676-6.781-3.908-11.456-4.047-1.25-2.839-2.545-5.891-5.522-6.38-1.191-6.833-2.5-5.678-3.355-13.023a20.674,20.674,0,0,1,.349-5.267q-.591.512-1.227,1.022c-1.047,2.429-4.222,4.192-5.525,6.452-2.1,3.753-11.355,5-12.768,9.939-.732-1.4-6.651,3.145-6.6,4.462-4.523,3.811-11.092,6.276-16.126,9.749-.578,2.554-2.883,1.039-4.873,2.114-.38.3-2.151,2.436-2.531,2.736-5.129,1.945-10.865,2.024-15.1,4.007C1461.558,5337.521,1458,5338.479,1457.505,5335.04Zm290.073-78.1c3.227-.445,6.695-2.933,7.836-3.831a44.872,44.872,0,0,0,5.32-5.3c5.313-6.408,10.562-22.757,13.109-29.7,1.3-3.365,2.971-7.03,2.138-11.062-.343-.592-.607-1.865-1.456-1.689-2.363,2.479-5.3,2.2-6.819,3.4-5.452,4.667-7.53,11.733-12.733,15.463-.813,2.671-2.175,6.078-3.533,9.842.21.25.412.492.6.72.106,2.075-1.188,4.9-3.408,8.144C1747.416,5247.7,1746.766,5252.577,1747.579,5256.938ZM1699.5,5217.1l-3.183.658c-8.751,6.9-18.139,13.927-26.334,21.373-5.627,3.818-10.134,9.837-13.837,15.471,18.811-8.534,50.543-23.058,47.561-37.486a4.112,4.112,0,0,0-1.731-.312A12.576,12.576,0,0,0,1699.5,5217.1Zm-362.964,38.966c-3.928-2.95.77-5.912,1.3-8.677a41.7,41.7,0,0,1,4.662-8.485c1.317-.05,1.866-.607,1.9-1.5a159.514,159.514,0,0,0,18.474-8.023c11.523-5.257,24.62-10.4,38.228-15.2,6.358-2.42,13.316-4.08,19.93-6.332,9.709-3.334,19.279-8.41,29.5-11.408,5.428-1.563,10.733-2.66,16.118-4.437,5.216-1.521,10.513-3.722,16.117-4.438,14.275-6.932,37.4-11.713,54.339-14.329a9.3,9.3,0,0,0,3.6.294c2.608-.1,5.27-.2,5.517,3.132-1.625,4.98-6.725,4.929-11.261,6.531-9.284,3.247-23.3,5.036-34.365,8.209-6.277,1.739-12.672,5.053-18.906,7-3.307,1.126-6.658,2.04-9.965,3.166-4.536,1.6-8.779,2.479-15.056,4.218a14.184,14.184,0,0,0-2.971.614c-.8.388-5.941,1.229-8.9,2.947-3.388,1.806-13.565,5.016-19.755,7.18-11.318,4.11-22.3,7.708-32.682,12.066-.8.387-2.166.226-2.97.613-1.566.987-6.907,2.977-10.806,4.446-7.163,2.808-16.353,7.583-25.469,10.574-3.132,1.974-4.983,4.792-8.071,6.978-1.676,1.627-3.513,5.407-6.486,5.406A4.321,4.321,0,0,1,1336.534,5256.065Zm182.435-49.658c-2.01-8.655-3.765-17.141,7.026-17.381,2.955,3.592,4.732,8.978,6.34,14.618-1.259,2.613-4.707,3.428-8.03,3.427A21.736,21.736,0,0,1,1518.969,5206.407Z" transform="translate(-806.124 -2581.739)" fill="#121212"/>
  </g>
</svg>
