<svg xmlns="http://www.w3.org/2000/svg" xmlns:xlink="http://www.w3.org/1999/xlink" width="511.763" height="235.269" viewBox="0 0 511.763 235.269">
  <defs>
    <clipPath id="clip-path">
      <rect width="511.763" height="235.269" fill="none"/>
    </clipPath>
  </defs>
  <g id="title" clip-path="url(#clip-path)">
    <g id="title-2" data-name="title" transform="translate(-55.237 -1423.425)">
      <path id="パス_10007" data-name="パス 10007" d="M19.068,2.184h7.084V-1.568H22.4V-19.712h3.752v-3.752H19.068Zm12.152.084h4.116v-14.98h7.588V-22.848H31.22ZM49.308,2.24h2.464c2.8,0,3.752-1.008,3.752-3.892v-21.2H44.072v10.136h7.252V-1.848H49.308ZM35.336-18.928v-.924h3.528v.924Zm12.572,0v-.924h3.416v.924ZM35.336-15.484V-16.52h3.528v1.036Zm12.572,0V-16.52h3.416v1.036ZM35.672,1.064h4.984A11.372,11.372,0,0,0,42.364-4.2h2.212V1.064h3.892V-4.2h1.988V-7.5H48.468V-8.68H49.7v-3.136H36.988V-8.68h1.4V-7.5h-2.3v3.3h2.3A6.39,6.39,0,0,1,35.672,1.064ZM42.392-7.5V-8.68h2.184V-7.5Zm23.716-7.252a29.662,29.662,0,0,0,2.436-6.86v4.508H81.368c1.96,0,2.8-.14,3.388-.7.392-.364.588-.9.588-2.38v-2.66H81.088v2.324H79.044v-3H74.676v3H72.688v-2.324H68.824l.112-.672H64.4a18.555,18.555,0,0,1-1.428,4.76,19.463,19.463,0,0,1-3.22,5.04v5.964a19.782,19.782,0,0,0,2.016-2.212V2.24h4.34Zm4.564-1.792a14.408,14.408,0,0,1-3.836,4.62v5.236c.616-.448,1.372-1.064,1.9-1.54V1.736H85.456V-1.848H80.388V-3H84.5V-6.244H80.388v-1.12H84.5v-3.052H80.388v-1.12h4.9v-3.416H80.864l.868-1.6H77l-.924,1.6h-1.6l.868-1.6ZM73.3-10.416v-1.12h2.632v1.12Zm0,4.172v-1.12h2.632v1.12Zm0,4.4V-3h2.632v1.148ZM91.392,1.96h3.864V-7.252l1.428,2.24v-5.8l-1.428-2.184V-14.7h1.428v-3.7H95.256v-4.788H91.392V-18.4h-1.96v3.7h1.96a17.777,17.777,0,0,1-2.268,6.664v7a24.1,24.1,0,0,0,2.268-3.948Zm14.308.392a10.974,10.974,0,0,0,4.676-5.068V-.392c0,1.82.476,2.268,2.352,2.268a4.063,4.063,0,0,0,2.716-.7V-3a3.188,3.188,0,0,1-1.316.7h-.448V-8.988h-.868c.224-.812.28-.952.476-1.848h1.736v-3.78h-1.26a39.733,39.733,0,0,0,.364-4.256h.756v-3.836H106.12v8.092h-.7v-8.092H97.384v20.16l-1.092.168V1.68a26.019,26.019,0,0,0,6.832-1.96l.252,1.6H105.7Zm-4.816-19.768V-19.04h1.2v1.624Zm8.54,2.8v-4.256h1.26a32.622,32.622,0,0,1-.392,4.256Zm-8.54,2.24v-1.848h1.2v1.848Zm5.152,9.044c-.28-1.68-.336-1.988-.812-3.976h-3.3c.336,1.764.392,2.044.616,3.472l-1.652.476V-8.624h1.484c2.1,0,2.828-.532,3.024-2.212h4.256A14.988,14.988,0,0,1,106.036-3.332Zm13.132,5.824h1.82c6.384,0,9.828-.616,14.2-2.492l3.332.924c2.24.588,2.52.672,5.376,1.512v-4.62l-1.148-.252-2.632-.532-1.288-.28a15.618,15.618,0,0,0,1.764-2.436h3.528v-3.64H130.648l.588-.868h8.652c2.352-.056,3.108-.672,3.108-2.52V-18.2h-6.384v-1.008h7.5v-3.64H118.664v3.64H126V-18.2h-5.992v8.008h5.936l-.476.868h-6.8v3.64h4.7l-.56.84a2.2,2.2,0,0,0-.364,1.064,1.146,1.146,0,0,0,.924,1.008l3.64.9A32.486,32.486,0,0,1,122-1.512c-.868,0-1.484-.028-2.828-.112ZM130.256-18.2v-1.008h2.156V-18.2Zm-5.908,4.872v-1.848H126v1.848Zm5.908,0v-1.848h2.156v1.848Zm6.356,0v-1.848h1.708v1.848Zm-2.856,9.212c-3.78-.7-3.948-.728-5.852-1.008l.308-.56h6.832Zm15.092,6.3h7.084V-23.464h-7.084v3.752H152.6V-1.568h-3.752Z" transform="translate(170.5 1655.694)" fill="#040000"/>
      <path id="Event" d="M335.055,3100.213c-2.093-1.539-5.875-.758-7.928-2.109-7.152-5.03-14.636-14.53-16.629-24.178-1.955-9.459-.675-16.628-1.26-25.187,2.2-4.6,3.725-9.648,5.512-14.357a10.232,10.232,0,0,0,3.4-6.425c8.054-7.781,13.847-19.828,23.485-28.529.372-1.063,5.681-5.909,5.681-5.909,2.87-1.382,2.55-3.881,5.308-4.846,3.026-.626,4.748-3.744,6.437-6.066,1.539-2.093,11.164-7.043,11.732-7.16.906-.385.411-.874.75-1.141,6.41-4.285,12.893-9.176,20.066-12.632-1.31-3.477-4.766-4.932-5.626-9.094-3.714-17.973,52.085-33.26,64.292-37.165,1.663-.541,4.571-1.734,6.045-2.236a7.928,7.928,0,0,1,2.366,0,7.95,7.95,0,0,0,2.367,0c.567-.117,1.317-1.259,3.586-1.728l9.833-2.034a31.65,31.65,0,0,0,8.392-.177,27.881,27.881,0,0,1,7.7-.192c2.465.477,11.521,1.366,17.553,2.881,5.372,5,14.291,8.091,16.128,16.983a9.4,9.4,0,0,1,.28,2.31c-1.415,3.646-5.863,6.932-10.591,7.911-6.24,1.291-5.431-2.427-6.213-6.211l.946-.2c1.513-.312,2.38-.886,2.256-2.439-1.571-2.831-3.1-5.474-6.219-7.2-3.077-1.534-9.017-.7-14.155-4.569-8.216.317-16.849.525-27.061,2.637a145.948,145.948,0,0,0-17.769,4.661c-3.854,1.389-7.512,3.723-11.177,5.073-12.846,4.629-36.1,10.425-37.823,19.263,3.084,2.519,10.009,1.679,15.871.466,6.051-1.251,12.7-4.4,18.558-5.613,4.349-.9,8.327-.736,11.528,2.35.364,3.672-2.961,4.755-6.437,6.066-6.443,5.08-18.024,6.291-28.19,9.578-9.031,3.051-13.544,7.93-21.558,10.178a1.43,1.43,0,0,1-.493,0,1.425,1.425,0,0,0-.492,0c-1.7.352-.431,3.639-4.78,4.54a9.706,9.706,0,0,1-2.765-.02c-1.917,2.172-3.339,4.833-6.436,6.065-2.719,1.154-2.857,3.352-6.033,4.206-.567.118-1.174.046-1.741.163-1.513.313.625,3.027-.887,3.34a2.1,2.1,0,0,1-.985.007c-.756.156-7.617,5.126-7.187,7.207-8.784,6.157-19.142,20.924-18.763,20.845-6.241,1.29-3.582,8.433-8.5,9.45-.379.078-.985.007-1.363.084.6,4.808-4.507,5.864-3.413,11.162l.2.945c-5.263,6.021-6.178,16.862-3.6,29.348.9,4.351,4.79,14.594,9.582,17.746,13.769,9.384,34.106,9.517,54.719,5.255a102.583,102.583,0,0,0,12.931-3.266c4.043-1.428,6.6-4.324,11.744-5.19l1.324-.274c-3.7,7.866-15.651,10.141-23.456,15.306l-4.16.861c-3.593.743-6.958,1.635-10.361,2.34a85.813,85.813,0,0,1-16.446,1.458C345.165,3104.77,335.818,3103.3,335.055,3100.213Zm105.172-46.407c-1.532-2.643-6.441-6.361-4.158-10.582-2.673-3.393-.651-6.967-2.423-11.729,2-6.53,1.574-14.332,5.481-19.282-.4-2.877,1.944-3.954.406-7.581,2.856-3.352,4.344-7.605,4.919-12.458,5.595-1.551,3.659-8.056,10.623-8.707.019,2.955,3.266,1.494,2.836,5.135-.027,1.78-1.3,3.228-1.709,5.088-2.224,1.643-2.394,4.637-3.248,7.181s-2.355,4.827-3.209,7.371c-.15.228.5,1.474.351,1.7-2.217,2.627-1.945,9.673-4.723,13.4,1.747,6.544-3.177,12.3.721,17.8,5.151.119,3.535-3.887,7.545-4.519,2.224-1.643,3.991-3.587,6.632-5.119,3.613-3.509,6.046-7.958,9.848-11.506.489-.5.294-1.442.594-1.9.45-.685,3.241-2.446,2.85-4.337-.319-2.5,3.567-4.683,4.155-7.566.77-3.907,3.783-6.5,5.309-10.567.522-1.291-.358-2.687,1.344-3.039-.221-4.886.927-8.872,2.076-12.857,3.2-2.635,7.975-2.438,10.413-.181,3.82,5.128-1.547,6.83.728,13.067,6.336,13.485,22,12.02,35.855,4.618a14.562,14.562,0,0,0,2.2-.869c.512-3.65,1.531-9.05,3.037-10.077.4-2.844.758-5.878,3.209-7.371,1.025-5.538,5.662-8.864,7.41-13.763,4.637-3.327,9.084-6.614,11.9-11.139,6.736-.8,8.679-4.754,14.959-5.856,3.078,1.533,3.775,3.953,4.328,7.587.313,1.513-.144,1.213-.366,2.048-.483,1.481.56,4.619-.6,6.635,1.524,7.378-3.791,16.96-2.991,23.7-2.374,1.872-3.444,6.235-4.716,8.668s-3.763,3.737-4.39,6.431c-4.037,2.413-5.6,6.287-9.639,8.7,3.345,1.873,8.117,2.069,10.921,2.279l1.891-.391c9.905-2.641,23.554-11.973,30.284-19.48a46.322,46.322,0,0,1,6.365-5.459c1.216-.7,3.382-2.419,5.179-3.356,1.752-4.741,3.422-9.613,3.9-13.119.092-3.372.212-19.967.688-22.433.659-3.49,2.817-3.542,7.512-3.723,3.84,2.362,4.065,19.675,2.578,23.928,1.441.294.2.946.391,1.892l-.946.2c.68,1.546.992.593,1.45-.359.293-.607.645-1.214,1.191-1.174,1.7-.352.059-2.577,2.674-2.328.437-2.656,2.928-3.96,3.4-6.425,2.2.137,2.641-1.533,4.147-2.831a45.594,45.594,0,0,0,6.248-6.026c.828-.762,1.461-2.472,2.289-3.236,3.724-3.926,10.252-7.643,13.63-12.287,2.9-2.178,9.874-7.566,14.92-6.045a10.967,10.967,0,0,1-1.724,14.56c1.121,3.517-3.2,3.62-2.264,7.175-2.57.926-1.26,4.4-3.6,5.479-.268,5.382-4.933,16.209-7.294,20.051a30.96,30.96,0,0,1-2.453,7.215c-2.569.925-.8,4.7-2.459,6.229,2.021,2.146,2.974-2.786,5.093-3.026,1.735-1.147,5.034-.449,6.273-2.086,2.419-.7,2.224-1.644,4.187-2.641,8.973-6.2,12.155-6.064,19.075-13.611,3.658-2.334,3.359-1.878,6.1-4.813a27.8,27.8,0,0,0,3.867-5.14c1.4-.88,3.574-3.7,4.78-4.539,2.709-2.229,4.708-5.158,8.556-6.809a5.942,5.942,0,0,1,.709-1.419c3.014-8.317,4.2-17.834,8.168-25.361-1.636-1.24-4.812-.386-7.57.579-2,.808-6.345,2.692-10.388,4.12-5.745,1.779-12.911,6.221-16.092.369-1.121-3.516,4.337-2.87,5.687-4.924,1.389-1.866,5.706-1.969,6.639-4.134,9.338-2.523,17.763-5.646,26.644-8.469,1.474-.5,2.485-2.289,3.046-3.392.411-.875-.013-1.97.4-2.844.972-1.976,4.318-5.825,5.661-8.865,2.844-5.322,4.625-11.017,7.012-16.64,2.746-2.935,1.195-8.532,7.592-9.066,3.782-.782,2.086,6.276,4.517,7.549-2.7,9.83-9.549,16.77-10.425,27.8.478,1.127,2.145.636,3.821.146a8.753,8.753,0,0,1,2.8-.531c20.6-6.232,42.718-11.793,63.356-17.836,2.5.666,6.031,1.514,4.349,4.821-4.649,1.356-8.5,2.745-8.354,2.517-5.334.906-8.386,3.312-14.365,3.957-3.5,3.092-7.407,2.321-12.122,5.268a26.729,26.729,0,0,1-9.233,1.121c-5.654,4.129-6.658,1.18-12.507,4.362-2.491,1.3-2.491,1.3-5.295,1.1a23.916,23.916,0,0,1-5.093,3.026,7.1,7.1,0,0,1-3.178-.1c-2.4-.369-5.255-.737-6.844,2.17.58,1.853-3.136,1.043-4.343,1.885-.986,5.727-5.355,9.393-6.262,15.5-3.874,4.154-2.362,9.563-6.654,13.606.7,2.42-1.715,4.1-2.459,6.23-.933,2.165-.307,5.193-2.3,6.986.351,7.424-1.463,13.914,3.2,20.249,2.393,1.083,4.029,2.323,6.227,2.461.8.033.724.639.952.789,6.637,1.586,14.372-2.972,20.794-5.286,2.68-1.343,7.062-3.039,9.541-6.313.15-.228,4.559-3.7,4.747-3.744,1.357-1.069,2.218-2.628,3.763-3.737,1.4-.88,3.854-1.389,5.289-2.08.516-2.276,4.037-2.412,6.606-3.338,3.305,1.684.064,4.129,2.2,5.858-4.108,3.019-5.68,5.909-8.393,8.048-1.7,1.337-4.324,4.84-7.154,6.412a18.35,18.35,0,0,0-3.62,2.523c-1.056.614-1.089,1.409-3.241,2.446-1.057.614-4.226,2.452-5.849,3.182-1.26.631-1.32.535-1.421.44s-.281-.216-2.283.721a16.143,16.143,0,0,0-5.093,3.026c-4.323-.881-10.935,1.472-16.458,2.417-1.525-1.657-4.4-1.26-7.016-1.509-3.051-3.314-8.671-5.7-10.945-11.938-1.734-4.574-1.388-9.577-1.08-14.77.1-.41.193-.842.276-1.29-.86.563-1.51,1.167-1.526,1.549-3.118,4-9.482,9.457-13.252,12.209-2.98,1.8-3.424,3.469-8.06,6.8-2.629,3.5-4.487,3.1-7.344,6.45-5.98,6.366-14.562,8.732-21,14.8-5.256,1.284-11.783,5-16.843,1.51a20.134,20.134,0,0,1,.608-11.37c.111-.417-.73-1.625-.391-1.893.789-.952-.124-1.552.4-2.844.071-.606,1.285-.462,1.506-1.3.633-1.709.437-2.655,1.149-3.986.372-1.063,1.539-2.094,2.061-3.385.15-.228-.5-1.474-.351-1.7a9.167,9.167,0,0,0,1.5-2.283c1.344-3.039,4.9-15.414,6.309-20.045-7.017,4.213-20.928,19.912-25.546,26.193-1.35,2.054-3.8,4.533-4.5,6.848-3.613,3.509-3.92,8.7-7.3,12.361-2.987.815-1.827,4.521-4.546,5.674-1.617,1.716-2.739,3.92-4.546,5.674-4.845.411-5.354,3.672-8.516.775-1.316-4.462.79-6.673,1.717-9.824a10.518,10.518,0,0,0,1.831-2.77c-8.16,7.524-20.145,16.393-28.939,18.832-11.757,3.22-23.311,2.65-31.513-.782-4.466.332-7.035-4.464-7.36-7.947-.738-1.74-1.608-3.68-2.287-5.734a16.259,16.259,0,0,1-3.764,1.264,95.6,95.6,0,0,1-17.886,4.093c-2.582-1.044-6.4-.451-9.063-1.874-.039-.189-1.141-.75-.952-.789a4.293,4.293,0,0,0-1.769-.04,4.637,4.637,0,0,1-2.208-.125c-1.519-.672-3.233-2.29-4.336-2.851a21.973,21.973,0,0,1-4.336-2.852c-4.565,2.719-5.022,8.14-7.989,11.91-1.767,1.943-2.055,4.37-3.4,6.425-.972,1.976-3.991,3.587-3.4,6.424-4.187,2.642-6.392,7.24-10.044,10.56a71.666,71.666,0,0,1-5.687,4.924c-1.656,1.527-5.06,2.23-5.458,5.075-5.412.944-8.3,4.324-13.312,4.324A12.116,12.116,0,0,1,440.228,3053.805Zm106.039-46.982c2.876-.4,5.967-2.615,6.984-3.417a40.048,40.048,0,0,0,4.741-4.729c4.735-5.714,9.413-20.293,11.683-26.483,1.155-3,2.648-6.268,1.906-9.863-.307-.529-.541-1.663-1.3-1.508-2.107,2.212-4.721,1.963-6.078,3.033-4.858,4.161-6.712,10.462-11.348,13.788-1.607,5.28-5.62,13.792-6.662,21.825a4.7,4.7,0,0,0,.905,1.259c-.157.087-.543.348-1.1.728A21.7,21.7,0,0,0,546.267,3006.824Zm.834-6.094c.067-.037.092-.042.072-.012a.042.042,0,0,1-.037.021A.085.085,0,0,1,547.1,3000.73Z" transform="translate(-254 -1446.076)" fill="#121212" style="mix-blend-mode: multiply;isolation: isolate"/>
    </g>
  </g>
</svg>
