<svg xmlns="http://www.w3.org/2000/svg" width="371.052" height="32.544" viewBox="0 0 371.052 32.544">
  <g id="day" transform="translate(-748.468 -327.893)">
    <path id="パス_10000" data-name="パス 10000" d="M2.05,0V-7.052L18.081-20.623v-2.542l-1.23-1.23H11.439l-1.23,1.23v3.157H2.542V-26.2l4.3-4.018H21.4L25.748-26.2v8.118L11.316-6.109H25.953V0ZM34.6,0,30.053-4.551V-25.666L34.6-30.217h15.17l4.551,4.551V-4.551L49.774,0Zm4.551-5.822h6.068l1.435-1.435v-15.7L45.223-24.4H39.155L37.72-22.96v15.7ZM58.425,0V-7.052L74.456-20.623v-2.542l-1.23-1.23H67.814l-1.23,1.23v3.157H58.917V-26.2l4.305-4.018H77.777L82.123-26.2v8.118L67.691-6.109H82.328V0ZM91.389,0,87.043-4.018v-5.74h7.995v2.706l1.189,1.23h5.658l1.23-1.23v-5.576l-1.23-1.23h-14.6V-30.217h22.632v6.068H95.489v4.92h11.562l4.305,4.018V-4.018L107.051,0Zm24.682,0V-6.437H123V0ZM142.6,0V-4.92H127.1V-10.7l15.334-19.516h7.831V-10.7h3.444V-4.92h-3.444V0Zm-7.093-10.7H142.6v-9.553ZM157.809,0V-6.437h6.929V0Zm17.1,0L170.6-4.018V-9.1h8v1.845l1.435,1.435h6.355l1.476-1.435v-4.1H174.783l-4.305-4.018V-26.2l4.305-4.018h16.6l4.305,4.018V-4.018L191.388,0Zm4.715-16.687h6.765l1.476-1.435V-22.96L186.386-24.4h-6.765l-1.435,1.435v4.838Zm51.045,8v-5.453H244.2v5.453ZM263.384,0V-4.92h-15.5V-10.7L263.22-30.217h7.831V-10.7h3.444V-4.92h-3.444V0Zm-7.093-10.7h7.093v-9.553ZM278.6,0V-6.437h6.929V0Zm12.054,0V-7.052L306.68-20.623v-2.542l-1.23-1.23h-5.412l-1.23,1.23v3.157h-7.667V-26.2l4.3-4.018H310l4.346,4.018v8.118L299.915-6.109h14.637V0ZM323.2,0l-4.551-4.551V-25.666l4.551-4.551h15.17l4.551,4.551V-4.551L338.373,0Zm4.551-5.822h6.068l1.435-1.435v-15.7L333.822-24.4h-6.068l-1.435,1.435v15.7Z" transform="translate(746.418 358.11)" fill="#fff"/>
    <path id="パス_7668" data-name="パス 7668" d="M9.916,0,6,1.429,2.807,4.108.723,7.717,0,11.822l.724,4.1,2.084,3.609L6,22.214l3.916,1.425h4.168L18,22.214l3.193-2.679,2.084-3.609.724-4.1-.724-4.1L21.192,4.108,18,1.429,14.083,0Z" transform="translate(947.52 336.798)" fill="#fff"/>
    <path id="パス_9999" data-name="パス 9999" d="M-2.9.98h1.82C.672.966,1.218.406,1.19-1.358V-7.784a13.97,13.97,0,0,0,1.582,4.8A6.6,6.6,0,0,0,6.426.042v-2.73a5.745,5.745,0,0,1-2.52-3.29l2.338-.966V-9.52L3.374-8.19c-.056-.476-.07-.546-.1-1.078H1.19v-2.394H-1.246v10.5H-2.9ZM-6.426-.112A7.281,7.281,0,0,0-2.506-3.99c.518-1.232.672-2.394.7-5.166H-6.384v2.17h2.3A5.243,5.243,0,0,1-6.426-2.758Z" transform="translate(959.52 353.802)" fill="#121212"/>
    <path id="パス_9769" data-name="パス 9769" d="M9.916,0,6,1.429,2.807,4.108.723,7.717,0,11.822l.724,4.1,2.084,3.609L6,22.214l3.916,1.425h4.168L18,22.214l3.193-2.679,2.084-3.609.724-4.1-.724-4.1L21.192,4.108,18,1.429,14.083,0Z" transform="translate(1095.52 336.798)" fill="#fff"/>
    <path id="パス_9998" data-name="パス 9998" d="M-5.53.952H2.814C5,.952,5.558.392,5.558-1.694v-9.758H-5.53ZM-2.982-6.44V-9.254H2.94V-6.44Zm0,5.124v-3.01H2.94v3.01Z" transform="translate(1107.52 353.802)" fill="#121212"/>
  </g>
</svg>
