<svg xmlns="http://www.w3.org/2000/svg" width="1200.2" height="160.399" viewBox="0 0 1200.2 160.399">
  <path id="logo" d="M618.752,930.436c-8.119-.157-13.563-6.038-13.563-13.487s5.68-13.294,13.563-13.485a12.637,12.637,0,0,1,7.192,1.559V911.2a10.1,10.1,0,0,0-7.192-2.27c-4.646.224-8.066,3.6-8.066,8.02s3.42,7.8,8.066,8.021c3.153.152,6.045-.795,7.833-3.159v6.533a12.761,12.761,0,0,1-7.5,2.095C618.973,930.439,618.862,930.438,618.752,930.436ZM877.146,916.95c0-7.448,5.707-13.295,13.563-13.486,7.857.191,13.563,6.038,13.563,13.486a13.563,13.563,0,0,1-27.126,0Zm5.6,0a7.967,7.967,0,0,0,15.933,0c0-4.368-3.379-7.657-7.967-7.92C886.121,909.293,882.743,912.582,882.743,916.95Zm-536.517,0c0-7.448,5.707-13.294,13.564-13.485a14.226,14.226,0,0,1,8.954,2.437v6.454a10.788,10.788,0,0,0-8.954-3.326c-4.589.263-7.967,3.553-7.967,7.92a7.953,7.953,0,0,0,7.967,7.921c2.206,0,4.7-.939,5.835-2.433v-2.159H358.88v-5.612h12.375v9.977c-1.853,3.353-6.584,5.792-11.465,5.792A13.525,13.525,0,0,1,346.226,916.95Zm109.263,13.183a19.371,19.371,0,0,1-9.275-2.661l.016-6.82c3.62,2.418,6.891,3.639,10.188,3.585,1.59-.026,3.578-.56,3.707-2.139.124-1.525-1.817-2.3-4.385-3.106-7.646-2.409-10.457-5.8-9.184-10.121.806-2.742,3.61-4.729,7.193-5.291a16.657,16.657,0,0,1,9.52,1.4V910.9A14.643,14.643,0,0,0,455,908.811c-1.983.112-2.948.878-3.035,1.811-.173,1.848,3.052,2.595,4.84,3.171,3.381,1.093,8.211,2.663,9.014,7.039a7.114,7.114,0,0,1-2.565,6.953,11.328,11.328,0,0,1-7.342,2.353C455.773,930.138,455.632,930.136,455.489,930.133Zm342.535-.245V904.012l7.4-.007c4.348,0,10.5.363,11.768,5.306a6.311,6.311,0,0,1-2.722,6.968,6.378,6.378,0,0,1,4.152,7.106c-.55,4.275-4.578,6.545-10.266,6.545C807.2,929.93,798.024,929.888,798.024,929.888Zm5.63-5.545h5.3c2.491,0,3.623-.682,3.623-2.308s-1.156-2.537-3.623-2.537h-5.3Zm0-10.251h4.432c2.048,0,3.226-.831,3.226-2.213s-1.253-2.228-3.226-2.228h-4.432Zm-321.93,15.8V904.012l7.4-.007c4.348,0,10.5.363,11.768,5.306a6.311,6.311,0,0,1-2.723,6.968,6.376,6.376,0,0,1,4.151,7.106c-.549,4.275-4.578,6.545-10.265,6.545C490.9,929.93,481.724,929.888,481.724,929.888Zm5.63-5.545h5.3c2.49,0,3.624-.682,3.624-2.308s-1.157-2.537-3.624-2.537h-5.3Zm0-10.251h4.432c2.049,0,3.226-.831,3.226-2.213s-1.253-2.228-3.226-2.228h-4.432Zm441.058,15.8v-.015l-11.9-16.321v16.337h-5.63V904.012h5.63l11.9,16.321V904.012h5.63v25.876Zm-189.085,0-5.256-8.273-5.256,8.273h-6.606l8.577-13.444L722.9,904.032l6.527-.02,4.645,7.281,4.645-7.281,6.528.02-7.887,12.412,8.576,13.444Zm-70.363,0V919.181l-.019.014-10.993-15.163h6.941l6.872,9.479,6.871-9.479h6.941L674.6,919.183v10.706Zm-18.474,0-5.027-8.378h-5.212v8.378h-5.63V904.012h11.486c3.641,0,8.851,1.643,8.851,8.749,0,4.018-1.682,6.252-3.789,7.467l5.8,9.66Zm-10.239-13.843h5.021c3.354,0,4.19-1.821,4.19-3.284s-.835-3.283-4.19-3.283h-5.021Zm-84.843,13.843v-.015l-11.9-16.321v16.337h-5.63V904.012h5.63l11.9,16.321V904.012h5.63v25.876Zm-28.592,0-1.774-4.767H514.228l-1.76,4.767H506.4l9.625-25.876h7.235l9.554,25.876Zm-10.521-10.365h6.664l-3.344-8.992Zm-92.844,10.365V904.012h5.63V924.29h12.028v5.6Zm-13.584,0-5.027-8.378h-5.211v8.378H394V904.012h11.485c3.642,0,8.852,1.643,8.852,8.749,0,4.018-1.683,6.252-3.79,7.467l5.8,9.66Zm-10.238-13.843h5.02c3.355,0,4.189-1.821,4.189-3.284s-.834-3.283-4.189-3.283h-5.02ZM864.9,929.85V903.97h5.63v25.88Zm-38.95,0V903.97h5.63v25.88Zm-42.529,0V903.97h5.629v25.88Zm-84.281,0V904.01h16.88v5.469H704.77v4.41h10.48v5.47H704.77v5.02H716.8v5.47Zm-319.73,0V903.97h5.629v25.88Zm190.08-.009V903.965h8.5c7.492,0,13.564,5.792,13.564,12.938s-6.072,12.938-13.564,12.938Zm5.63-5.243h2.867a7.7,7.7,0,1,0,0-15.389h-2.867Zm270.31,5.242V909.48h-7.52V904.01h20.67v5.469h-7.52V929.84Zm-76.6,0V919.36H757.75v10.48h-5.63V904.01h5.63v9.879H768.83V904.01h5.629v25.83ZM389.494,877.154l-5.35,7.632H333.556V842.514l30.913-.567,15.842-21.811H336.4V783.556h65.739v11.9h24.924V823.57l-10.939,15.6,18.688,2.923-.083,43.568Zm654.166,7.632V841.432l-29.019,6.14-.221-43.494,98.884-23.792V826.7l-26.1,5.522v52.567Zm-136.493,0V851.164h52.8L968,842.674H903.4V814.368h102.38v40.354l-25.325,30.065Zm-112.32,0,.247-39.826h51.238l3.934-22.429h-13.6l-2.374,11.051-44.346.273,13.571-51.715h41.829l-1.825,8.493h54.394l-13.938,94.153Zm-220.63,0V841.912h28.308l69.9-19.043v48.175l-64.075,13.742Zm-49.7,0-7.8-102.754h16.4v13.42H559.26l8.432,89.334Zm-65.144,0,9.7-102.754H510.35l-7.8,102.754Zm-185.173,0V782.141h42.593l-.58,61.593,12.625-2.794v43.846Zm-55.065,0,9.733-102.754h41.28l-7.772,102.754Zm-116.207,0v-32.1h7.008v-28.85H93.118L81.185,884.786H40l14.35-60.947H45.33V790.851l16.76.091,2.072-8.8h37.12l-1.763,9.005,20.993.114v4.192H145.3v89.334Zm577.692-.009V782.251h43.47v19.49l50.587,19.815L766.9,864.995l-42.814-18.073v37.856Zm556.9-.413H1210.9v-.138l-8.382-15.067v13.778l-36.021,1.427v-16.9l3.174-.125v-10.25h-5.033l.01,27.272H1130.4l3.848-102.224h103.271v36.248h-9.278V823h9.278v14.741h-9.278v4.61H1240.2v14.742h-19.7l5.07,8.122,1.975-5.557H1240.2l-2.678,7.81h2.678l-.077,16.9Zm-46.1-17.883,9.4-.372-5.017-9.017h-4.387Zm6.1-24.131h8.969v-4.61h-8.969Zm-21.745,0v-4.61H1166.5V823h9.279v-4.611h-11.152l.009,23.962ZM1197.525,823h8.969v-4.611h-8.969Zm-32.9-19.352h42.631v-4.61h-42.633ZM152.36,854.33V811.75h63.19V854.33ZM576.619,813.28l13.687-32.008L640.785,797.6l-14.563,33.532ZM907.03,810.34v-28.2h95.02v28.2ZM751.45,791.99V770.04H767.76v21.95Zm-21.309,0V770.04h16.31v21.95Zm-172.23,0V770.04h16.31v21.95Zm-21.31,0V770.04h16.31v21.95Zm-109.669,0V770.04h16.31v21.95Zm-21.3,0V770.04h16.31v21.95Zm-260.33,0V770.04H161.61v21.95Zm-21.3,0V770.04h16.31v21.95Z" transform="translate(-39.996 -770.04)" fill="#121212"/>
</svg>
