<svg xmlns="http://www.w3.org/2000/svg" width="457.674" height="31.382" viewBox="0 0 457.674 31.382">
  <path id="パス_10001" data-name="パス 10001" d="M20.5-19.72a3.268,3.268,0,0,0-3.468-2.21c-5,0-9.452,5.406-9.452,11.492,0,4.352,2.346,7.276,5.814,7.276,2.108,0,3.74-.884,5.474-2.992.34,2.176,1.632,3.2,4.012,3.2A9.26,9.26,0,0,0,29-5.406a9.86,9.86,0,0,0,3.026-7.65,15,15,0,0,0-15.062-14.96A14.97,14.97,0,0,0,1.972-12.852,14.771,14.771,0,0,0,17,2.142,15.257,15.257,0,0,0,24.582.2l-1.666-2.38a12.423,12.423,0,0,1-5.984,1.53A12.24,12.24,0,0,1,4.76-12.988a12.225,12.225,0,0,1,12.206-12.24,12.4,12.4,0,0,1,12.206,12.24c0,3.706-1.734,6.086-4.42,6.086-.986,0-1.564-.34-1.564-.918a5.179,5.179,0,0,1,.136-.918L25.7-21.114H20.842Zm-3.06,1.564c1.36,0,2.04.884,2.04,2.584a14.375,14.375,0,0,1-1.19,5.236c-.884,1.972-2.244,3.094-3.774,3.094-1.088,0-1.666-.85-1.666-2.55a12.882,12.882,0,0,1,1.768-6.46A3.41,3.41,0,0,1,17.442-18.156Zm27.744-2.312v-6.8c-.578-.1-1.088-.17-1.224-.2-.918-.136-1.8-.272-2.72-.442-.408-.068-1.8-.238-4.012-.476v6.732C38.93-21.454,42.092-21.012,45.186-20.468ZM53.822,2.414h8.4c3.4-.068,4.9-.374,6.12-1.224V-5.338C66.062-4.148,65.722-4.08,62.7-4.046H53.448V-15.334l1.02-.238L54.5-4.93h6.222V-6.664h1.938c3.672,0,5.3-1.462,5.3-4.658V-24.446L60.724-23.12v-4.93H54.366v6.086l-1.02.136V-28.05H47.294v7.344l-1.394.238v6.6l1.394-.2V-2.55C47.124,1.5,48.246,2.346,53.822,2.414ZM45.186-12.58v-6.834c-.544-.068-.918-.1-1.02-.136-.884-.136-1.734-.272-2.618-.442-.782-.136-1.9-.272-4.284-.578v6.8c1.292.136,1.5.17,3.774.544l2.924.442Zm15.47-.034V-16.66l.816-.136v4.114ZM37.264,2.89a50.972,50.972,0,0,0,7.922-5.576v-8.806a47.265,47.265,0,0,1-7.922,5.78Zm66.742-17.034v-5.508a12.534,12.534,0,0,1-6.63-1.462l6.7-.17v-4.454h-1.122l-.884-2.312H96.05l1.02,2.482-1.394.034-.238-2.958h-7.65c.068,1.054.068,1.258.306,3.162l-3.774.1a17.481,17.481,0,0,0,2.55-3.264H79.084a12.763,12.763,0,0,1-6.324,3.74v6.324a26.1,26.1,0,0,0,3.026-1.292v5h7.038V-23.9l.918-.85v3.944l5.576-.1C91.052-16.32,95.608-14.212,104.006-14.144Zm-28.73,16.8,1.938-.034c7.242-.1,10.642-.238,17.51-.68V-.306a28.106,28.106,0,0,0,9.282,2.38v-6.12a16.042,16.042,0,0,1-3.162-.578l2.856-3.4H96.016L95.03-6.9a8.325,8.325,0,0,1-2.312-1.87h11.288v-5.134H92.48v-1.7H84.422v1.7H72.794v5.134H78.54a15.222,15.222,0,0,1-5.746,1.6v5.882a19.857,19.857,0,0,0,2.482-.578ZM88.06-2.958V-5A16.432,16.432,0,0,0,90.1-3.06Zm-9.86.136a23.3,23.3,0,0,0,2.414-1.054v.986ZM119.816-8.6h8.534v-8.636h-8.534ZM148.308,1.836h9.18c8.976,0,13.974-4.59,14.008-12.784V-14.96h3.944v-7.276h-3.91V-27.37H163.2v5.134h-6.936V-27.37h-7.956v5.134h-4.08v7.276h4.08v6.7h7.956v-6.7H163.2v3.74c-.034,4.046-1.836,5.372-7.48,5.44h-7.412Zm48.178-17.272v-8.228c-6.018-1.666-7.82-2.142-15.266-3.74v7.922C186.762-18.224,192.678-16.66,196.486-15.436ZM180.948,1.7H195.16c4.692,0,8.7-1.462,11.39-4.114,2.584-2.652,3.536-5.338,3.536-10.336V-24h-8.432v8.976c0,4.114-.2,5.032-1.462,6.46-1.428,1.462-3.876,2.244-7.208,2.278H180.948Zm50.66-19.652v-7.48a135.129,135.129,0,0,0-14.824-2.448v7.174C221.1-20.094,223.822-19.618,231.608-17.952ZM216.682,1.6H229.67c6.154-.034,9.52-1.156,12.512-4.046,2.414-2.482,3.264-5.1,3.3-10.166v-11.8h-8.432v10.506c.17,5.44-1.632,7.174-7.548,7.378H216.682ZM231.608-8.5v-7.378c-7.174-1.564-11.9-2.448-14.824-2.89v7.65C221.646-10.506,227.766-9.418,231.608-8.5ZM261.154,2.04H268.7l-2.108-15.334h6.324c-.136,2.414-.918,2.89-4.726,2.822l1.054,6.562h.612c4.25,0,7.14-1.292,8.84-3.978,1.564-2.482,2.142-5.372,2.38-12.206h-15.4l-.51-3.944h-7.684l.51,3.944H253.64v6.8h5.3ZM299,2.414h8.3V-15.334c9.01-3.91,9.792-4.862,10.1-12.478h-8.4c-.238,3.468-.578,3.978-3.672,5.236l-17.85,7.412v7.922L299-11.9Zm40.29-17.85v-8.228c-6.018-1.666-7.82-2.142-15.266-3.74v7.922C329.562-18.224,335.478-16.66,339.286-15.436ZM323.748,1.7H337.96c4.692,0,8.7-1.462,11.39-4.114,2.584-2.652,3.536-5.338,3.536-10.336V-24h-8.432v8.976c0,4.114-.2,5.032-1.462,6.46-1.428,1.462-3.876,2.244-7.208,2.278H323.748Zm50.66-19.652v-7.48a135.129,135.129,0,0,0-14.824-2.448v7.174C363.9-20.094,366.622-19.618,374.408-17.952ZM359.482,1.6H372.47c6.154-.034,9.52-1.156,12.512-4.046,2.414-2.482,3.264-5.1,3.3-10.166v-11.8h-8.432v10.506c.17,5.44-1.632,7.174-7.548,7.378H359.482ZM374.408-8.5v-7.378c-7.174-1.564-11.9-2.448-14.824-2.89v7.65C364.446-10.506,370.566-9.418,374.408-8.5Zm22.3-11.7h25.7v-7.242h-25.7Zm0,22.644h6.426c4.386,0,8.126-1.632,9.894-4.386,1.394-2.142,1.9-4.556,2.006-9.316h9.656v-7.14H394.876v7.14H406.47c.068,4.76-.782,5.814-4.828,5.848h-4.93Zm45.832-.374h7.786V-12.444c7.956-2.652,9.248-4.216,9.316-11.152h-7.99c0,2.516-.544,3.162-3.91,4.522L432.378-13.5V-5.95l10.166-3.57Z" transform="translate(-1.972 28.492)" fill="#fff"/>
</svg>
