<svg xmlns="http://www.w3.org/2000/svg" width="460" height="61.931" viewBox="0 0 460 61.931">
  <path id="logo" d="M968.818,286.93a5.09,5.09,0,0,1-5.2-5.207,5.153,5.153,0,0,1,5.2-5.207,4.822,4.822,0,0,1,2.757.6V279.5a3.857,3.857,0,0,0-2.757-.876,3.1,3.1,0,0,0,0,6.194,3.394,3.394,0,0,0,3-1.22v2.522a4.859,4.859,0,0,1-2.872.809Zm99.035-5.207a5.2,5.2,0,1,1,5.2,5.207A5.159,5.159,0,0,1,1067.854,281.724Zm2.145,0a3.053,3.053,0,1,0,3.053-3.058A3.059,3.059,0,0,0,1070,281.724Zm-205.631,0a5.16,5.16,0,0,1,5.2-5.207,5.423,5.423,0,0,1,3.432.941v2.492a4.12,4.12,0,0,0-3.432-1.284,3.058,3.058,0,0,0,0,6.116,2.961,2.961,0,0,0,2.236-.939v-.834h-2.584v-2.166h4.743v3.853a5.12,5.12,0,0,1-4.395,2.235A5.2,5.2,0,0,1,864.368,281.724Zm41.877,5.089a7.389,7.389,0,0,1-3.554-1.027l.006-2.634a6.791,6.791,0,0,0,3.9,1.384c.609-.01,1.372-.216,1.421-.826.048-.589-.7-.887-1.68-1.2-2.93-.93-4.007-2.238-3.52-3.908a3.228,3.228,0,0,1,2.757-2.043,6.343,6.343,0,0,1,3.649.541v2.288a5.584,5.584,0,0,0-3.17-.808c-.76.043-1.13.339-1.164.7-.066.713,1.17,1,1.855,1.225,1.3.421,3.147,1.028,3.455,2.717a2.757,2.757,0,0,1-.983,2.684,4.314,4.314,0,0,1-2.812.909Zm131.283-.094v-9.99l2.837,0c1.666,0,4.024.14,4.51,2.048a2.443,2.443,0,0,1-1.043,2.69,2.465,2.465,0,0,1,1.591,2.744c-.211,1.651-1.754,2.527-3.934,2.527C1041.043,286.735,1037.528,286.719,1037.528,286.719Zm2.158-2.141h2.033c.955,0,1.389-.263,1.389-.891s-.444-.98-1.389-.98h-2.033Zm0-3.957h1.7c.785,0,1.237-.32,1.237-.855s-.481-.86-1.237-.86h-1.7Zm-123.386,6.1v-9.99l2.836,0c1.666,0,4.025.14,4.511,2.048a2.443,2.443,0,0,1-1.044,2.69,2.465,2.465,0,0,1,1.592,2.744c-.211,1.651-1.755,2.527-3.935,2.527C919.815,286.735,916.3,286.719,916.3,286.719Zm2.158-2.141h2.033c.954,0,1.389-.263,1.389-.891s-.443-.98-1.389-.98h-2.033Zm0-3.957h1.7c.785,0,1.236-.32,1.236-.855s-.48-.86-1.236-.86h-1.7Zm169.044,6.1v-.006l-4.559-6.3v6.307h-2.159v-9.99h2.159l4.559,6.3v-6.3h2.159v9.99Zm-72.47,0-2.015-3.195L1011,286.719h-2.531l3.287-5.191-3.023-4.792,2.5-.007,1.78,2.811,1.78-2.811,2.5.007-3.023,4.792,3.287,5.191Zm-26.969,0v-4.134l-.007.006-4.212-5.855h2.66l2.634,3.66,2.633-3.66h2.661l-4.209,5.849v4.134Zm-7.081,0-1.927-3.234h-2v3.234H974.9v-9.99h4.4a3.12,3.12,0,0,1,3.393,3.378,3.054,3.054,0,0,1-1.452,2.883l2.221,3.73Zm-3.924-5.344h1.924c1.286,0,1.606-.7,1.606-1.268s-.32-1.268-1.606-1.268h-1.924Zm-32.518,5.344v-.006l-4.56-6.3v6.307h-2.158v-9.99h2.158l4.56,6.3v-6.3H946.7v9.99Zm-10.958,0-.68-1.84h-4.145l-.674,1.84h-2.326l3.689-9.99h2.773l3.662,9.99Zm-4.033-4H932.1l-1.282-3.472Zm-35.584,4v-9.99h2.158v7.829h4.609v2.162Zm-5.207,0-1.927-3.234h-2v3.234h-2.158v-9.99h4.4a3.12,3.12,0,0,1,3.393,3.378,3.053,3.053,0,0,1-1.453,2.883l2.222,3.73Zm-3.924-5.344h1.924c1.286,0,1.606-.7,1.606-1.268s-.32-1.268-1.606-1.268h-1.924Zm178.325,5.33v-9.991h2.161V286.7Zm-7.467,0v-7.86h-2.875v-2.113h7.92v2.113h-2.885v7.86Zm-7.459,0v-9.991h2.161V286.7Zm-16.3,0v-9.991h2.16V286.7Zm-5.6,0v-4.053h-4.24V286.7h-2.161v-9.973h2.161v3.807h4.24v-3.807h2.161V286.7Zm-26.707,0v-9.973h6.473v2.113h-4.313v1.694h4.015v2.112h-4.015v1.94h4.611V286.7Zm-122.54,0v-9.991h2.16V286.7Zm72.849,0v-9.99h3.256a5,5,0,1,1,0,9.99Zm2.158-2.025h1.1a2.973,2.973,0,1,0,0-5.941h-1.1Zm-71.145-18.317L878.9,269.3H859.512V252.984l11.848-.219,6.072-8.421H860.6V230.221h25.2v4.593h9.552V245.67l-4.193,6.024,7.163,1.129-.033,16.821Zm250.722,2.947V252.567l-11.122,2.371-.085-16.794,37.9-9.185v17.919l-10,2.132v20.3Zm-52.314,0V256.324H1099.6l3.078-3.279h-24.76V242.117h39.239V257.7l-9.706,11.608Zm-43.049,0,.094-15.377h19.638l1.508-8.659h-5.214l-.91,4.266-17,.1,5.2-19.966h16.032l-.7,3.279h20.848l-5.342,36.352Zm-84.561,0V252.752H962.6l26.793-7.353V264l-24.558,5.306Zm-44.018,0,3.718-39.673h15.821l-2.989,39.673Zm-70.971,0V229.675h16.324l-.222,23.78,4.839-1.078v16.929Zm-21.105,0,3.73-39.673h15.822l-2.979,39.673Zm117.044,0-2.99-39.672H936v5.181h10.02l3.232,34.491Zm-161.582,0V256.913H773.8V245.773h-6.445L762.785,269.3H747l5.5-23.531h-3.456V233.037l6.424.035.793-3.4h14.227l-.675,3.476,8.046.044v1.619h9.5V269.3Zm221.412,0V229.717h16.66v7.525l19.388,7.65-2.979,16.771-16.41-6.978V269.3Zm213.443-.159h-10.2v-.053l-3.212-5.817v5.32l-13.806.551v-6.524l1.217-.048v-3.957h-1.929l0,10.53h-13.129l1.475-39.468h39.581v13.994h-3.556v1.78h3.556v5.692h-3.556v1.78H1207v5.692h-7.549l1.943,3.136.757-2.146H1207l-1.026,3.016H1207l-.029,6.524Zm-17.668-6.9,3.6-.144-1.923-3.481h-1.681Zm2.339-9.317h3.438v-1.78h-3.438Zm-8.334,0v-1.78h-3.557v-5.692h3.557v-1.78h-4.274l0,9.252Zm8.334-7.471h3.438v-1.78h-3.438Zm-12.61-7.471h16.339V236.2h-16.339ZM790.062,257.541V241.1h24.221v16.44ZM952.671,241.7l5.246-12.358,19.347,6.305-5.582,12.947Zm126.636-1.141V229.672h36.417v10.884Zm-59.634-7.077V225h6.247v8.479Zm-8.164,0V225h6.248v8.479Zm-66.007,0V225h6.247v8.479Zm-8.174,0V225h6.248v8.479Zm-42.031,0V225h6.247v8.479Zm-8.164,0V225h6.247v8.479Zm-99.775,0V225h6.247v8.479Zm-8.164,0V225h6.247v8.479Z" transform="translate(-746.999 -225)" fill="#fff"/>
</svg>
