<svg xmlns="http://www.w3.org/2000/svg" width="332.964" height="41.388" viewBox="0 0 332.964 41.388">
  <path id="パス_9996" data-name="パス 9996" d="M-162.18-10.422c-1.782,0-2.718.234-3.348.792-.81.72-1.044,1.89-1.044,5.094,0,3.186.324,4.356,1.35,4.9.81.432,1.872.576,4.158.576h6.264V-14.616h-4.122v4.194Zm.864,7.578c-1.242,0-1.4-.144-1.4-1.98,0-1.674.126-1.818,1.566-1.818h2.232v3.8Zm10.764,4.3a27,27,0,0,0,3.132-.18c2.322-.306,3.672-1.008,4.5-2.394a6.278,6.278,0,0,0,.738-3.456c3.024-.018,4.788-.936,5.706-2.916.522-1.224.72-2.952.738-6.876H-151.29v3.78h10.962c0,1.674-.5,2.232-2.142,2.268h-3.8V-5.4a2.408,2.408,0,0,1-1.872,2.61,12.368,12.368,0,0,1-3.042.216V1.44C-150.912,1.458-150.642,1.458-150.552,1.458Zm18.108-.288c5.742-.594,7.722-2.934,7.884-9.342h3.078V-5.13c0,1.53-.45,1.98-1.962,1.98l-1.152-.018v4c3.672-.018,4.176-.09,5.436-.756,1.584-.954,2.034-2.106,2.052-5.13v-7.074h-7.416v-2.7h-4.41v2.7h-3.582v3.96h3.6c0,3.456-.828,4.608-3.528,5Zm19.728.108h5.364c3.87-.054,6.1-.774,7.488-2.412,1.26-1.6,1.548-2.664,1.584-6.1V-12.4h-5.454v-2.34h-4.32v2.34h-5.508V-5.76h4.194V-8.73h6.768v2.61a3.254,3.254,0,0,1-1.08,2.538c-.666.54-1.494.738-3.582.828h-5.454Zm26.208-9.45v-4.356c-3.186-.882-4.14-1.134-8.082-1.98v4.194C-91.656-9.648-88.524-8.82-86.508-8.172ZM-94.734.9h7.524a8.437,8.437,0,0,0,6.03-2.178c1.368-1.4,1.872-2.826,1.872-5.472v-5.958h-4.464v4.752c0,2.178-.108,2.664-.774,3.42A5.311,5.311,0,0,1-88.362-3.33h-6.372Zm20.988.324h4.554V-5.6a56.382,56.382,0,0,1,7.614,1.944V-8.046a63.711,63.711,0,0,0-7.614-1.98V-14.67h-4.554Zm17.622-.036H-52.9c4.59-.036,6.354-1.566,6.39-5.6h5.094V-8.262h-5.094V-9.54c3.312-.27,4.59-1.6,4.86-5.04H-46.6c-.108,1.314-.378,1.494-2.376,1.512H-56.16V-9.5h5.274v1.242h-6.1V-4.41h6.1c-.036,1.242-.432,1.584-1.782,1.584h-3.456ZM-37.836.576h15.084V-3.132h-5.472V-8.1h4.77v-3.8H-37.116v3.8H-32.4v4.968h-5.436Zm19.692.378h4.464C-9.5.936-7.794.612-6.462-.45c1.4-1.17,1.926-2.79,1.926-6.1v-5.8H-8.694v6.786c.018,2.034-1.062,2.718-4.3,2.736h-5.148Zm.414-6.894h4.05c-.738-3.816-.972-4.86-1.368-6.282h-4C-18.45-9.81-18.216-8.658-17.73-5.94Zm4.824,0h3.924c-.414-2.43-.756-4.086-1.332-6.282h-3.942C-13.7-10.116-13.23-7.9-12.906-5.94ZM.9,1.116H7.056C9.918,1.062,11.79.522,13.014-.558c1.512-1.314,2.016-2.772,2.034-5.85v-8.136H1.944c-.126,4.158-.486,5-2.25,5.418V-4.86A7.57,7.57,0,0,0,3.852-6.552C4.9-7.47,5.328-8.388,5.706-10.566h4.878v4.212C10.458-3.528,9.468-2.808,5.67-2.826H.9Zm23.562.162h4.392v-9.4c4.77-2.07,5.184-2.574,5.346-6.606H29.754c-.126,1.836-.306,2.106-1.944,2.772L18.36-8.028v4.194l6.1-2.466Zm21.33-9.45v-4.356c-3.186-.882-4.14-1.134-8.082-1.98v4.194C40.644-9.648,43.776-8.82,45.792-8.172ZM37.566.9H45.09a8.437,8.437,0,0,0,6.03-2.178c1.368-1.4,1.872-2.826,1.872-5.472v-5.958H48.528v4.752c0,2.178-.108,2.664-.774,3.42A5.311,5.311,0,0,1,43.938-3.33H37.566Zm25.182.414h4.608L66.87-2.394l5.274-.162V-6.534l-5.6.162-.27-2.25,5.04-.126v-3.834l-5.436.144-.36-2.394h-4.5l.324,2.52-4.482.126v3.834l4.824-.126.252,2.232-5.688.162v3.978l6.12-.162Zm17.28-.234h4L82.908-7.038h3.348c-.072,1.278-.486,1.53-2.5,1.494l.558,3.474h.324c2.25,0,3.78-.684,4.68-2.106.828-1.314,1.134-2.844,1.26-6.462H82.422l-.27-2.088H78.084l.27,2.088h-2.3v3.6h2.808Zm22.464-9.252v-4.356c-3.186-.882-4.14-1.134-8.082-1.98v4.194C97.344-9.648,100.476-8.82,102.492-8.172ZM94.266.9h7.524a8.437,8.437,0,0,0,6.03-2.178c1.368-1.4,1.872-2.826,1.872-5.472v-5.958h-4.464v4.752c0,2.178-.108,2.664-.774,3.42a5.311,5.311,0,0,1-3.816,1.206H94.266Zm32.31-11.142a2.535,2.535,0,0,0,2.538-2.538,2.539,2.539,0,0,0-2.5-2.538,2.539,2.539,0,0,0-2.574,2.52A2.539,2.539,0,0,0,126.576-10.242ZM124.488.954h5.184L121.68-14.364h-3.906L112.248-3.942h4.914l2.466-5.022Zm2.07-12.762a1,1,0,0,1-.99-.99,1,1,0,0,1,.99-.99.991.991,0,0,1,1.008.99A1,1,0,0,1,126.558-11.808Zm5.22,7h15.966V-8.874H131.778Zm27.414-3.366v-4.356c-3.186-.882-4.14-1.134-8.082-1.98v4.194C154.044-9.648,157.176-8.82,159.192-8.172ZM150.966.9h7.524a8.437,8.437,0,0,0,6.03-2.178c1.368-1.4,1.872-2.826,1.872-5.472v-5.958h-4.464v4.752c0,2.178-.108,2.664-.774,3.42a5.311,5.311,0,0,1-3.816,1.206h-6.372ZM-39.15,26.07a14.19,14.19,0,0,1-2.106-4.122,15.273,15.273,0,0,1-.684-4.572,13.944,13.944,0,0,1,.648-4.284A14.453,14.453,0,0,1-39.15,8.9h-3.006A13.825,13.825,0,0,0-44.3,12.984,15.073,15.073,0,0,0-45,17.61a13.94,13.94,0,0,0,.7,4.446,13.352,13.352,0,0,0,2.142,4.014Zm8.748-.7h4.122v-2.9a10.5,10.5,0,0,0,6.192,2.808V21.642a8.758,8.758,0,0,1-3.654-1.476c1.962,0,2.952-.846,2.934-2.466V13.218H-26.28v-.4h6.192V9.78H-26.28V8.9H-30.4V9.78H-36.63v3.042H-30.4v.4h-5.346v6.948h2.808a10.031,10.031,0,0,1-3.672,1.476v3.636a10.307,10.307,0,0,0,6.21-2.844Zm-1.566-9.684v-.4H-30.4v.4Zm5.688,0v-.4h1.566v.4Zm-5.688,2.3v-.4H-30.4v.4Zm5.688,0v-.4h1.566v.4Zm8.766-4.806H-1.4V9.96H-7.272V8.826h-4.356V9.96h-5.886Zm4.428,12.312h2.322c2.448,0,3.456-.81,3.492-2.79v-3.24h2.25c1.8-.036,2.7-.846,2.682-2.448V13.542H-16.488v5.922h5.22v2.79h-1.368a6.292,6.292,0,0,0,.972-2.268H-15.5a3.129,3.129,0,0,1-2.124,1.692V25.26a7.214,7.214,0,0,0,4.536-2.412Zm.54-8.64v-.918h6.192v.918Zm11.3,8.424V21.7A2.662,2.662,0,0,1-3.294,19.86H-7C-6.768,22.884-4.572,24.954-1.242,25.278ZM3.492,16.53h12.15v-.936a6.619,6.619,0,0,0,2.088.594v-3.87a14.752,14.752,0,0,1-6.174-3.4H7.326a14.157,14.157,0,0,1-6.138,3.4V16.26a14.656,14.656,0,0,0,2.3-.666Zm4.356-3.168a9.772,9.772,0,0,0,1.566-1.35,13.354,13.354,0,0,0,1.638,1.35Zm5.58,12.024h4.23A38.774,38.774,0,0,0,15.57,20.76H11.448l.468.882a24.907,24.907,0,0,1-4.086.378l.846-1.62H17.46V17.07H1.422V20.4H4.23l-.72,1.638H1.458V25.35H6.624a21.821,21.821,0,0,0,6.534-.738ZM25.866,15.072h7.866c1.656.036,2.574-.648,2.592-1.98v-4H25.866Zm6.48,10.35H33.8c1.674,0,2.826-.936,2.844-2.34V18.42h-7.74l.2-.414h7.758v-2.52H25.47V12.462h-.99V9.294H21.114v3.168H20.088v3.474h1.026v3.978l-1.026.252v3.87a23.355,23.355,0,0,0,3.69-1.206v1.53a11.908,11.908,0,0,0,3.6-3.312h.306a14.635,14.635,0,0,1-3.312,4.14H27.4a19.778,19.778,0,0,0,2.79-4.14h.558a17.362,17.362,0,0,1-2.682,4.14H31.14a15.21,15.21,0,0,0,1.206-1.89Zm-2.79-13.968V11.04h2.826v.414Zm0,1.962V13h2.826v.414ZM25.38,19.23v-.684l-.882.324V15.936h.486v2.07H26.01A4.164,4.164,0,0,1,25.38,19.23Zm7.362,3.294a8.988,8.988,0,0,0,.576-1.476h.162v1.476ZM39.15,8.9a14.083,14.083,0,0,1,2.088,4.122,14.9,14.9,0,0,1,.7,4.572,13.912,13.912,0,0,1-.648,4.266A14.511,14.511,0,0,1,39.15,26.07h3.006a13.515,13.515,0,0,0,2.124-4.086A14.605,14.605,0,0,0,45,17.376,13.816,13.816,0,0,0,42.156,8.9Z" transform="translate(166.572 15.318)" fill="#fff"/>
</svg>
